<svg xmlns="http://www.w3.org/2000/svg" width="481.3" height="472" viewBox="0 0 361 354"><path d="M171 56.1a26 26 0 0 0-6.9 1.5A14844 14844 0 0 1 47.7 91.9 2068.2 1971.6 0 0 0 11 102.7c-.5.4-.6-2.7 1.4 56.8a2940 2940 0 0 1 1.5 52.7 18 18 0 0 0 .6 6.3A4244 4244 0 0 0 95.2 258l79.9 38.4 44.5-19.4 54-23.5c55-23.5 56.1-24.1 56.3-27.3a468 468 0 0 0 3.5-47.5v-8.5l8 .7c6.4.5 8.4.4 10.3-.8 2.9-1.9 6.8-11.3 6.3-15.5-.2-1.6 0-2.8.4-2.6q.8.4.8-.5c0-.9-2.1-1-4.7-1Q339.6 150 337 147q-1.7-1.9.5-1 1.5.6 1.7.1-.2-.6-1.7-2c-1.6-1.1-1.4-1.2 1.7-.6 1.9.3 4.8.7 6.5.8l8.7 1c5.4.7 5.7.7 5.7-1.3s-.4-2-3.3-1.5c-4.3.8-7.5 1.2-5.8.7q1.8-.4 0-1.3-1.5-1 1.2-.4c3.2.7 7.9-.9 7.9-2.7 0-.8-1.2-1.6-2.7-1.8l-2.8-.4 2.8-.2c1.4 0 2.7-.5 2.7-1 0-3-17.7-1-22.2 2.6-1.5 1.3-1.7 1.3-1.7 0 0-2 9.6-5.5 15-5.5 6 0 11.3-3 7.6-4.4a68 68 0 0 0-19.7 6q-3 2.6-2.6-.7c0-1.4 1.3-2 5.2-2.8a23 23 0 0 0 7-2.4q4-2.8-5.4.6c-6.7 2.4-7 2.1-6.1-7.2.3-4.2.5-8.3.3-9C337 111 329 108 265.2 87l-44.8-14.9c-23-7.6-47.6-15.7-49.3-16.1m-3 4.3q1.1 0 .7.6-.7.4-1.4 0-.4-.6.7-.6m6 2q2.2.1 1.2.5a4 4 0 0 1-2.5 0q-1-.4 1.3-.5m5 2.7c-2-1.1 2.8-1.1 7.4 0 2.8.7 2.6.8-1.5.9a15 15 0 0 1-6-.9m-6 2q1.3 0 .7.6t-1.3 0Q172 67 173 67m17.4 0q5.1 0 3.5 1a8 8 0 0 1-3.5 1 7.6 7.2 0 0 1-3.5-1q-1.6-1 3.5-1m-14.8.7q.6 1 2 .5 1.6-.5 1 .5c-1.2 1.8-3.7 1.4-3.6-.5q0-1.3.6-.5m-4.4.8q1.6.7 1.3 1.2-.6.4-1.8-.6-1.5-1.4.5-.6m-14.7.3q9.8-.9 14 1.7a8 7.6 0 0 0 8.2.2c1.7-1 10.4.2 20 2.7q2.5.7 1.7-.5c-.8-1.3 6.7-1.4 10-.2 3.8 1.5-14 2.2-40.3 1.6L144 73.7l-34 10.1a6285.1 5991.5 0 0 0-34.2 10.3c-.4.2-3.5 14.7-4 18.6-.5 3.3-.3 3.4 5.5 5.9 3.3 1.4 6.3 2.5 6.8 2.5s-1.5-1.1-4.3-2.4c-6-2.5-6.2-3.4-4.3-14.2 1.9-10 1.5-9.4 7.2-10.8l12.9-3.6 9.6-2.6c3.2-.6 18.2-5 28.2-8.3 4.9-1.5 9.5-2.7 10.5-2.4 2.2.4-22.1 7.8-54.1 16.4L79.6 96l-1 5.7c-2.4 12.4-2.3 13 3.9 16 9.1 4.2 20.9 9.1 20.9 8.7 0-.2 2.1.6 4.6 1.9 2.6 1.2 5.3 2 6.2 1.7q1.5-.6.7.8-.8 1.1-.2.7c.4-.4 3.4.5 6.4 1.8a121.4 115.8 0 0 0 10.2 3.7c5.5 1.5 10 4.5 6 3.8a26 26 0 0 1-4.5-1q-1.5-.4 1.5 1c4.1 2 71.8 2.8 72.4.8.2-.5 1.3-1.4 2.4-2 1.8-1 1.8-1 .3-1.6a10514 10022.8 0 0 0-48.6-18 230.9 220.1 0 0 0-6.6 0 39.8 38 0 0 1-3.7 0c1.1.4.9.6 2.3 1.2 4.8 1.7 11.9 4.4 15.6 6s7.6 2.9 8.7 3c1 .3 4 1.3 6.6 2.5a40 40 0 0 0 6.8 2.3c4.8.7 16 6 12.7 6a18 18 0 0 1-6.5-1.3c-1.8-.7-18.7-7-37.6-13.8-43.2-15.7-70.7-26.2-72.6-28-1.2-1.2-.6-1.2 3.5.1 2.7.8 5.8 1.8 7 2 1 .3 4.8 1.9 8.3 3.4 3.6 1.6 7.2 3 8 3a103 103 0 0 1 8.5 3.2c12.3 5 12 4.3 13.7 4.4a13 12.3 0 0 1-2.8-4.2c-10.8-4-26.8-9.9-29.3-10.7-9-3.4-12.8-6.5-4.3-3.8 8.8 2.9 20.7 7.2 26 9.5 3 1.2 6 2.2 6.8 2.2h.2a11 10.4 0 0 1 .2-3c-3.3-1.4-5.6-2.5-11.5-4.6-9.3-3.2-17.3-6.2-17.9-6.8q-2.2-2.4 16.7 4.1l13.6 4.7q.6-1.3 1.6-2.5l-7.3-2.7c-13-4.7-16.6-6.2-15.9-6.9.5-.4 15 4 17.9 5.5 1 .5 3 1.2 4.5 1.4q1 .2 2.6.9a18 17 0 0 1 2.3-1.7c-1.9-.6-1.9-.8-4.1-1.6-12-4-19.3-7.4-13.5-6.4 1.4.2 7 2 12.5 3.8 3.8 1.4 5.8 2 8 2.7a26.9 25.6 0 0 1 5-1.5l-6-2.1c-5.6-2-10.7-4-11.5-4.7-1.4-1.3 1.5-.6 16.4 4.2l5.9 2a41.8 39.9 0 0 1 2.6-.2 245.8 234.4 0 0 1 10.3 0c-11-3.2-25.8-7.6-27.3-9-1.3-1.4-1.3-1.4 0-1a489 489 0 0 1 21 6.8c7.7 2.9 8.7 2.7 11.8 3.5h.8l7.3.5a326 326 0 0 1-33.2-12.6c1-.4 2.9.2 20.7 6.5l12 4 6.3 2.4a27 27 0 0 1 14 4.9c1 .3 1.5.3 3.3 1a61.7 58.8 0 0 0 7.6 2.4c1.2.2 5.3 1.6 8.8 3.2a55 55 0 0 0 9.2 3.2c1.5.3 5.9 1.8 9.9 3.4s7.6 2.6 8.1 2.3q.9-.4 1 .5c0 1 .3.9.8.5a43 43 0 0 1 9.9 3.2c7.8 3.2 9.2 3.5 11.6 2.5l2.9-1-6-2-37.7-12.7c-45-15-72.2-24.8-72.2-25.8q.2-.7 1.8-.3c1 .4 8.5 3 16.8 5.7a361 361 0 0 1 21.3 7.5 61.7 58.8 0 0 1 7.6 2.4c2.8 1 5.4 1.6 5.7 1.3s.6 0 .6.6.4 1 .8.7a27 27 0 0 1 8.1 2.4c4 1.6 8.2 3 9.4 3.2s5 1.5 8.6 3c3.5 1.3 7.5 2.6 8.6 2.8a97 97 0 0 1 11.3 4c12.3 5.2 15.2 5.7 14.7 3-.3-2-2.5-3-19.2-8.1-29.4-9.2-77.2-25.8-79-27.6-1.5-1.3 1.3-1 5.2.5 2.6 1 4.9 1.9 5.1 1.8.6 0 7.4 2.4 35.5 12.5 3.1 1.1 6.7 2.2 8 2.3 1.3.2 5.1 1.6 8.6 3s7.7 2.6 9.2 2.8c1.6.2 3.8.8 4.9 1.4s6.3 2.5 11.5 4.3l9.4 3.2v-2.1c0-2.5-10.4-6.3-59.7-22.2-12.4-4-22.6-7.4-22.8-7.6-4-3.1 33.5 8.5 71 22 11.2 4.1 10.5 4.2 10.5-1 0-7.5 1.7-3.6 3.3 7.2 1 7.2 1.1 10.3.4 11.2q-1.5 1.4.8 1c1-.3 1.9-1 1.7-1.7a83 83 0 0 1-.6-13.7c.5 2.2 4.4 4.4 8.3 4.6 1.4.2 3.8 1 5.4 1.7a10 9.5 0 0 0 6 1c4-.7 5.8-2.2 2.7-2.2q-2 0-1.7-.8c.2-.4 2.1-.5 4-.3 3.5.3 3.5.4 1.6 1.7-2.4 1.6-2.8 3.4-.5 2.5q1.3-.2 1.4.4c0 1.4 6.6 2 13.7 1.3q5.8-.6 5.5.3t1 .3c.8-.3 1.8-.3 2.1 0 .8.8-1.3 1.6-24.2 9.9-33 11.9-47 17.1-46.6 17.5a118 118 0 0 0 12.3-4c57.5-20.8 70.2-25.2 70.8-24.6s-21.3 8.6-72.8 27.1l-36.9 13.3a3263.5 3111 0 0 1-32 11.6L186 168v23.9l12 11 12.2 11-9 14.1c-18.4 29-17 25.8-17.8 40.6l-.6 13 13.3-5.6a3079.4 2935.5 0 0 0 26.7-11.5c15.6-6.8 18.9-8.1 17.5-6.8-1 1-48.5 21.5-57.5 24.9-6.3 2.4-6.1 2.9-5.4-19.8L178 244l7.5-11.7 7.5-11.8-2.2-1.8a283.7 270.4 0 0 1-7-6l-4.8-4.2.2-8.4c0-4.5.4-12.8.8-18.3.5-7.9.4-10.1-.7-11-1.7-1.4-2.3-1.2 13.7-7l19.4-7 22.6-8.2c9.2-3.3 16.5-6.2 16.2-6.4s-3.5.6-7.2 2a5452 5452 0 0 1-65.2 23.5c-2.2.6-4.5 0-10.5-2.4a1032.1 983.9 0 0 0-33-13c-12.7-4.6-18-7-17.2-8q.6-.5-.5 0c-.7.3-3.1-.2-5.4-1.2L91 134.4l-22.4-9-16.2-6.2a34 34 0 0 1-10.1-5q.3-.5-1.2 0-1.8.6-1-.5.7-1-1-.5-1.8.7-1-.4.7-1.2-1-.5-1.8.7-1-.7 1-1.2-.4-.5t-2.4-.5a19 19 0 0 0-4.6-3c-5.2-2.3-.4-2.2 5.5.2 2.6 1.1 5 1.8 5.2 1.6s-1.6-1.2-4.2-2c-2.4-1-4.5-2.1-4.5-2.5 0-1.2-.5-1.4 13.9 4.3a72 72 0 0 0 12.5 4.4q-.3-.8 1.5-1.5t1.5-1.4q-.4-.8 1.4-.5 2 .4 1.4-1-.5-1.1-1.2-1.2c-2.3.3-6.3-.4-4.6-.9a6 5.7 0 0 0 3-1.5c.6-.6 2.7-2 4.7-2.9 2.2-1 3.6-2.3 3.4-3-.6-1.6 2.8-5.8 5.4-6.6q1.7-.6 1.4-1.5t.7-1a10 10 0 0 0 5.3-1.4c1-.6 4.7-1.8 8-2.6a132 132 0 0 0 10-3c.5 0 3-.7 5.4-1.5a151 151 0 0 1 16-5l10.4-3q16-4.5 25.8-5.3m41.9 1.3c5.4 0 5.6 0 2.6.9a11 11 0 0 1-6 0c-2.2-.8-1.7-1 3.4-1m8.9 5.7c.8-1.2 8.2-1.2 11 0q2.2.8-4.3.6c-3.4-.1-6.2 0-6.2.2a55 55 0 0 0 13.7 4.1q1 0 .6 1-.7.9 1.5.4 1.8-.5 1.6.3-.5.8 1 .9 1.5-.1 1.5-2.5c0-2 .3-2.3 2.3-1.8 5.2 1.6 6.5 2.4 7.1 4.2.7 1.9 1.3 2 16.4 3.5 12.6 1.2 14.2 2.8 2.8 2.6-9.4-.1-10 0-7.2 1.1a10 10 0 0 0 5 .8q2.4-.7.5.6-2 1.3 1.5.5 2.9-.5 1.7.3-1.6.8 3 2c2.3.5 5 1.5 5.7 2 2 1.4-.6.7-14.1-3.6-6-2-10.4-3.8-10-4.3s0-.7-.6-.3c-1.2.7-32.4-9-37-11.5q-3.2-1.5-.3-.7c1.2.2 2.4 0 2.8-.4m11.7 1.9c2.6 0 4.7.3 4.7.7 0 1.5-3.6 1.8-6.5.6s-2.9-1.3 1.8-1.4m41.5 12.3c.4 0 8.6 2.5 18 5.7a257 257 0 0 1 17.8 6.3q.4.5-1 .2l-18.6-6c-15.6-4.9-19-6.2-16.2-6.2m8 1c-1.8-1.2-.2-1.2 2.5 0q2 .8.5.8a7 7 0 0 1-3-.8m8 1.9q1.1 0 .6.6t-1.3 0q-.4-.6.7-.6m6 1.9q1.1 0 .6.6-.7.4-1.3 0-.4-.6.6-.6m3 .9q1.2 0 .7.6-.7.6-1.3 0-.5-.5.6-.6m3 1q1.1 0 .7.6-.7.5-1.3 0-.5-.6.6-.6m3 .9q1.1 0 .7.6-.7.6-1.4 0-.4-.5.7-.6m3 1q1.1 0 .7.6-.7.4-1.4 0-.4-.6.7-.6m3 .9q1.1 0 .6.6t-1.3 0q-.4-.5.7-.6m-24.2.3q.6.6 0 1.3-.6.4-.7-.6 0-1.1.7-.7m27.2.7q1.1 0 .6.6c-.3.3-1 .3-1.3 0q-.4-.6.7-.6m-219.1.1q1.4.2 9.5 3.2c19 7 22.1 8.3 28.9 11a94.6 90.1 0 0 0 8.5 3.2c.8.2 3.6 1.2 6.2 2.4 2.7 1 5.6 2.1 6.6 2.3s5.4 2 9.6 3.7c4.2 2 8.2 3.5 8.8 3.5s4.3 1.2 8.1 2.8q17 6.6 19 6.7 1.2 0 1.9.8c1.2 2-6.5.3-18.1-4q-12.3-4.6-14.5-4-2.3.7-.9-.2c1.4-1-3.2-2.6-14.5-6.8-32-12-52.8-20.1-56.5-22.4q-4.2-2.4-2.6-2.2m119.6.2a13 12.3 0 0 1 1.7 3.2l1.7.6a51 51 0 0 0 8.5 3c1.4.2 5.1 1.5 8.2 2.9a64 64 0 0 0 7.7 2.8c3 .5 5.8 1.4 9.9 3 2 1 4.2 1.5 4.9 1.4q1.1-.2.7.7c-.4 1 0 .8.9.5q1.4-.5 1.5.3 0 .8 1.3 1c2.3 0 8 2.8 7 3.3-.6.4-6.6-1.3-13.4-3.7s-13.4-4.7-14.8-5c-3-1-17.7-6.4-23.6-8.7a11 10.4 0 0 1 0 3.3q1.1.2 4 1.5c2.2 1 4.6 1.9 5.3 1.9s3.8 1 6.7 2.3 5.7 2 6 1.7q.5-.4.6.6.2 1.4 1 .6c.5-.3 5 1.2 9.7 3.3 9.8 4.4 13.1 5 18.2 3a55 55 0 0 1 6.5-2c2.9-.7 2.9-.7-2-2.2a1656.1 1578.8 0 0 1-52.3-17.3zM52.9 102q.6.1.7 1c.1 1-.4.8-.8.6q-1-.4-1.4 1.2-.6 1.9 1.4 2.3 2 .5-.4.3c-3.3-.2-2.9-5.3.5-5.4m198.8 0q1.1 0 .7.7-.7.5-1.4 0-.4-.6.7-.7m53.7 0q1.3 0 .7.7-.6.4-1.3 0-.4-.6.6-.7m-7.9.4c-.7-.7.6-.4 5 1.1 7 2.3 7.3 2.3 6.8 2.8s-10.8-3-11.7-3.9M20 102.7q1.7.5 1.2 1.2-.6.4-1.8-.7-1.5-1.4.6-.5m38.5.4q.9 0 1 1c.1 1-.5.9-1 .9q-.9-.1-1-1 .1-.9 1-1m-30.2.4q.6.6 0 1.3-.5.4-.6-.7t.6-.6m247.9 0q.6.6 0 1.3-.6.4-.7-.7t.7-.6M23.8 104q1.1 0 .7.7-.7.5-1.4 0-.4-.7.7-.7m-11.9 1c.3 0 5 1.7 10.4 3.7l17 6.6 28.3 11.3 32.4 13 13.4 5.5q2.2.8 1.4 1.3c-.6.2-9-2.9-18.9-6.8l-43.3-17.1A378 378 0 0 1 12 105m67.2.8 5.4 2 13 4.9c18 6.7 20.8 7.8 28 10.3 4.2 1.5 9.5 3.6 11.7 4.7 2.2 1 4 1.7 4 1.4 0-.2 2.6.7 5.7 2a52 52 0 0 0 7.8 2.8c1 0 3.6 1 5.6 1.7 2 .8 4 1.2 4.3.8s.5-.1.1.5q-.7 1.2 2.3 1.8a10 10 0 0 1 3.6 1.3c.9 1.3-5 .4-10.5-1.6l-16.9-6.3a14673.2 13987.8 0 0 1-54.5-20.4 34.8 33.2 0 0 1-7-3.7zm232.3 0q1.1 0 .7.7-.7.5-1.4 0-.4-.7.7-.7m-19.8 1c1.9-1.2 3.2-1.2 2.4 0a3 3 0 0 1-2.1 1q-1.4 0-1 .8.4.6-2 .3c-1.2-.2-2.1-.9-1.8-1.4q.7-.7 1.9-.4c.6.3 1.8 0 2.6-.4m28.8.7a15 15 0 0 1 4 1.5q1.6.8-1 .2a16 16 0 0 1-4-1.5q-1.6-1 1-.2m-3.4 1.4c.7-.1 4 1 7.5 2.3 3.4 1.3 5 2.2 3.4 2-3.3-.5-12.7-4.2-11-4.3m9.4 1.2c0-.7 4.4.7 5.5 1.7q.6.6-2.3-.2a10 10 0 0 1-3.2-1.5m-123.5.5a13 12.3 0 0 1-2.2 3.8c.4 0 1.4 0 3 1a38.8 37 0 0 0 7.3 2.4 41 41 0 0 1 8.2 3c2.6 1.2 4.7 2 4.7 1.7q.1-.2 2.4 1c1.2.8 2.5 1.2 2.8 1 .3-.3 2.8.4 5.7 1.7 2.7 1.3 4.7 2.5 4.4 2.8s.8 0 2.5-.5q5.5-2 .9-3.1a352 352 0 0 1-38.2-14.5q-.8-.3-1.5-.3m-123 1.5q2.6.8 13.9 5.9a273 273 0 0 0 20.5 8.4c1.7.8 3.5 1.3 4 1s1-.2 1 .3c0 1 2.3 2 4.3 2a54 54 0 0 1 6.4 2.5 94 94 0 0 0 21.2 7l4.5.6-4.3.5a19 19 0 0 1-8.5-1.2c-2.3-1-12-4.6-21.6-8.3A302 302 0 0 1 81.6 114q-4.2-2.9-1.7-2m-64.1 2.5q1 0 1 1c0 1-.2.9-.5.9q-.4-.1-1-1t.4-1m184.7.2a16.4 15.7 0 0 1-5.4 4l3 .6c1.9.3 4.8 1.3 6.5 2.2s3.4 1.3 3.8 1q.5-.5.6.4t1.7.5q1.7-.7.8.7-.8 1.2.3.5c.6-.3 4.3 1 8.2 2.7 3.8 2 7.5 3.1 8.1 2.8q1-.6.3.6-1 1.3.7.7a2.7 2.6 0 0 1 2.7.5q1.1 1.2 1 0 .1-1.1.8-1c9 1.3 4.1-1.4-13-7.2-13.9-4.7-19.4-7.2-20-9m130.4 4.1.2 8.2q.3 8.2-1.1 12.1c-.8 2.2-1 3.7-.5 3.4 4-2.4.1 7.7-7.5 19.1l-8.3 12.4 6.3 6.9c5.3 5.7 6.3 7.4 6.3 10.2v3.5l-2.2-1.8c-1.2-1-5.4-5-9.3-9l-7.2-7.1 2.4-4c1.4-2.2 2.3-4 2-4s-1.7 1.9-3.1 4.2l-2.7 4.3 10.1 10.4q10.1 10.4 10 12.6 0 3-.9.2a114 114 0 0 0-10.6-11.7c-5.5-5.4-10-10.2-10.2-10.6s5-9 11.4-19.1c12.2-19.1 12.7-20.4 14-32.6zM194 119a28 28 0 0 1-8.2 1.8l6.2 1.9a34 34 0 0 1 6 2c1.9.8 4 1.5 4.6 1.5q1.3 0 1.3.7c0 .7 6 3.1 7.3 2.9a20 20 0 0 1 4.8 1.8c4.8 2.4 8.8 3 10.9 1.8 1.6-1 1.4-1-21-9-12-4.3-13.8-5.5-11.9-5.4m-162.8.2c1.4 0 2.5.5 2.5 1s.4.8 1 .5c.4-.3 1.5 0 2.2.7s2.5 1.2 4 1.2 2.8.2 2.8.5c0 .4 1.1 1 2.4 1.2 1.4.4 4.1 1.7 6.1 3s4.3 2.4 5 2.4c1.3 0 2.8 2.7 2 3.6q-.6.2-1.2-1.1c-.3-1-1.4-1.6-2.4-1.6s-2-.4-2.2-1-1.2-1.2-2.3-1.3q-1.7-.4-1.7-1.4.4-1.3-1.7-.2c-1.6.9-2.2.7-3.5-1q-1.4-1.8-1.5-1 0 1.5-1.7-.4c-1.7-1.5-1.8-1.5-2.2 0-.4 2.6.6 4.4 2.4 3.8q1.4-.4 1.5.5t1.4 1c1.2 0 3.1 1 5 2 2 1 4 1.7 4.5 1.4q.9-.4 1.6.5c.6 1 5.1 3.1 7 3.2q1 .2 2.2 1.2c.7.7 1.8 1 2.2.7q1-.3 1 .4c0 1.6-2.8 2-3.5.4q-.5-1.6-1.6-.5c-1.8 1.7-.2 4.3 2 3.6q1.9-.6 2 .4c.2 1 .8 1 1.7 1q1.5 0 1-2-.4-1.7 1-1.8t1.4-1.3c0-1.7-2.5-3.6-3.4-2.8q-.8.6-1.7-1-1-1.9-2.5-.5t-1.4-.4q0-1.4-1.3-1.9-1-.4-.6-1 .8-.5 2 .6a5 5 0 0 0 3.6 1.2q2-.1 1.6 1t2.1.8q2.3 0 2 .6-.5.8.4.9c.4 0 .6 1.3.4 2.8-.4 2.4-.1 2.9 1.5 2.9 1.2 0 2.4.4 2.8 1 .3.4 1.4.9 2.5.9s1.9.5 1.9 1 .9.9 2 .6c2.1-.5 3 1.7.8 2.4q-1 .4-.5 2 .8 1.6 2 1.3a2 2 0 0 1 2 .8q.6 1.2 2.2 1.4c2.5 0 1.3-3.3-1.3-3.6-2.5-.4-3-1.7-.8-2.4a2 2 0 0 1 2 .8c.2.7 1.4 1.4 2.5 1.4 1 0 2.2.4 2.6 1a2 2 0 0 0 1.8.6q1-.2 2.3 1.1c1 1.3 1.3 1.3 3 0q1.6-1 1-.2-.5 1 .7 2.2 1.4 1.2 2.1 0 .7-1 2.2 1c1.8 2.4 3.8 1.2 2.8-1.7q-.6-2-2.6-1.4-2 .5-2-1.1.1-1.4 1.2-1.5c1-.1.8.4.4 1q-.5.8 1.7.5l2.3-.6c0-.6 4.4-.7 4.8 0 .4.3-.6.6-1.9.5-1.3-.2-2.4 0-2.4.5s1.5.7 3.3.5q3.5-.2 3 .9-.3 1 2.4 1c1.5 0 2.7.4 2.7 1q.2 2.4 3 2.8 1.3.2.9-.8t.9.5c.8 1 1.9 1.7 2.4 1.7q1 0 1.6 1.2.5 1.4-1.7 1.2-2-.2-1.8-1.4 0-1-1.6-.8a5.4 5.1 0 0 1-3.5-1c-1.4-1.1-1.8-1.1-2.3.2-1 2.3.3 4.4 2.1 3.7q1.7-.4 3 1.2 1.5 2.1 2.3.5.9-1.5 1.5.8c.7 2.6 2.5 2.5 3.8-.4 1.1-2.3 3.8-4 3.8-2.4q.2.8 1.7.3 1.6-.6 1 .4-.5 1 .6 1.5 1.5.5-.3 1.5-1.5 1.1-2.6-.4c-1.6-2-3.5-1.7-3.1.8q.2 2.1 2.2 2c1.1-.2 2.4.4 2.8 1.1 1.4 2.2 2.7 1.5 2.7-1.5q.1-4.2 2.3-2.2.5.6-.4 1.8c-1.4 1.6-.2 5.1 1.7 5.1q1.5 0 1.4-3.3v-3.4l2.2 2c1.2 1 2.7 2 3.4 2q1 0 1 3c-.1 2.5.2 3 1.9 3 1 0 2.3.6 2.7 1.2 1.3 1.9 3.7 1.4 3.7-.6q0-1.6-1-2.5-.9-.6-1-1.6.2-.7 1.8 1.2c3 4.2 3.5 4.6 6.6 3.7q4.5-1.3 4.6 1.2-.1.8-.8.5c-.4-.3-.4 10.7 0 24.3s.6 26.2.5 27.7l-.3 2.8-1.2-2.4a15 14.2 0 0 0-2.4-3.8 27 27 0 0 1-3-5c-5-10.1-5-10.1-8.7-11a41.8 39.9 0 0 1-7.3-2.9 12 12 0 0 0-3.7-1.5c0 .4-1-.3-2-1.3-1-1.1-2.7-2-3.7-2-.8 0-3.5-.8-5.8-2-4.2-2-4.2-2-9.7-.2l-5.6 1.9 6.2 2.7c28 12.2 26.1 10 25.2 27.6-.4 7-1 13.5-1.4 14.3-.4 1.3-.2 1.4 1.6.4 1.2-.6 3.7-1.3 5.7-1.5a30 30 0 0 0 13.4-6.2c2-1.9 2-1.8 1.6 10.2l-.6 18.6c0 5.7-1.9 9.5-2 4.2-.2-2-.2-2-1-.2l-.9 1.9-.1-2q-.1-1.6-.7-.6c-.8 1.9-2.8 1.4-4.2-1-1.4-2.5-7.7-5.7-9.2-4.8q-1 .5-.5-.4t-.3-1.6c-2.2-1.3-1.2-3.5 1-2.4 3.5 1.8 4.7-.5 1.5-2.5-2.1-1.3-2.9-1.4-3.5-.4q-.7 1.1-1.8.7c-.5-.3-1.8 0-2.8.8-2.6 1.8-3.4 1.7-3.4-.5q0-1.9-1.9-2c-1 0-3-.9-4.6-2q-3-2.2-3.2-1c-.6 1.7-3.2 1.4-3.2-.3q0-1.2 1-1.4.9 0 1-1-.1-1-1.5-.5t-1.5-.6-1 .2q-1.2 1.8-1 0c0-1 .5-2 1.2-2.2q1-.5-.8 0c-1.2.2-2.7-.2-3.3-1-1.2-1.2-1.5-1.3-2.8 0a5 5 0 0 1-2.6 1.3q-1.2-.1 0-.6c.8-.2 1.2-1.6 1.2-3q-.2-3.7-.6-.2l-.5 2.4-1.3-2.3c-1.1-2-1.4-2.1-2-.9-.6 1.6-4.4 1.4-4.4-.2 0-.5-1.8-.8-4-.8q-3.8-.1-4.7-1.4c-.4-.7-2.4-1.5-4.2-1.7-2-.1-3.6-.9-3.8-1.7q-.6-1.7.5-.1 1 1.4 1.7.2c1.2-2-.3-2.4-3-1-2.2 1.1-2.7 1.1-3.4 0q-.8-1.5-1.5.8c-.3 1.1-1.3 2-2.2 2-1.3 0-1.2-.2.2-1.6 1.3-1.2 1.3-1.7.3-2.3q-1.5-.8.9-.8c2 0 2.1-.3 1-2.4-.6-1.4-1.7-2.3-2.3-2s-1.8-.1-2.4-.8-1.8-1.2-2.6-.8q-1.2.3-1.4-.5c0-.7-5.2-4-6.5-4q-.3.1-.7 1.9c-.6 2 1.8 3.4 2.8 1.7q.7-1 1.6 1.1.8 2 2.2 1.7 1.4-.5 2 1a2 2 0 0 0 2.1.9q1.3-.5 1.5.3c0 1.6-1.7 1.9-3 .5-.6-.8-1.7-1.2-2.5-1-.6.3-1.5-.1-1.9-1a2 2 0 0 0-2-1q-1.4.4-1.8-.5t-1.8-1.1a10 10 0 0 1-3-1.2c-4-2.4-14.3-7-15-6.6-.3.3-1-.2-1.2-1-.3-.7-1.5-1.4-2.7-1.4-1 0-2-.4-2-1s-.6-.9-1.3-.9-4.8-1.7-9.1-3.8-8-3.6-8.2-3.4q-.6.3-2.4-1.4-1.8-1.8-1.3-2.6.8-.3 1.2.5c.6 1.7 3.2 1.5 3.2-.3q-.2-1.4-2-2c-1.6-.4-1.8-.7-.9-1.8 1.5-1.6.3-4.5-1.4-3.8q-1.4.3-2-.7-.2-1.1 1.5-1.2 1.7.1 1.9.8 0 .7 1.5.8c2.5 0 1.6-2.9-1.3-4q-3.3-1.2-1-1.5 1.9-.4 1.4-2.2c-.5-1.8 0-1.8 1-1.8 2.1 0 1.1-2.2-1.5-3.3-1.1-.5-2.1-1.3-2.1-1.7q-.2-.6-2-.7c-1.8-.1-2.2-.4-2.4-.8-.6-1 3-.8 4 .1 1.2 1.1 2.4.7 2.4-.8q-.2-1.3-2.2-2.2-2.4-.8-.8-1.6 1.3-.6 1.8.3.5 1.1 2.2 1.2 1.6 0 2.5 1 .6.7 2.5.9c1.9.2 2 .4 2 1q.1.8 1.4.9c2.1 0 1.9-2.8-.2-3.4-1-.3-4.4-1.8-7.6-3.3s-6.2-2.6-6.8-2.2q-.7.3-.8-.5c0-1.4 2.3-2.5 2.8-1.2.6 1.8 3.3 1.3 3-.5a2 2 0 0 0-2.1-1.6c-2.1.2-2.2-1-.2-2.5q1.6-1.5 1.5.4 0 1.8 1.9 1.2 1.8-.3 2.4.9c.8 1.7 2.6 1.7 2.6 0 0-1.3-7.5-5.5-10.4-6l-2-.2c-.6 0-.1-.7 1-1.2q2-1.3 2.3 0c.2.6 1.2 1.1 2.2 1.1s2.1.5 2.5 1a2 2 0 0 0 1.8.6q1.1-.1 2.2 1c1.1 1.5 3.9.8 2.9-.7-.3-.5-3.3-2-6.6-3.7-3.3-1.5-5.6-3-5-3.3q1-.5 1.6.4c1 1.4 3.5 1.1 3.5-.4 0-1.6-5.2-4.3-8.3-4.4-2-.1-2-.1 0-.9 1-.4 2.4-.3 3.1.2q1.2.8 2.1.3c.5-.3 1.5.2 2.2 1q1.3 1.2 2.5 1 1.2-.4 1.8.8c.8 2.1 2.6 1.7 2.6-.6q-.1-1.7-1-1.3t-1-.5q0-1-.9-.5t-2.3-.7q-1.2-1.1-2.5-1-1.1.3-1.2-.4-.2-1-2.3-1.6t-1-1.2c.7-.2 2 .1 2.9.7q1.6 1.5 2.3 0c1-1.5-1-3.8-2.7-3.1q-1.1.3-1.2-.6 0-1 1-1c1 0 1-1 .8-2.2q-.3-2.1-2.1-1.9c-2 .4-2.4-1.3-.5-2 .7-.1 1.8.4 2.4 1.2q1.1 1.3 2 .8c1-1-1-4-2.6-4q-1.4-.1-1.8-1.1c-.5-1.6 3-1.1 4.4.6 1 1.3 1.3 1.2 2-.3.6-1.7-1.3-3.8-2.7-3q-.8.3-2-1-1-1.2-2-.9-.7.4-1.4-.5-.4-.9 1.3-1c1.2 0 2.4.5 2.7 1q.6 1 2 0c1.2-1 1.4-.9 1.4.4 0 .8.8 1.5 1.6 1.5q1.5 0 1.2-1.6c-.3-1.6-1.2-1.7-2.6-1.7a5 5 0 0 1-3-1 15 15 0 0 0-4-2.5q-3.5-1.5-1.7-2 1.4-.5 1.6.3.2 1.1 1.5 1c.8 0 2.4.4 3.5.9l4 1.9c3.3 1.6 4.4-.5 1.5-2.9q-1.8-1.5-1.6 0c.2 1.5-.4.9-1.7-.2-1-.7-3.2-2-4.9-2.7q-2.9-1.3-2.1-2c.5-.3 3.5.7 6.5 2.2s5.8 2.7 6.3 2.7c1.4 0 1-3.5-.6-4.7q-1.3-1.2-1.5-.5t-1.4-.4c-.8-.6-1.9-1-2.4-.7s-1.3.2-1.6-.3q-.5-1 2-1m136.5 1c2 .7 4.5 1.6 4.9 2 .7.5 1.8.7 2.3.4q1-.5 1 .2.2.8 1.3.8c1.1 0 4 1.2 7.2 2.6a60.7 57.9 0 0 0 8 3c1.3.3 4.8 1.6 8 3s6.7 2.6 7.7 2.7q1.8.3 2.6 1c.6.9 1.4 1 7 .5 3.8-.2 2-1-24.4-10.6-6.8-2.4-8.5-3.2-13.1-4.9l-11.1-.6zm166 5q.6-1.3.4 12.4l-.4 12.6-6 9-7.2 10.9c-1.1 1.7-.8 2.4 2.8 6.4 2.3 2.4 3.8 4.4 3.4 4.4s-.1.6.5 1.4q1.1 1.3.4 1.4a51 51 0 0 1-11-11.3L324 161l7-11 .7-9a83 83 0 0 1 2-15.9m-312.3 3q.5.5 0 1.7t-.5-.5.5-1.3m291.1 2.4q0-2.8.8.6c.4 1.6.6 6 .4 9.5a122 122 0 0 1-.9 10l-.7 5c-.2 2.7-1.7.8-1.8-2.4q0-3.6-.8-1.2c-.5 1.2-.6-1-.4-5.2q.8-15.9 2.4-14.6.9.3 1-1.7m5 2.2q0-2.9.8 1.1c.4 2 1 3.9 1.4 4.2s.5-.8.2-2.6q-.9-4.5.4-.6a7 7 0 0 1 0 5.2 7 7 0 0 0-.6 3.5c.3.6 0 1.7-.4 2.4q-1 1.6-1-1l-.1-2.4-.9 2.4q-.9 2.5-.4-3.6zm-12.3.5c1.6-1.5 2 3.6 1.1 12.4l-1.3 12.2a11 11 0 0 1-1 4q-.5 1.1.8.6 1.3-.3 2 1 .6 1.6 2.9 1c5.8-1.8-1.4 2.5-9.7 5.5l-19.7 7.5a19.9 19 0 0 1 4.4 3.3c.9-.5 1.8-1 1.8 0l-.9 1.1q.7.8 1.2 1.7c3.3-4.8 7.7-8.1 7.7-5.9 0 1-3.7 5.5-6.3 8.4a17.3 16.5 0 0 1 1 7.6c6.9-2.3 20.2-7.8 20.2-7.4 0 .6-9.2 4.4-20.3 8.5a20.9 20 0 0 1-2 6c.8 4.8-.4 24.9-1.6 26.3-.6.8-.9 2-.6 2.6q.4 1 .6-.7c.1-1.7.2-1.7 1.1-.2q.9 1.5.4 2.6c-1 1.4-4.2 1.1-4.8-.5q-.4-1.3.4-1.4 1-.1.2-1.4c-.6-1 .3-14.6 1-22.8a30.9 29.4 0 0 1-3.9 3.6c0 1 .4.7.2 2.2l-.8 11.5c-.1 2.8-.7 5-1.1 5q-.9 0-.4.5.5.8-.4 2.6-.9 1.7 0 1.2t2.2.9c1 1.2.7 1.5-1.5 2.4-3.3 1.2-3 1.2-3.2-.7l-.2-4c-.3-2.8.7-11.5 1.5-19a43.8 41.8 0 0 1-3.7 2c-.2 4.3-.5 9.9-1.1 13.5-1 5.9-1 7.7 0 8 1.3.4 1.7 3 .5 3l-3 .6c-2.3.6-2.4-5-.8-23.2q-1.8.7-3.7 1.2v.2a85 85 0 0 1-1 16c-1.2 5.1-1.2 6.2 0 6.2 1.8 0 1.5 1.2-.8 2.6-1.7 1-2 1-2-.7 0-1-.4-2-1-2s-.8-.4-.4-.9c.3-.5.8-7.3 1.1-14.9l.2-5.3-3 1-.9.3.1 1.5c-.2 12.4-.4 14.6-1.3 14.6-1.4 0-.7 5 .9 6.7 1.4 1.6 1.3 1.8-1.5 3.1l-3 1.6.4-15c.2-5.7.5-8 .8-11.4a52.8 50.3 0 0 1-3.6.8 75 75 0 0 1-1 17.8c-1.2 5-1.2 6 0 6.7q1.8.7 0 2-1.5 1-2.6.5a137 137 0 0 1 0-26.4q-2.2.3-4.3.3v8.3a236 236 0 0 1-1 15.9 3.3 3.1 0 0 0 1.2 3c1.8 1.3-.4 2.6-3.5 2-1.6-.2-2.4-19.4-1-21.6a25 25 0 0 0 .6-7l.1-.7a29.9 28.5 0 0 1-4.2-.6c.3 1.9.6 4.3.4 9-.3 6.1-.9 13.4-1.3 16.1-.6 4.5-.5 5 1.3 5.6 2.1.6-1 3-4 3.1-1.4.1-.9-29.6.6-33.5l.6-1a22.9 21.8 0 0 1-3.8-1.5l-9.5 3.8a89 89 0 0 1-15 5.2c-.9-.9 1.7-2 19.4-9.2l2.8-1.2a19 18 0 0 1-4.2-4c-.3 0-1 1.2-1.2 1.1s1-1.1 1-1.5a17 16.1 0 0 1-1.5-2.6c-3.1 4-7.1 8.1-8 7.2-.6-.5 4-7.1 7-10.7q-.7-3.1 0-6.5c-5.3 1.9-13.4 5-13.7 4.8-.7-.2.5-1.1 2.6-2q3.8-1.9 2.4-2.5c-2.8-1.7-.6-36.9 2.3-36.9 1.3 0 1.2 24-.2 29.5-.6 2.9-.6 4.2.2 4.7q1.1.8.6 1.7c-1 1.5.2 1.3 4.9-.9q2.9-1.4 1.7-1.2v-.2q-3.8.8-2.6-16c1.5-22.1 4.5-26.8 4.7-7.5.1 11.1-.3 15.5-1.3 15.5-.3 0-.6 1.3-.7 2.9s.3 2.6.7 2.3l.4.3q1.5-2.8 4-5.5v-7.5c.4-13.3 2-23.8 3.5-23.8 3.2 0 1.5 23.6-1.5 29.4q2.7-2.4 6.3-4.6c-.2-10.2.6-23 2.4-25.7q3.6-5.4 2.2 12.2-.5 6.4-.7 11.4a56.7 54 0 0 1 4-1.7c0-1.9-.2-1.9-.2-4.2.4-16 2.7-25.3 4.8-20 1 2.4-.1 13.9-1.5 23.1a137.4 131 0 0 1 5.2-1.6c-.2-6.4-.4-14.3.4-20 1-7 4.5-7.3 4.5-.4 0 4.7-1.2 13.8-2 19.6a57.7 55 0 0 1 4.8-1.1c-.6-9.5.3-24.8 2.4-26 2.4-1.4 2.5 13.5.5 25.5a43.8 41.8 0 0 1 5.3-.4h.2c-2-2.2-1.2-24 1.4-26.7 2.4-2.6 2.6-2.5 2.1.8-.3 1.5 0 2.9.3 3a33 33 0 0 1-.2 10.3 53 53 0 0 1-2 12.7q2.6 0 5 .5c-.5-4.5 1-27.4 2.2-29.6q3.1-5.4 2.3 11.6l-.8 13.6a5 5 0 0 1-1.6 3.6q-2 1.2.2.5c2-.6 2.2.3 1.4 1.2a25.9 24.7 0 0 1 2.5.9 1099.8 1048.4 0 0 1 20.4-7.5c5-1.8 9-3.6 8.7-4q-.6-.6-2.6.4c-1.9 1-2 .8-1.6-2 .3-1.6.1-3.2-.4-3.5-.9-.5-1-10 0-18.3q.5-5.7 1.4-4.6.9 1.4.8-.8c0-1 .4-2.3.8-2.6m-282.9 2.2q1.4.1 1 1-.6.9-1.6 1c-1 0-1-.5-1-1s.8-1 1.6-1m275.4.3q2.1-.5 1.5 11.4c-.6 12.3-.7 13-2.7 14.7q-2 1.4.5.5c2-.6 2-.6 0 1.5q-2.1 2.3-.3 1.5c.8-.3 1.8-.1 2.2.4q.5 1-1 1.6l-3.5 1.4q-1.6.7-1.6-.5.1-1.2.8-1c.7.3.6-1.2.3-3.2a146 146 0 0 1 2-26.6q1-1.5 1.7-1.7m-222 1.4a6 6 0 0 0 3.6 1.2c1.2 0 2.3.4 2.3 1q.2 1 1.5.5 1.5-.4 1 .3-.2.8 1 1.4 3.3 1.3 1.9-.6-1-1.5.7 0c.9.6 1.9 1 2.2.7q.6-.4.2.1c-.2.3.8 1.6 2.2 3q2.4 2 1 1.2-1.7-1.1-3.1-.7a1.6 1.5 0 0 1-2-.9q-.7-1.3-1.9-1c-.7.2-1.8-.3-2.4-1.1-1.1-1.4-1.4-1.4-2.3-.1s-1.1 1-1.7-.8q-.5-2.2-2.4-1.7-1.7.4-1.9 0l-.6-2q-1-2 .7-.5m215 1.3q.8.3 1.2 2.4c.6 3-.8 19-2.2 24.2-.7 2.8-.6 3.4.5 3 2.1-.7 1.7 1.4-.5 2.5s-3.7 1.3-2.7.4q.4-.6-.2-1.7c-1.2-1.4.6-28 2-29.6q1.2-1.5 2-1.2m-132.6 1q2.2 0 1.3.5a4 4 0 0 1-2.5 0q-1-.5 1.2-.5m126.1 1.8q.5 1.9 0 9.7a174.2 166 0 0 1-1.5 14.6q-.9 4 .2 5 1.3 1.2-.8 2.5c-1.8 1.2-2 1.2-2.7-.3-1.9-4.5-.1-28.4 2.3-31q2-2.3 2.5-.5m-260.9 3.7q1.4.1 1.5 1c0 .9-1 1-2.1 1s-1.8-.5-1.4-1a3 3 0 0 1 2-1m73.6.3q1.3.1 1 .7c-.6 1 5 2.2 6.3 1.6.4-.4.9.3 1 1.3.1 2.1-2 2.4-4.1.4q-1.4-1.1-2-.8c-.6.5-3.7-1.9-3.7-2.8q.2-.3 1.5-.4m20.7 3.1 8.7 3.3c4 1.6 7.9 3.3 8.4 3.8 1.5 1.4-4-.6-11.9-4.3q-6-2.9-5.2-2.8m221.3 1.7q.6.6 0 1.3-.5.4-.6-.7 0-1.4.6-.6m1.8 1.6a1.6 1.5 0 0 1 2 0c.8.6 2 .8 2.5.5q1-.5 1 .2c0 .5 1.6.8 3.6.7 1.8-.2 3.4.2 3.4.7 0 1-11.4.6-12.5-.5q-.9-1 0-1.6m-22.8 1q.5 0 .5.9-.1 1.2-1.1 1c-1-.3-.8-.5-.4-1q.6-.9 1-1m18 2q.4.3.4 2 0 2.2-1.1 1c-.6-.5-.8-1.5-.4-2q.7-1.2 1.1-1m-198 .9c.5 0 5.6 1.8 11.3 4 23.2 9.3 25.9 10.4 25.9 11.2 0 1.2-.1 1.2-6.1-1.4a935.6 891.9 0 0 0-17.8-7.2c-12-4.7-15.7-6.6-13.4-6.6m-11.8.3q.6.6 0 1.3-.7.4-.7-.7 0-1.4.7-.6m217.8.6q.5.1.5 1-.1 1.2-1.1 1c-1-.3-.8-.5-.4-1q.6-.9 1-1m-2.9.3q.6.7 0 1.3-.5.4-.6-.6 0-1.3.6-.7m9.3 0q-.2.6-1.7 1.7-2.4 1.9-.4-.3 2-2.4 2.1-1.3m-3 0q-.1.6-1 1.1-1.2.7-.6-.4c.8-1 1.6-1.5 1.6-.6m-35 1.8a3 3 0 0 1 1.2 2c0 1.5-2.7 2.6-3.5 1.3q-.4-.8.9-1.4t1-1.6q-.6-.9.5-.3m28.5 2.2q1.4.1 1 1.3c-.4.5-1.6.9-2.7.9q-2.4.1-.9-1.4a3 2.9 0 0 1 2.6-.8m-3.5 5q1.1 0 .7.6-.7.6-1.4 0-.4-.5.7-.6m-133.8 2q1 1.7 1.3 8a68 68 0 0 1-.8 13c-1.9 8.8-2 13.3-.6 12.7q1.4-.4 2 .3c.4.8-1.6 2-3.4 2-1.3 0-1.7-28.2-.5-33.4q1-4.1 2-2.5m-47.2 2.1q0-.7.5.3.6 1.1 2 1.2c1.4 0 1.8 1.1.7 2.2-.8.7-3.3-2.2-3.2-3.7M195 171c.7.4.8 5 .5 12.7-.5 9.8-.3 12.4 1 14q2.2 3.7-2.1.9c-2.9-2-2.3-29.3.6-27.6m106.7 3.8q.2.5-1.5 3.4c-3 5-6.3 8.4-8.2 8.4s5-11.1 7.4-11.7q2.2-.7 2.3-.1M23.4 185.9q.5.6 0 1.8-.4 1.1-.6-.5 0-1.6.6-1.3m5 2q.6.2-.1 1.5a2.2 2 0 0 1-1.7 1q-1 0 .2-1.5 1-1.1 1.7-1m279.4 1.5q.5.1.5 1 0 1.2-1 1-1.3-.4-.5-1zm0 2.9c1.3 0 1.5 1 1.2 6.3-.5 6.5.8 12.2 2.5 11.2q.8-.4-.2 1.4c-1.2 2.2-8.8 6-10.2 5.1q-.8-.3-.6.8c.4 2.4-1.3 6-2.2 4.5q-1.9-3.2.3-2.2 1.5 1 0-.7a69 69 0 0 1 1-26.2c2-2.3 2.8.7 2.6 10-.1 7.1.2 9.2 1.5 10.5 1.5 1.4 1.6 1.2 1.8-2.7l.2-7.6.4-6.9q.2-3.6 1.7-3.5m-283.7 1q1.6 0 1.3.5-.6.5-2 0-1-.4.7-.5m269.3.9c1 .8 1.8 5.7 1.5 11.7-.3 4.8-1 11.2-1.7 14.2-.9 4.4-.9 5.7.2 6.3 1.6 1 .7 2.5-2 3.1-2.4.7-1.9-30.5.8-34.8q.6-1 1.2-.5m21 3a9 9 0 0 1 .7 4.4q-.1 3 1.1 4c1.2.6 1.2 1 .2 2.2-1.5 1.7-3.5 1-2.7-.9q.4-1.1-.3-1.5c-.4-.2-.5-2.4-.3-5q.4-4.6 1.3-3.3M26 201.8q.8 0 .4 1-.7.8-1.7.9-.8-.1-.3-1a2 2 0 0 1 1.6-1m-6.7 1q1.6 0 1.3.6-.6.5-2 0-1-.5.7-.5m305.9 2c.2 1.5.2 4 0 5.7q-.4 2.4-.4-2.6c0-3.1.1-4.5.4-3.1m-296 8.4q1.8 0 1.4.5-.7.7-2 .1-1.1-.4.6-.6m120.3.5q1.6.6 1.3 1.2-.6.4-1.8-.7-1.5-1.4.5-.5M33.2 215q1.3 0 1.5.4c0 1-2 1.4-2.4.5q-.5-.9.9-1m5.3 1.5q.4.3-.3 1.3a1.3 1.3 0 0 1-1.7.5q-1-.6.3-1.4 1.2-.7 1.7-.4m139 .5q.4 0 1 1 .6.7-.4.8c-1 .1-1-.4-1-.9s.1-1 .4-1m127.3 1q.3.2-.1 2-.5 1.7-1 1.4c-.5-.5.4-3.4 1.1-3.4m-263.7 1q1.4 0 2 .8.4.8-1.4.4-3.6-1-.6-1.2m136.4 1.2q.7.3 1.5 4 .9 3.5-.3 3c-.7-.2-1.3-2-1.5-4q-.2-3.4.3-3m-131.9.6q1 0 1 .5 0 .3-1 1-.9.4-1-.4.1-1.1 1-1m279.1 0q.8 0-.9 1.2a792 792 0 0 1-52.8 22.3c-.2-.3 2-1.4 4.8-2.7l12.7-5.4a1247 1188.8 0 0 1 20.4-8.6c7.1-2.9 13.4-5.7 14-6a4 3.8 0 0 1 1.8-.9m-100 1q1.5 1.4 1.4 14a94 94 0 0 1-1.2 15.1c-.8 2.5-.6 3.3.7 4.1 1.9 1-.7 3.8-3.3 3.8-2 0-.8-33.3 1.2-36.4q.7-1 1.2-.6m-175 1q.9 0 1 .9-.1 1.2-1 1t-1-1q0-1.2 1-1m107.4.7q1 0 5 7.2c4.4 8.1 4 11.2-1.7 13.5-4.5 1.8-4.3 1.9-4.3-1.4 0-1.6.5-2.9 1-2.9q.9 0 1-1c.1-1-.3-.8-.7-.6s-1-3.2-1-7.7q-.4-7.2.7-7.1m-113.4 1.2q1.1 0 .6.7-.6.5-1.3 0-.5-.7.7-.7m9.8 0q2 0 2.1.4c0 1-3 1.3-3.5.5q-.4-.8 1.4-.9m163.3 1q.7.1 1.3 2.4c.5 2.7.1 16.2-.7 23.8-.5 3.7-.2 5.3.9 6.4 1.4 1.3 1.2 1.6-1.7 3.6q-2.7 1.9-2.4 1 .6-1.1 0-1.2c-.8 0-.8-3.1 0-25.1.2-8.3.8-10.9 2.6-10.9m-157.5 0q.3.1.3 1.4a1.5 1.4 0 0 1-1.5 1.4c-2.6 0-1.8-1.9 1.2-2.7m2.8 2.7q1.4.1 1 1-.6.9-1.6 1-.9-.1-1-1c0-1 .8-1 1.6-1m114.6.4q.6.5 0 1.2-.6.4-.7-.6.1-1.4.7-.6m32 .8c1.5.2 1.6 1.5 1.6 11.2-.2 13.4-.6 19-1.6 18.3-1.7-1-.6.7 2 3q2.3 2.3 1.7 2.3a5 5 0 0 0-5 1.6c-1.8 1.7-2 .3-.4-2.8q1.6-2.6-.4-.8c-1.4 1.1-1.6 1-1.2-2.8l.7-16.1c.2-7 .7-11.8 1.2-11.5q.8.3.3-1-.8-2 1-1.4m-142.9 1q2.5-.2 1 1-1.1 1-2.1 0t1.1-1m-6.1 2.6q1.1 0 .7.6-.7.5-1.4 0-.5-.6.7-.6m10 0c1.8-1.1 2-1.1 2 0q-.1.9-1.8 1-2.2 0-.2-1m131 .8q1-1.8 1 .8a78 78 0 0 1 0 24.1c-1 5.7-1 7.2-.1 6.9q1.2-.4 1.9.5.3 1-1.7 1.9c-2.9 1-3.6-.4-3.7-8.1a167 167 0 0 1 2.5-26.2M75.1 234q.3.1 1 1 .3.9-1 1-1.6-.1-1-1 .5-.9 1-1m101.3 0q.5.1 1.2 1 .4.9 0 1-.4-.1-1-1t-.2-1m-107.8 3q1.1 0 .6.6-.7.5-1.3 0-.4-.6.7-.6m10 0c1.8-1.2 1.9-1.2 1.9 0q-.2.9-1.7 1-2.2 0-.3-1m-6 1.9q1.3 0 .7.6t-1.3 0q-.5-.6.6-.6m10.4 0q1.7 0 1.3.5-.6.6-2 .1-1-.4.7-.6m110.3 7.9a9 9 0 0 1 .2 4.2c-1.4 13.3-1 19 .8 18.5q1.6-.3 1.8.5c0 .9-.7 1.3-4.4 2.3-.9.3-.9-23.7 0-25q1-1.6 1.6-.5m75 3.5q.4 0 .4 1c0 1-.4.9-1 .9s-.9-.5-.5-1zM140.3 274q1.1 0 .7.6-.7.6-1.3 0-.5-.6.6-.6" style="stroke-width:.971742"/><path d="M43.7 111.6c.8.5 1.9 1 2.5 1q.7-.1-.5-1a6 6 0 0 0-2.5-1q-.8.1.5 1m15 2.2q0 1.5.8 1.6l2.3.5q1.4.5 1.5-1.6 0-2-.4-1a2 1.9 0 0 1-1.8 1.2c-.7 0-1.6-.5-1.8-1.2q-.5-1-.6.5m-8.7.4q.7.5 1.3 0 .5-.7-.7-.7t-.6.7m16.3 3.2q1.2 1.1 1.8.7.3-.5-1.3-1.2-2-.8-.5.5m23.5 6.2q.7.6 1.3 0 .5-.5-.6-.6c-1.1 0-1 .3-.7.6m4 5.7q.7.5 1.3 0 .5-.5-.7-.6c-1.2 0-1 .3-.6.6m5.6.3q0 1.1.7.7.6-.7 0-1.3-.7-.5-.7.7m-1 2.8q0 1.1.7.6c.4-.3.4-1 0-1.2q-.7-.4-.7.6m11.7 2.4q-.4 2.2.2 2.8c.3.2.7-.9.9-2.4q.1-5.2-1.1-.4m14.5 4q.7.3 1.4 0 .5-.7-.7-.7t-.7.6m-10 1q.8.5 1.4 0t-.7-.7q-1.1 0-.6.7m15.9 6.6q.7.5 1.3 0 .4-.6-.6-.6-1.2 0-.7.6m40 2q-2 .4-.4 1.2 1.6 1-1 1c-1.2 0-2 .4-1.6.9q.4.9-1.2 1-2-.1-.4.8t-.5 1.3q-2.6.6.2.5c3.5.2 8.4 2.2 7.8 3q-.3 1 1.8 1c2 0 3.3.2 4.7.5q3 .5.6-.3c-1.9-.8-1.9-.9.2-1.4q2-.4 2.2.5 0 .8.7.4c1-1-2-3.6-3.6-3q-1.9.7-.3-.7c2-2 1.4-3.1-.7-1.4q-1.8 1.8-2.6.6c-.4-.7-2.2-1-4.6-.7-2.2.3-3.6.2-3.1-.3s2.5-.9 4.7-1c2.2-.2 4-.8 4.3-1.4q.2-1-2.2-.6-2.9.7-2-1.1c.7-1.6.4-1.6-3-.8m-17.1.9q.7.5 1.3 0 .4-.7-.6-.7-1.3 0-.7.7M150 152c.7.3 1.6.3 1.9 0q.3-.6-1.3-.6-1.8.2-.6.6m3.5 0q.7.5 1.3 0 .5-.6-.6-.6c-1.1 0-1 .2-.7.6m2.7-.3a21 21 0 0 0 4.5 1q3.9.6 2.4-.4c-1.3-.8-7.8-1.4-6.9-.6m-3 3.9q.2.3 2 .8c1 .3 2 .1 2-.3s-1-1-2-1q-1.8.1-2 .5m9.8 3.6c-1.3 2.2.2 2.1 3-.2l2.3-1.8-2.2.1c-1.2 0-2.6 1-3.1 1.9m6.9-.5c.7.3 1.6.2 1.9-.1q.3-.5-1.3-.5t-.6.6m1.2 3.8q1.4.6 2.8 1.5t.6-.6-2.8-1.5-.6.6m5.7 0a4 4 0 0 0 2.5 0q1-.5-1.3-.6-2.2.1-1.2.5m6 14.8a407 388 0 0 1-.6 18.6l-.6 9.8 7.2 6.7c5 4.7 7 7.2 6.6 8.3-.3.8-3.6 6.4-7.3 12.4-6.5 10.4-9.9 19.9-7 19.9.5 0 1-1.8 1-4 0-3.2 1.4-6.1 8.4-17.2l8.5-13.3-8-7.7c-7.1-6.8-8-8-8-11.2 0-5 0-5.1 15.9 9l7.3 6.6-1.7 3-1.8 3 2-2.4c3.2-3.6 3-3.8-9.4-15l-11.6-10.5.5-12.3c.3-6.9 0-12.4-.3-12.4-.5 0-1 3.9-1 8.8" style="stroke-width:.971742"/><path d="m199.3 226.2-4.1 6.9-1.5 2.3 1.9-2a52 52 0 0 0 7-11.7c-.3 0-1.7 2-3.3 4.5m-7.3 11.6c-.6 1-.9 2-.6 2s1-1 1.6-2 .8-1.9.6-1.9q-.6.1-1.6 2m-3.2 5-2.5 4.4q-2.2 3.4.2.4c2-2.2 4.7-7 4-7-.3 0-1 1-1.7 2.1m-7 10.6q-3 2.3-.9 2.4 1-.1 2.1-1.9 2.1-3.2-1.3-.5m-1.5 16a70 70 0 0 0 .5 13c.4 0 .7-4 .6-8.8q-1-24-1-4.2m50.2-185.2q1.2 1.1 1.8.7c.6-.4-.3-.9-1.3-1.2q-2-.8-.5.5m3.6 1.5q.7.5 1.3 0 .5-.6-.6-.6c-1.1 0-1 .2-.7.6m3.6 1.3c.8.5 2 1 2.6 1q.7-.1-.6-1a6 6 0 0 0-2.4-1q-.8 0 .4 1M37 130q.4 2 2 1.9 1.6 0 1.8.7.1.8 1.6.8t1.2-1.6a2 2 0 0 0-2-1.5q-1.6 0-1.8-.6-.1-.8-1.6-1.4-1.7-.7-1.2 1.6m7.8 3c0 .8 1.6 2.1 3.7 3l5.5 2.4c1 .5 2.2.7 2.6.4q1-.4 1.4 1c1 2.2 2.9 1.6 2.5-.8q-.3-2-2-2.2a6 6 0 0 1-3.1-1.2q-1.6-1.2-1.7-.7t-1.4-.4c-.9-.6-2.2-1-3-.6a1.6 1.6 0 0 1-2-.9c-.7-1.8-2.5-1.7-2.5 0m-9.9 1c.3 1 1 2 1.8 2.2q1.3.4 1-1.3c-.2-.9-1-1.9-1.8-2.1q-1.3-.4-1 1.3m4.1 2q.5 1.6 1.8 1.7t2.8 1.2q1.2 1.4 3.2.2 2.1-1.1 1.3.4c-.6 1.6 1.2 3 2.2 1.5.7-1.2-1.4-4-2.5-3.3-.4.2-1.4-.2-2.1-1s-1.9-1.2-2.5-1q-1.3.4-2-.4c-1-1.5-2.5-1-2.2.7m-6 1.7q.5 1.7 1.7 2.2 1.3.4 1-1.3c-.2-.9-1-1.9-1.8-2.1q-1.3-.4-1 1.2m4.1 2.1q.5 1.6 1.8 1.7 1.8.2 2.7 1.4 1.1 1.6 2.3.4c1.5-1.4.4-3.2-2-3.2q-1.7-.1-2.5-1c-1-1.5-2.7-1-2.3.7m14.7 1.2c0 1-.4 2-1 2s-1 .8-1 1.8.7 2 1.6 2c.8 0 1.4-.8 1.4-1.5q0-1.4-1-.8-1.2.6-.6-.5a3 3 0 0 1 2.2-1c1.8 0 1.5-3-.3-3.6q-1.2-.3-1.3 1.6m-20.9.8q.2 3.7 2.5 2 1.3-1 1.8.5c.8 1.7 4 2 3.4.3-.3-1-5.3-4.3-7-4.4q-.6 0-.7 1.6m15.2 1.4c.3 2.3 2 2.6 2.6.4q0-1.3-1.4-2-1.7-.7-1.2 1.6m10-.6c0 1 .8 1.8 1.4 2 1.9.5 1.6-2.3-.3-3q-1.6-.6-1.2 1m4.2.7c-1 2.2 1.2 4.2 2.8 2.7 1-.9.8-1.5-.5-2.7-1.5-1.6-1.7-1.6-2.3 0m10.7.3a3 3 0 0 0 2.2 2q2.2.6.7-1.6c-1.4-2.5-3.3-2.6-2.8-.4m4.6 0c-1 1.9-.2 3.6 1.9 3.9 1.2.2 2.2.7 2.2 1.2s.7.9 1.6.9q1.5-.1 1.2-1.7t-2-1.7c-1.6 0-2.3-.8-3.1-1.7-.7-1-1.6-1.4-1.8-1m-35.7 2.2q.2 1.8 1.5 2 1.3-.1 1.5-.8c.2-.7-.7-1.4-1.5-2q-1.7-1.6-1.5.8m25 0c.2 1.3 1 2.5 1.6 2.7 1.8.5 1.5-2.2-.3-3.6-1.4-1.2-1.5-1-1.3 1M29 146.5q.4 1.6 1.8 1.8 2 .3 3.3.8 1.6.6 2.4.2c.8-.9-1.7-3.6-2.7-3q-.8.3-1.4-.5c-1.1-1.7-3.7-1-3.3.7m24.6-.3c0 1.7 1.7 2.7 3 2q1-.6 0-2c-1.6-1.7-3-1.7-3 0m-9.7 1.2q.3 1.4 1.5 2c1.9.5 1.5-2.4-.3-3q-1.6-.6-1.2 1m24.8.3c.2 1.2 1 2.4 1.7 2.6q1.3.4 1-1.7c-.2-1.2-1-2.4-1.7-2.6q-1.3-.4-1 1.7M47.9 149q.4 2 2 2.1c1 0 2.2.7 2.7 1.4.8 1.1 1.2 1.2 2.2.3 1.4-1.4-.8-4.4-2.8-3.7q-1.3.4-1.4-.3-.1-1-1.6-1.4-1.5-.7-1.1 1.6m10.4-.8a1.5 1.5 0 0 0 .8 2.1c2.4.8 3-.4 1.3-2.1-1.4-1.4-1.6-1.4-2.1 0m-20.6 1.5q.2 1.7 1.5 1.9 1.3-.1 1.5-1.4c0-.6-.7-1.5-1.5-1.8q-1.5-.6-1.5 1.3m35.3-.9c-.4.6 0 1.8 1 2.6 1.4 1.4 1.5 1.4 1.5-.5 0-2.4-1.5-3.6-2.5-2.1m-10.4 1.8q.1 1.8 1.6 2 1.4-.1 1.2-1.7c-.5-2.4-2.8-2.7-2.8-.3m-31.3 0c-.9 1.3 1.3 4 2.6 3.3q1-.5 2.2 1 1.4 1.8 2 .6c.8-1.2-1.3-4.4-2.2-3.5q-.6.3-2.2-1-1.8-1.5-2.4-.4m10.4.8q0 1.7-1.2 2.3c-1.4.5-.3 3.6 1.3 3.6q1-.2.6-2-.6-1.8 1-1.8c1.7 0 1.3-3-.4-3.6q-1.2-.2-1.3 1.5m-.3 4.6q-.7.4-.7-.6 0-1.1.7-.7.6.7 0 1.3m36.2-4.3q.4 2.1 1.4 2c1.5-.3 1.2-3.3-.4-3.8q-1.2-.4-1 1.8m-21 .6q0 3.8 2.7 2 1.4-1.2 1.3.5a1.5 1.5 0 0 0 1.5 1.5c2 0 1.9-2.8-.2-3.4l-3.6-1.4q-1.8-1.1-1.7.8m10.2 0c.4 2.3 2.8 2.6 2.8.3q-.1-1.8-1.6-2-1.5.1-1.2 1.6m25.6.3c0 1.9 1.7 3.5 2.7 2.6.8-.8-.7-4.5-1.7-4.5q-1 .2-1 1.9M46 153q.5 1.6 1.8 1.7 1.8.2 2.7 1.4c1 1.3 1.3 1.3 2.2 0 1.2-1.7.3-3.1-1.6-2.4q-1.4.3-2-1c-.8-1.9-3.5-1.7-3.1.3m35.7.4q.4 2.1 1.4 2c1.5-.4 1.2-3.3-.4-3.8q-1.2-.4-1 1.8m-10.6 0c-.8 1.3 1 3.1 2.4 2.3 1.1-.7.4-3.4-1-3.4q-.7.1-1.4 1m25.8.3c-.9 2.3 1.2 4.2 2.8 2.7 1-.9.9-1.5-.5-2.7-1.5-1.5-1.7-1.5-2.3 0m-21.1 1.6c.2 1.2.9 2.4 1.6 2.6 1.7.5 1.5-2.2-.4-3.6-1.4-1.2-1.5-1-1.2 1m9.8-.5c0 1.5 2.6 3 3.6 2.1q.2-.5-.2-2c-.8-1.9-3.4-2-3.4 0m-31.3.3c-1 1.6 1.4 4.2 2.7 3q1.2-1-.5-2.5-1.6-1.6-2.2-.5m10.4.5c0 .7 1.4 2 3 2.8 4 1.9 4 1.9 4-.4 0-2-1.7-2.6-2.3-.7q-.5 1-1.6-1c-1.3-2.3-3.1-2.8-3.1-.7m37 .7c.1 1.1.9 2.2 1.5 2.4 1.9.6 1.6-3.2-.3-3.9q-1.7-.7-1.2 1.5m11 0c0 1.3 1 2.2 1.9 2.2a6 6 0 0 1 3.2 1.3c1.4 1 1.7 1 2.2-.2.7-2-.5-3.7-2.1-3.1q-1.2.3-1.9-.9c-.9-2.3-3.7-1.7-3.3.8m-69 .2c0 1.7 1.7 2.7 3.1 1.9q1-.6-.1-2c-1.5-1.7-3-1.7-3 0m36 .6c.2 1.2 1 2.4 1.8 2.6q1.3.4 1-1.7c-.2-1.2-1-2.4-1.8-2.6q-1.3-.4-1 1.7m10.9 0q0 1.7 1.6 1.9 1.4-.1 1.1-1.6c-.4-2.4-2.7-2.7-2.7-.4m-31.9 1c0 1 .7 2 1.5 2q1.4-.2 1.5-1.4c0-.7-.7-1.6-1.5-1.8q-1.5-.6-1.5 1.2m47.1-.4c-.8 2 1.3 4 2.7 2.7 1.2-1.1.3-4.2-1.2-4.2q-.9.1-1.5 1.5m-68 1.4q.2 1.7 1.5 1.9 1.3-.1 1.5-1.4-.2-1.2-1.5-1.8-1.5-.6-1.5 1.3m10.5-1c-1 1.4.3 2.9 2.5 2.9 1 0 2 .4 2 1q0 .8 1.5.9 1.3-.1 1.4-1.3c0-1.8-2-3.4-3.6-2.8q-1.3.4-1.4-.6c0-1.3-1.6-1.3-2.4 0M84 158q-.6 1.2.8 2.6c1.9 1.9 3 .1 1.3-2.1q-1.4-1.9-2-.5m10.3.8q0 1.7-1 2.6c-1.2 1.2-.2 4.2 1.2 4.2q.9-.2.6-2.3c-.4-1.8 0-2.4 1.9-2.7q2.3-.4 2.3 1c0 .6 1 1.2 2 1.2q1.8 0 2 1c.2 1 1 .9 2 .9 2.2 0 2.4-.4 1-3q-1.2-2.2-2.5-.9-1.4 1.2-1.8-.4c-.4-.8-1.6-1.4-2.7-1.4-1 0-2-.5-2-1s-.6-1-1.4-1q-1.5.2-1.6 1.8m-31.7.7q.5 1.7 1.7 2.1 1.3.4 1-1.2c-.2-1-1-2-1.7-2.2q-1.3-.4-1 1.3m10.8.3q.1 1.9 1.6 2c1.5.1 1.4-.6 1.2-1.6-.4-2.4-2.8-2.7-2.8-.4m37 .8q.3 2.6-.9 2.4-1.1 0-1.2 1.7t1.5 1.9q1.3-.2 1.4-2c.1-1.7.4-1.8 1-1.8s.6-1.1.3-2.4c-.7-3.3-2.4-3-2 .2m-67.5-1q.4 1-.7 1.5c-.7.2.5 1.2 2.5 2.1 4.1 1.8 5.1 1.6 4.1-.8q-.7-1.5-2-1a3 3 0 0 1-3-1.2q-1.2-1.5-1-.6m45.6 1.3c.2 1.2 1 2.4 1.7 2.6q1.3.4 1-1.8c-.2-1.2-1-2.3-1.7-2.5q-1.3-.4-1 1.7m-56.7.7q.5 1.5 1.8 1.6a3 3 0 0 1 2.3 1.2c1.2 1.8 2.7 1.4 2.7-.8q-.1-1.7-1-1.3t-1-.5q-.1-1-1-.5t-1.5-.4c-1-1.6-2.7-1.1-2.3.7m35.3-.4q-.7 2.3 1.5 2.5.7-.2.8-1.9c0-2.1-1.5-2.5-2.3-.6m10.5.3c.5 2.4 2.8 2.7 2.8.4q-.1-1.9-1.6-2-1.5.1-1.2 1.6m37.2-.7c-.9 1.3.4 3.9 2 3.9q1.3-.1 1.4-1.4c0-1.7-2.6-3.8-3.4-2.6m-58.2 1.6c.2 1 1 2 1.8 2.2q1.3.3 1-1.3-.5-1.7-1.8-2.1t-1 1.2m4 1.5q.5 2 1.8 2.6 1.2.4 1-1.8-.5-2-1.8-2.6-1.3-.4-1 1.8m10.8-.1c0 1-.4 2-1 2s-1 .8-.8 1.9q.4 1.6 1.3 1.6.9-.4.7-2-.2-1.5 1.2-1.6c1.7 0 1.5-3-.2-3.6q-1-.1-1.2 1.7m10.4-.3c.4 2.4 2.6 2.7 2.6.4q-.2-1.8-1.4-2-1.3.1-1.2 1.6m37.5.4q.5 2 1.8 2.6 1.3.4 1-1.8-.4-2-1.8-2.6-1.3-.4-1 1.8m-78.7.7q0 2 2 2 1.8.1 2 1c.2 1 .6 1 1.5 1q1.3 0 1.5-.9c.2-.9-.7-1.3-1.5-2q-1.4-1-1.5-.4t-2-1c-2-1.7-2-1.7-2 .3m10 .2q0 1.7 1.5 1.9 1.3-.1 1.4-1.4a2 2 0 0 0-1.4-1.8q-1.6-.6-1.6 1.3m36 0c.2 1.2 1 2.4 1.6 2.6 1.8.5 1.5-2.2-.3-3.7-1.4-1-1.6-1-1.3 1" style="stroke-width:.971742"/><path d="M97 164.2c-.6 1.6 2 4 2.8 2.6.7-1-.3-4-1.4-4q-.7.2-1.3 1.4m-31.9 1c-.3.7.2 1.8.9 2.5q1.6 1.4 1.5-.9c0-2.4-1.6-3.5-2.4-1.7m10.3.5q.1 1.9 1.6 2 1.5 0 1.2-1.6c-.5-2.4-2.8-2.7-2.8-.4m48.3-.8c-.7 1.1 1.2 3.8 2.7 3.8 1.3 0 .5-4-.9-4.5a2 2 0 0 0-1.8.7m-69 1.4c.1 1 1 2 1.7 2.2q1.3.3 1-1.3-.5-1.6-1.8-2.2-1.3-.3-1 1.3m36.1-.1c-.6 1.6.2 3.4 1.7 3.4 1.3 0 1.2-3.5 0-4.3q-1-.5-1.7.9m10.8.6c.3 2.4 3.3 3.4 3.3 1.2q0-1.1-1-1.2-.8 0-1.7-1.1-.9-1.4-.6 1m11-.3c0 1 1 2 2 2q2 .6 1.5-1.3a3 3 0 0 0-2-2q-2-.6-1.5 1.3M80.2 167q-.8 2.3 1.4 2.5.8-.2.9-1.9c0-2.1-1.5-2.5-2.3-.6m48.5 0c-.7 1.6.2 3.5 1.6 3.5 1.3 0 1.2-3.6 0-4.3q-1-.5-1.6.8m-90.4 1.1c-.8 2 .2 3.6 2 3q1.2-.4 2 .4c.7 1.2 3.6 1.1 3.2-.2q-.4-.8-1-.7c-.4.2-1.7-.7-3-1.9-2.3-1.9-2.6-2-3.2-.6m10.4.3q-.1 1.8-1 2.5c-1.6 1-1.2 3.3.6 3.3q1.5.1 1-1.9-.5-1.9 1-1.9c1.7 0 1.4-3-.4-3.5q-1.1-.2-1.2 1.5m10.1-.2c.5 2.4 2.8 2.8 2.8.4q-.1-1.8-1.6-2c-1.5-.1-1.4.7-1.2 1.6m36.4-.8c-.9 1.7-.1 3.5 1.5 3.8q1.8.4 1.7-1.5c0-1.8-2.6-3.6-3.2-2.3m11.4 1.3q.3 2 1.5 2.4c1.9.6 1.5-3.2-.3-3.9q-1.6-.7-1.2 1.5m10.7-.2c0 1.9 2 2.6 3.3 1.3.8-.7-1-3.1-2.4-3.1q-.8.1-.9 1.9m-54 .2c-.3.8 0 2 .8 2.6 1.8 1.5 2.7-.3 1-2.3-1-1.6-1.2-1.6-1.8-.3m10.2.4a5 4.7 0 0 1-1 2.9c-1.4 1.3-.6 4 1.1 4q1.1 0 .7-2.4-.7-2.6.9-1.9 1.5.7 1.1-1.5c-.4-2.6-2.8-3.5-2.8-1m11 .2c0 1-.5 2-1 2-1.5 0-.9 3.9.6 4.4q1.1.2.7-2-.6-2.6 1-2.5 1.5 0 1-1.9c-.3-1-1-1.9-1.5-1.9q-.7.1-.8 2m48.7.2q.8 2 2.9 2t2.1 1.2c.1 1.2.7 1.2 1.6 1.2q1.2-.1 1.4-1.9.1-2.4-3.6-2c-.6.2-1.4-.5-1.7-1.2a2.5 2.4 0 0 0-2.1-1.5q-1.7-.2-.6 2.2M52.8 170q.5 1.7 1.7 2.2 1.3.3 1-1.3-.5-1.6-1.7-2.2-1.3-.3-1 1.3m46.9.5c.2 2 2.7 3.6 2.7 1.6a.6.6 0 0 0-.7-.6q-.7-.1-1.5-1.7-.8-2.1-.5.7m11 0q.4 2.1 1.3 2.1c1.3-.4 1-3.4-.4-3.8q-1.2-.4-1 1.8M122 170q-.5 1.4 1 2 3 1 1.8-1.9c-.8-2-2-2-2.8 0m27.5 1c.3 3 3.7 4.4 3.7 1.5 0-1.8-1.7-4-3.2-4-.5 0-.7 1.2-.5 2.5m-81.8 0c0 2.2 1.5 3.7 2.4 2.3.2-.4-.2-1.6-1-2.6-1.3-1.7-1.4-1.7-1.4.3m10-.1q.5 1.7 1.8 2.1t1-1.3c-.2-.9-1-1.9-1.8-2.1q-1.3-.4-1 1.3m11 0c.5 2.5 2.9 2.8 2.9.5q-.1-1.9-1.6-2c-1.5 0-1.4.6-1.2 1.6m-31.9 1c.5 2.3 2.8 2.6 2.8.3q-.1-1.8-1.6-2c-1.5-.1-1.4.7-1.2 1.6m47.6.7q0 2.5 1.5 2.5 1.3-.1 1.5-1.3c0-.7-.7-1.9-1.5-2.5-1.3-1-1.5-.8-1.5 1.3m11-.3q.5 2 1.8 2.6 1.3.4 1-1.8-.5-2-1.7-2.6-1.3-.4-1 1.8m10.8-.1q.1 1.7 1.1 2.5c1.5.9 3-1.6 1.7-3.1q-2.6-2.6-2.8.6M35.9 173c.4 2 3.8 2.9 3.8 1q-.1-1.4-1.6-2c-2.3-.9-2.6-.8-2.2 1m57 0c.1 1 1 1.9 1.8 2q1.6.3 1-1.6c-.6-2.4-3.2-2.7-2.9-.4m-42.2.7a8 7.6 0 0 1-1.2 3.4c-1 1.4-1 2 0 3 1.8 1.7 3.6-1 2-2.8q-1.2-1.2.7-1.2 1.5 0 1.3-1.5c-.4-2.1-2.8-2.8-2.8-1m10.7-.7c-.3.3-.4 1.2-.1 1.8q.3 1.1-1 1.8c-1.8.6-1 3.4 1 3.4q1.1 0 .7-1.9t1-1.9q1.5 0 1-1.9-1-2.9-2.6-1.3m47.2 1.4q.5 2 1.7 2.6 1.3.4 1-1.8-.5-2-1.7-2.6-1.3-.4-1 1.8m11.3-1c-1 1.5 1.5 4.2 2.8 3q1.2-1.2-.5-2.6c-1.7-1.4-1.8-1.2-2.3-.5m11 .2c-1 1.3 1.5 4 2.6 3 1-1 0-4-1.2-4q-.8 0-1.5 1m11.7.5c.1 1 1.1 2 2.1 2q2 .6 1.5-1.3c-.1-1-1.1-2-2.1-2q-2-.6-1.5 1.3m-112.5 1q.4 1.7 2.7 1.5 2-.2 1.6.7t1.2 1.5L39 180c2.3 1.2 2.7 1.1 2.7-.6q-.1-1.2-1-1.4c-2 0-2.5-.1-4-1.2-4.6-3.4-7.2-4.1-6.8-1.9m11-.2c.1 1 1 2 1.7 2.2q1.3.4 1-1.3c-.2-.9-1-1.9-1.8-2.1q-1.3-.4-1 1.2m35.1 0c-.6 1.5.2 3.3 1.7 3.3 1.2 0 1.2-3.5 0-4.3q-1-.4-1.7 1m10.6.3q-.2 1.7-1.1 2.8c-1.4 1.3-.5 4 1.1 4q1.2-.2.7-2.4-.5-2.3 1-2.3c1.5 0 1.5-.2.7-2.3s-2.4-1.9-2.4.2m11-.3q.5 1.7 1.8 2.2 1.2.4 1-1.3c-.2-.9-1-1.9-1.8-2.1q-1.3-.4-1 1.2" style="stroke-width:.971742"/><path d="M147.7 174.4c-1 2.1.2 3.6 2.4 3.6 1 0 2.1.7 2.4 1.4q.6 1.3 2 1c2-.8.8-4.4-1.2-4-1 .1-2.4-.6-3.3-1.7-1.6-1.7-1.8-1.7-2.4-.2M45 176.3q.3 2 1.5 2.4c1.9.6 1.5-3.2-.3-3.9q-1.7-.7-1.2 1.5m9.9-.6q.5 1.6 1.7 2.2 1.3.3 1-1.3-.5-1.6-1.7-2.2-1.3-.3-1 1.3m11 .1q.3 1.6 1.4 2 1.2.2.7-1.6c-.7-2.3-2.6-2.6-2.1-.4M113 175c-.8.7 1.2 4.1 2.4 4.1 1.5 0 1-3.5-.5-4.1q-1.3-.4-2 0m11.6 1.4c.1 1.2.9 2.2 1.5 2.4 1.9.6 1.5-3.2-.3-3.9q-1.6-.7-1.2 1.5m10.7-.8c0 .6.5 1.8 1 2.6 1.2 1.8 3.5-.2 2.7-2.3-.7-1.8-3.7-2-3.7-.3M80.5 177c0 1 .5 2.1 1 2.4q.9.5 1-1.2-.1-1.8-1-2.5-.9-.4-1 1.3m10-1c0 1.7 1.2 4 2.2 4 1.3 0 .5-4.1-1-4.5q-1.2-.4-1.3.5m11.3.6.7 2q.1.3 1.6.4c2.2 0 1.3-3.2-1-3.7q-2-.5-1.3 1.3m-32 1.1c.5 2.4 2.8 2.7 2.6.4 0-1-.8-2-1.6-2s-1.2.8-1 1.6M129 177c-1 1.3.4 3.9 2 3.9q1.3-.1 1.4-1.3c0-1.8-2.7-3.8-3.4-2.6m11.3 1c0 2.3 1.8 3.5 3.3 2q1-.8-.2-2.4-2.9-3-3 .4M74 179.4c.5 1.9.3 2.4-.9 2.4q-1.5.1-1.3 1.6c.5 2.4 2.8 2.7 2.8.4 0-1 .5-2 1-2 1.6 0 .8-4-.8-4.5q-1.6-.6-.8 2m21.2-.9c-.8 2 2.2 4.3 3.3 2.6q.7-1.3 1.3.8c.3 1.2 1.2 2 1.9 1.8 2.2-.8 1.5-3-1.7-4.7-3.7-2-4.1-2.1-4.8-.5m11.4.2c.2.9 1 1.9 1.7 2.1q1.3.4 1-1.3-.5-1.7-1.7-2.1-1.3-.4-1 1.3m10.8 0c0 1.4 2.7 3 3.6 2q.3-.5-.2-2c-.8-1.9-3.4-2-3.4 0M157 179c-.6 2.2 1.3 4 3 3 1.5-1 .7-3.6-1.2-4.3q-1.3-.3-1.8 1.3m-104 .3c-.9 2 .5 3.7 2.3 2.7 1-.6.9-1.2-.2-2.6-1.4-1.7-1.4-1.7-2.1 0m10.6.1q.5 1.6 1.7 2.2 1.3.3 1-1.3-.5-1.7-1.7-2.2-1.3-.3-1 1.3m58.7.4q.5 2.1 1.6 2.6c1.8.6 1.6-2.1-.3-3.6-1.4-1.1-1.5-1-1.3 1m10.9 0c0 2 1.5 3.3 2.9 2.4 1.2-.7.3-3-1.6-3.7q-1.4-.5-1.4 1.3m12 .5q0 2.3 1.5 2.4c2 0 2.8-1.8 1.4-3.4q-2.9-3-3 1m-102 .2c.4 2.4 2.8 2.7 2.8.4q-.1-1.9-1.6-2c-1.5-.1-1.4.6-1.2 1.6m35.3-1c-.8 1.7 0 3.6 1.5 4q1.8.4 1.1-1.7c-.6-2.2-2-3.3-2.6-2.2m32.7.2c-.9 1.4.2 2.9 2 2.9q1.5-.1 1.2-1.6c-.3-1.9-2.3-2.7-3.2-1.3m58-.3c.7.3 1.6.3 1.9 0q.3-.5-1.3-.5-1.8 0-.6.5m-122 1.5c-.7 1.9.3 3.8 1.6 3 .5-.2 1.7.2 2.5 1q1.7 1.3 2.4 1 .8-.2 2 1c1.7 1.9 3.3.7 2-1.5-.6-1-1.7-1.6-2.4-1.3s-1.6-.2-1.9-1q-.7-1.4-1.7-1c-.6.4-1.7 0-2.4-1-1.3-1.7-1.5-1.7-2-.2m10.4.7q.2 1.8 1.5 2 1.8.2.5-2c-.6-1-1.3-1.9-1.5-1.9s-.5.9-.5 2m10-.5q.5 1.7 1.8 2.1t1-1.2c-.2-1-1-2-1.7-2.2q-1.3-.3-1 1.3m71-.1c-1 2.2 1.2 4.3 2.5 2.4 1-1.4 1.1-1.2 1.4 1.2.2 1.8 3.6 2 3.6.3 0-.8-.8-1.8-1.7-2.1a13 12.3 0 0 1-3.5-2c-1.6-1.3-1.8-1.2-2.4.2m11.6.5c0 1.9 1.6 3.5 2.6 2.6.8-.8-.6-4.5-1.7-4.5-.5 0-1 .9-1 1.9m-67 .4c-.7 1.5 0 3.4 1.4 3.4.9 0 .7-3.4-.2-4.3q-.7-.5-1.2.9m21 .1q-1 3.2 2 3.3 1.5 0 1.2-2c-.4-2.6-2.4-3.4-3.2-1.3m11.3 0c0 1.6 2.7 3 3.7 2 .7-.6-1.6-3.4-2.8-3.4q-.8.1-.9 1.4m11 0c0 1.5 2.6 3 3.6 2.1q.3-.5-.2-2c-.8-1.9-3.4-2-3.4 0m-65 .8c-.3.7 0 1.8.8 2.4q2.1 1.7 2-1.8c0-1.8-2.1-2.3-2.8-.6m92.9-.5c0 2 1.2 3.9 2.5 3.9 2 0 1.8-3.5-.2-4.2s-2.4-.7-2.4.3m-123.8 1c-.9 1.3.2 2.9 2 2.9 1.6 0 1.7-.2.8-2.3-.6-1.7-2-2-2.8-.6m10.5.5q.5 1.7 1.8 2.2 1.3.4 1-1.3-.5-1.7-1.8-2.1t-1 1.2m46 0c-.7 1.7.3 3.3 2.1 3.3q1.4 0 .8-1.9c-.6-2.5-2.1-3.3-2.8-1.5m21.8.2c-.8 2 1.3 4 2.7 2.7 1.2-1.2.3-4.2-1.2-4.2q-.9.1-1.5 1.5m11.7.5q.4 2.1 1.4 2c1.5-.3 1.2-3.3-.4-3.8q-1.2-.4-1 1.8" style="stroke-width:.971742"/><path d="M131.3 184.5c0 2.4-2.5 3.4-4 1.6-1.8-2.1-3.2-1.7-2.8.7.1 1.2 1 2.2 1.8 2.3 3.2.3 3.4.4 2.3 1-2 1.3-2 4.5 0 4.8q2.2.7 1.4-1.5-.6-2 1-2c1.6 0 1.3-.7.8-2.5q-.7-2.5 1-2.3 1.5-.1 1.2-1.6c-.4-2.3-2.7-2.7-2.7-.5m-65.7.9a5 4.7 0 0 1-1.2 2.8 1.9 1.9 0 0 0 1.4 3.1c.5 0 .8-.9.5-1.9q-.6-1.9 1-1.9 1.3-.1 1-1.6c-.4-2.2-2.7-2.7-2.7-.5m11 .2c0 1-.6 2-1 2q-1 0-1 1.5c0 .8-.8 2-1.7 2.7-1.8 1.2-1 3.3 1.1 3.3q1.3 0 .8-1.9t1-1.9 1-1.9 1-1.9 1-1.9c-.3-1-.9-1.9-1.4-1.9q-.8.2-.9 2m82.6 0q.1 1.7 1.5 2.5 3.2 1 2-2.5c-.8-2.5-3.5-2.5-3.5 0m-124.4.8c0 1-.5 2-1.2 2.2q-1 .4-.4 2c.6 1.7 1.2 1.6 2.1 1.3q1.5-.6 1.5 1 0 1.4 2 1 1.8-.6 2 .2c0 .7 5.5 3.8 6.6 3.8q.4-.2.4-1.4c0-1.3-9.6-6.2-12-6.2q-.9-.1-1-1 .2-.9 1.5-1t1.5-1.2c0-.7-.7-1.6-1.5-1.9q-1.5-.6-1.5 1.2m10.1-.4c.2 1 1 2 1.7 2.2q1.3.4 1-1.3-.5-1.7-1.7-2.1-1.3-.4-1 1.2m68.7.5c.2 1.2 1 2.4 1.7 2.6q1.3.4 1-1.7c-.2-1.2-1-2.4-1.7-2.6q-1.3-.4-1 1.7m21.7-1.4c0 1.5 2.2 4.2 3 3.7 1.9-1 1-4.2-1-4.2-1 0-2 .2-2 .5m12.2 1.1c.4 2.5 3.8 2.8 3.8.3q0-2-2.1-2t-1.7 1.7m-98.2.2q-.4.9 0 2.4.7 1.5-1 1.5t-1.3 1.6 1.8 1.7q1.3-.1 1.1-1.7 0-1.5.8-1.6c1.3 0 1.4-3.5.1-4.3a1 1 0 0 0-1.5.4m10.4 1q.1 1.8 1.5 2c1.7 0 1.7-.3.9-2.4-.9-2.1-2.4-1.9-2.4.4m10-.4q.5 1.6 1.8 2.1t1-1.2q-.5-1.7-1.7-2.2-1.3-.3-1 1.3m11 .1q.3 1.5 1.5 2 1.1.2.6-1.6c-.6-2.3-2.6-2.7-2.1-.4" style="stroke-width:.971742"/><path d="M38.8 188q.5 1.7 1.8 2.2 1.3.4 1-1.3-.5-1.7-1.8-2.1t-1 1.2m56.8-.4c-3 1.1-2.4 1.9 4.7 5.1l6 2.8v7.2c-.2 6.4-.3 6.7-.9 2.7-.8-5.4-1.3-6.1-3.1-4q-1.4 1.7-.2 1c1.8-1 1.6 3.7-.3 9.2-2 5.6-3 6-8.3 3.4-3.5-1.7-4-2.2-3.5-4 2.6-7.5 2.4-12-.2-12q-1.3 0-.7 1 .6 1.1-.5.4c-2-1.2-1.3-3.3 1-2.7q2.4.8 1.3-.7a6 6 0 0 1-.7-3.8q.3-2.2-.5-1.3c-1.4 1.8-4.2 2.3-4.2.8q-.2-1.2-1.6-1.4-1.6 0-1.2 2.2.3 2 2 1.8t1.8.7a1 1 0 0 1-1 1q-1 .2-1 2-.1 1.6-1 1.8c-1.9 0-1 4 1 4.5 1.8.5 1.8.5-.2 3.8-2 3.6-1.8 6 .6 6q1.5 0 1.6.9-.2 1.2-1.5 1t-1.5-1q-.2-1.2-1.5-1c-2.8 0-1.6 2.8 1.9 4.4 2.7 1.2 3.8 1.3 5.6.4 1.9-1 2-.9 1.5.7-.4 1.3.2 2 2.9 3.2 2 .8 3.2 1 2.8.6q-.4-.8.8-.5 1.3.6 1.2 1.4 0 .9 1.2 1c2 0 1.9-.6-.6-2.7-1.2-1-2.6-1.5-3-1.2q-.8.3-.7-.7.1-1.2-1.9-2.2c-2.3-1-3.1-3.4-1.3-3.4q1 0 1 1 .1.8.8.6c.4 0 2.7.7 5.1 1.7 3.3 1.4 4.6 1.6 4.8.7.8-2.1 2.3-.1 2.3 3 0 2.8.2 3 3.2 2.9 4-.2 4.5-1.5 1.9-5.4-3.5-5.5-3.3-11.3.7-13.6 2.7-1.5 2.8-1.8 2-5.4-.5-2-.7-4-.5-4.2 1.2-1.2-1.6-4-4.3-4.5-1.7-.4-3-1-3-1.4q-.2-.7-2.3-1.5l-3-1-2.2-.3q-1.5-.2-1-1c.7-1.1.7-1.1-2.3 0m-7.1 14.6q-.2.3-1.5.8t-1.5-.3q0-1.1 1.5-1 1.3.1 1.5.5M89 209q-.5.4-.6-.7 0-1.4.6-.6a1 1 0 0 1 0 1.2m-1.1 3.2q-.7.9-1.6 1-1.2-.1-1-1 .4-1.2 1.6-1 1.4.1 1 1m2.4 5.7a1 1 0 0 1-.9 1q-.9-.1-1.5-1t1-1q1.2.1 1.4 1m2.7 4.4q-.6.4-.7-.6.1-1.3.7-.6.6.6 0 1.2m24.6-34.3c-.8 1.9.5 3.5 2.5 3.1a4 4 0 0 1 2.8 1.1c.9 1.2 1.4 1.3 2.4.3 1.5-1.4-.7-4.4-2.7-3.6q-1.2.3-1.8-1c-.7-1.7-2.5-1.7-3.2 0m22.7.7c.1 1.3 1 2.2 1.8 2.2 2.2 0 1.9-3.6-.3-4q-2-.6-1.5 1.8m12-.4q.5 1.7 2.2 2 2.3.6 3.2 2 1.3 1.5 2.2.5c1.7-1.6.2-4.5-2-3.9q-1.7.3-2.3-.9c-.8-2-3.7-1.6-3.3.3" style="stroke-width:.971742"/><path d="M84.7 189.1c.5 2.4 2.8 2.7 2.8.4q-.1-1.8-1.6-2c-1.5-.2-1.4.7-1.2 1.6M42.8 190c.2 1 1 2 1.7 2.2q1.3.4 1-1.3-.5-1.7-1.7-2.1-1.3-.4-1 1.2m9.8-.6q.2.8 1.4 2c1.6 1.2 3.2-.2 2.1-1.9-.8-1.1-3.5-1.2-3.5 0m81.2 0c-.9 1.2.4 3.8 2 3.8q1.3 0 1.4-1.3c0-1.8-2.6-3.8-3.3-2.6m11.3 1c0 1-.5 2.1-1 2.4-1.5 1-1.2 4.3.5 4.3q1.3-.1 1.5-1.9t1.6-1.9q1.6 0 1-1.5l-.6-2.3q-.1-.9-1.5-1c-.8 0-1.5 1-1.5 2m-77.1 0c-.7 1.1.2 2.8 1.5 2.8 1.2 0 1.2-2.6 0-3.3a1 1 0 0 0-1.5.5m10.4.9c0 1.9 1.3 3.2 2.3 2.3.8-.8-.4-4.2-1.4-4.2-.5 0-.9.9-.9 1.9m-20.8.5q.4 1.4 1.4 1.5c1.5 0 1.2-2.2-.4-2.7q-1.2-.4-1 1.2m80.5.4c0 2.1 1.6 3.3 3 2.4q1-.6 0-2.4c-1.4-2.3-3-2.3-3 0m12 0c0 2.1 1.5 3.3 3 2.4q1-.6 0-2.4c-1.4-2.3-3-2.3-3 0m-88.5 1.1q.4 2.1 1.4 2c1.5-.3 1.2-3.3-.4-3.8q-1.2-.4-1 1.8m-31 .9q0 1.9 1.8 1.9a5 5 0 0 1 3 1.1c1.5 1.4 2.7.4 1.8-1.6-.3-1-1.3-1.4-2-1.1a1.6 1.6 0 0 1-2-.8c-.8-2-2.6-1.7-2.6.5m21-.5q.5 1.3 1.5 1.5c1.4 0 1.2-2.2-.4-2.7q-1.2-.4-1 1.2m79.9 0c-.8 1.7.2 3.3 2 3.3q1.3 0 .8-1.9c-.7-2.5-2.1-3.3-2.8-1.5m23.6.6c.4 2.6 2.4 3.5 3.2 1.4q.5-1.4-1.5-2.4c-1.8-1-2-.8-1.7 1M66.1 194c-.3.5-.3 1.6 0 2.4q.7 1.6-1 1.6t-1.3 1.6c.5 2.4 2.8 2.7 2.8.3 0-1 .4-2 1-2 1.2 0 1.3-3.4 0-4.2a1 1 0 0 0-1.5.3m10.4 1q0 1.8-1 2c-1 .2-1 .9-.8 2q.4 1.6 1.3 1.6.9-.4.7-2-.2-1.5 1.1-1.6c1.8 0 1.6-3-.2-3.6q-1-.1-1 1.7m20.6-1.2q-.4 1 1.7 2 2.5 1 3.1 0t-.5-.4-1.1-.4-1-.5q-.7.4-1.2-.6-.5-1.2-1-.1m-41.4 1.7q.4 1.4 1.3 1.5c1.5 0 1.2-2.2-.4-2.7q-1.2-.4-1 1.2m37.8 0q0 1.8.6.7c.3-.7.3-1.6 0-1.9q-.6-.3-.6 1.3m42.7.6c0 3 1.8 4.4 2.7 2.1.3-.9-.1-2.2-1-3-1.5-1.5-1.7-1.4-1.7.9m11.7-.9c-.6 1.7.3 3.5 1.9 3.5 1.8 0 1.8-3.4 0-4q-1.3-.3-1.9.5m11.6 0c-.7 1.9.3 3.5 2.1 3.5 2.3 0 2.6-1.6.5-3.3-1.7-1.5-2-1.6-2.6-.2m-99.5 1q-.5 1.6.5 2.8 1 1 1.7-.7c.3-.8.2-2-.5-2.7q-1-1.1-1.7.6m10-.4q-.5 1.2.8 2.6c2 2 3 .2 1.3-2q-1.3-2-2-.6m10.4.8c0 1 .7 2.2 1.6 2.5q1.6.7 1.2-1.5c-.4-2.6-2.8-3.4-2.8-1m-41.7.7q.5 1.7 1.8 2.2 1.3.3 1-1.3-.5-1.7-1.8-2.1t-1 1.2m10.2 0c0 1.3 1 1.9 2 1.2.2-.2 1.4.5 2.6 1.5 1 1 2.3 1.6 2.7 1.2 1-.8-1-4-2.5-4a3 3 0 0 1-1.8-.6c-1.2-1.2-3-.8-3 .7m54-.7q-.4.8 1 .9 1 0 .8-.9-.5-.6-.9-.7l-1 .7m37.3 2q.1 1.7 1.5 2.4c2 .7 3.2-2.2 1.4-3.3-2.2-1.3-2.9-1-2.9.9m12.2-.2c0 1 1 1.9 2 2q2 .5 1.5-1.4c0-1-1-1.9-2-2q-2-.4-1.5 1.4M32.7 200c0 1 .7 1.9 1.5 1.9 1.7 0 1.8-.2 1-2.3-1-2.2-2.5-2-2.5.4m10.1-.5c.2 1 1 2 1.7 2.2q1.3.4 1-1.3-.5-1.6-1.7-2.1-1.3-.4-1 1.2m49.7 0q0 1.8.6.7t0-1.9q-.6-.3-.6 1.3m-14 1a5 4.7 0 0 1-1.1 3c-1.4 1.2-.5 4 1.2 4q1-.1.5-2.4-.8-2.6.9-1.8 1.7.7 1.2-1.6c-.4-2.7-2.7-3.7-2.7-1.1m20-.2q0 1.7.6.6.4-1.2 0-1.8-.6-.5-.6 1.2m46.9.5c.1 1.3 1 2.3 1.8 2.3 2.2 0 1.8-3.7-.3-4q-2-.7-1.5 1.7m11.7-.2c0 2.3 1.8 3.5 3.2 2.3 1.2-1.2 0-4-1.8-4q-1.3.1-1.4 1.7m-120.3.6c.2 1 1 2 1.8 2.2q1.3.3 1-1.3-.5-1.7-1.8-2.1t-1 1.2m10.4-.6c-.9 1.4.2 3 2 3s1.8-1.4 0-2.8q-1.5-1.2-2-.2m10.5.6c.2 1 1 2 1.8 2.2q1.3.3 1-1.3-.5-1.7-1.8-2.1t-1 1.2m10.3-.6q.4 1-1 2c-1.7 1.4-1.9 3.4-.3 4.4 1.7 1 3-1.7 1.5-3.4q-1.5-1.5.6-.7 1.8.7 1.7-1.2 0-1.8-1.5-2-1.3 0-1 .9m-6.4 2c0 1.8 1.6 3.5 2.6 2.5.8-.7-.6-4.4-1.7-4.4q-.9.2-1 1.8m10.7-1.2c-.8.8 1.1 4.2 2.4 4.2.4 0 1-.6 1-1.4 0-1.6-2.5-3.6-3.4-2.8m78 1.2c0 2.3 1.8 3.5 3 2.3 1.3-1.2 0-4-1.6-4q-1.3.1-1.4 1.7m-119.5 1.2q-.1 2.2 2 1.5 1.8-.4 2 .3c0 1 6 3.9 7 3.3q.7-.4 1.3 1c.9 2 2.7 1.7 2.7-.5q0-2-2-2c-1 0-2.2-.4-2.5-1q-.7-.8-2.1-.5-1.3.4-1.4-.3c0-.7-5.4-3.8-6.6-3.8q-.3.1-.4 2m10 0q-.1 2.2 2 1.5 1.8-.5 2.4 1 .7 1.2 2.6.9 2-.6 2 1 0 1.4 2.3 1 2.6-.7 2 .8-.5 1.1 1 1.2 1.5-.1 1.6-1.4c0-1.5-6.6-4.6-8-3.7q-1 .3-1-1c0-1.3-.8-1.4-1.9-1.4s-2.2-.5-2.5-1c-1.1-1.6-2.5-1-2.5 1m11-.1q0 1.8 1.5 2c1.5.2 1.4-.7 1.2-1.6-.4-2.4-2.8-2.7-2.8-.4m65.1.2q-.6 1.1.5.4 1-.7 1.1-1c0-.9-.9-.5-1.6.6m38.4 1.3q0 2.5 2 2.4 2.8-.2.7-3.6c-1.3-2-2.7-1.3-2.7 1.2m-99.4 0q.5 1.7 1.8 2.2 1.3.3 1-1.3-.5-1.6-1.8-2.2-1.3-.3-1 1.3m104.2.1c-.9 1.8-.2 3.6 1.5 4q2 .5 1.5-1.8c-.3-2.2-2.3-3.6-3-2.2M59.7 207q.5 1.6 1.8 2.2 1.3.3 1-1.3-.5-1.6-1.8-2.2-1.3-.3-1 1.3m10 .1c.2 1 1.2 2 2.2 2q1.9.6 1.4-1.3c-.1-1-1-2-2-2q-2-.6-1.6 1.3m11 0c.5 2.4 2.8 2.7 2.8.4q-.1-1.8-1.6-2c-1.5-.2-1.4.7-1.2 1.6m-6 1.3c.2 1.2.9 2.4 1.6 2.6 1.8.6 1.5-2.2-.4-3.6-1.4-1.2-1.5-1-1.2 1M32.9 209a2 2 0 0 0 2 1.5q1.6 0 1.8 1.2.2 1.3 1.5 1.3c2.6 0 1.6-2.6-1.6-4.1-4-2-4-2-3.7 0m31.2-.6c-.7 1.1.2 2.8 1.5 2.8q1-.1 1-1.9c0-2-1.5-2.5-2.5-.9m14.8 1.3c-.7 1.6.2 3.4 1.7 3.4 1.2 0 1.2-3.5-.1-4.3q-1-.4-1.6 1m41 .1c-1.6 4-.6 13.7 2 18.6 2.5 4.8 3 5.3 11.6 9l8.8 4 3-2c3-2.2 4.3-11.1 1.8-12.6-.6-.4-.8-2-.5-3.7l.6-3-12.8-6c-14.2-6.5-13.6-6.4-14.5-4.3m14.6 7.5c-.3 1.3-1.1 2.4-2 2.4-2 0-2.8-2.9-1.1-3.9q3.7-2.2 3.1 1.5m5.2 8.5c-1 .7-2 2.1-2 3s-.7 1.9-1.7 2q-1.8.5-1.8-1.5c0-3.6 1.2-4.9 4.3-4.9s3 0 1.2 1.4m-92.6-15 .6 1.9q.2.3 1.5.3 1.6 0 1-1.5a9 8.5 0 0 1-.6-1.9q-.1-.3-1.6-.4-1.5 0-1 1.6m10.7-.1q.5 1.7 1.8 2.1t1-1.2c-.2-1-1-2-1.8-2.2q-1.3-.3-1 1.3m10.5 0a1.5 1.5 0 0 0 .9 2q3 1 1.8-1.9c-.8-2-2-2-2.7-.1m-27.5 1.8c0 1.1 13 8.1 15.2 8.1q.7-.1.7-1.4c0-1.4-6-4.2-6.8-3.3q-.4.3-1.3-1.2a3.7 3.5 0 0 0-2.8-1.7c-1 0-2.2-.4-2.5-1-1-1.3-2.5-1-2.5.5m11 .7q-.2 2.2 1.9 1.5 1.6-.4 2.4.8c.7 1.7 2.6 1.7 2.6 0 0-.8-1.4-2-3.1-2.8-4-2-3.9-2-3.9.5m10.1-.6q.5 1.6 1.7 2.2 1.3.3 1-1.3-.5-1.7-1.7-2.2-1.3-.3-1 1.3m10.8.6q-.1 2.2 2 1.5 1.6-.4 2.4.8c.7 1.7 2.6 1.7 2.6 0 0-.7-1.4-2-3.1-2.8-4-2-3.9-2-3.9.5m37.9-.2q0 .9 1.2 1 1.5 0 0 .8c-1 .6-1 1.1.3 2.5q1.9 2.8.8.1-1-2 .8-1.3 1.7.7 1.6-1.7c0-1.8-.6-2.3-2.4-2.3-1.3 0-2.4.4-2.4 1m-44.7 1.3c0 1.5 6.6 5 7.6 4s-.7-3.7-2-3.2a1.6 1.6 0 0 1-2-.8c-.8-1.8-3.6-1.7-3.6 0m-5.8 2.1c.1 1 .9 1.8 1.5 2 1.9.5 1.5-2.3-.3-3q-1.6-.6-1.2 1m4 1.8c.1 1 1 1.9 1.6 2.1q1.3.4 1-1.2c-.2-1-1-2-1.7-2.2q-1.3-.3-1 1.3m11 .6q.4 2 1.3 2c1.5-.4 1.2-3.4-.4-3.9q-1.2-.4-1 1.9m-17 1.7q0 2 2 2 1.8 0 2 .9.3 1.2 1.6 1 1.5-.1 1.2-1.7-.5-1.6-1.8-1.7-1.8-.1-2.3-1.2c-1.2-1.8-2.7-1.4-2.7.7m10.4-.4.6 2q.2.2 2 .3c1 0 2 .5 2 1.1s.8.8 2 .6q1.9-.4 2 .8t1.4 1.3q1.3-.1 1.5-1.3c0-1.6-5.5-4.5-7.4-3.8q-1.2.3-1.9-1t-1.7-1.5q-1 .2-.5 1.5m10.5.4q.1 1.8 1.6 2c1.5.1 1.4-.7 1.2-1.6-.5-2.5-2.8-2.8-2.8-.4m4.2 2.2q.4 2 2 2.1c.9 0 2.2.5 2.9 1.2q3.1 2.7 2.6-1-.4-2-2.1-2.1c-1.1 0-2.2-.5-2.4-1.2-.8-2.1-3.3-1.3-3 1m-16.9 1.3c-.6 1.5 1.6 3.4 3 2.6q.7-.3.7.5c0 .8 1 1 2 1 3.2 0 2.4-2.3-1.5-4-3.2-1.3-3.6-1.4-4.2 0m14.7 2.1q0 2 2 2c1 0 2.3.7 2.8 1.6q1 1.9 2.2.5c1.4-1.2-.5-4.5-2-3.6-.4.2-1.4-.2-2-1-1.7-2-3-1.8-3 .5m37.5 10.1a5 5 0 0 0 2.6 0q.8-.4-1.3-.5-2.2.1-1.3.5m.3 3q.1 1 1.3 1.4 1.3.4 1.4-.8c0-1.2-.6-1.3-1.4-1.3s-1.3.3-1.3.8m11.4 2.4c1.6 1.4 3.5 2.4 4.2 2.4q3.6.1-3-2.9l-4-2zm194-92.3q-.6 1.1.5.4c1.1-.7 1.5-1.5.7-1.5q-.4.1-1.2 1.1m-3 4.7q-.6 1.1.5.5 1-.7 1.1-1c0-1-.8-.5-1.6.5m-2.3 3.7c-.6 1-.9 2-.6 2s1-1 1.6-2q.9-1.7.6-1.9-.6.1-1.6 2m-2.6 4c-3.5 5.5-3.7 6-2 4 2-2.3 3.8-5.3 3.2-5.3q-.5.1-1.2 1.3m-28.9 4.6q-.6 1.1.5.4 1-.7 1.1-1c0-.9-.9-.5-1.6.6m22 44.4q-.5.9.4 1 1.3 0 1.1-1c-.2-1-.2-1-.5-1q-.4.1-1 1m-10.4 5.7q0 1.1.6.7.6-.7 0-1.3-.5-.4-.6.6m-139.8 18q-.6 1 .4 1c1 0 .8.5.4 1.2q-.8 1.5.7 0 1.4-1.2.2-2.2-1-1.2-1.8 0M354 126.4c-1.4.8-2.7 1.5-2.7 1.8 0 .8 4-.8 5-2 1.5-1.6 1.2-1.6-2.3.2m-13.6 20.3q0 1.1.6.7.6-.7 0-1.3-.5-.5-.6.6m2 0q0 1.1.6.7.6-.7 0-1.3-.5-.5-.6.6m15.7 1.6q1.2.5 2 0c.7-.6-.4-.6-1.4-.6q-1.8.2-.6.6" style="stroke-width:.971742"/></svg>