<?xml version="1.0" standalone="no"?>
<!DOCTYPE svg PUBLIC "-//W3C//DTD SVG 20010904//EN"
 "http://www.w3.org/TR/2001/REC-SVG-20010904/DTD/svg10.dtd">
<svg version="1.0" xmlns="http://www.w3.org/2000/svg"
 width="200.000000pt" height="200.000000pt" viewBox="0 0 200.000000 200.000000"
 preserveAspectRatio="xMidYMid meet">
<g transform="translate(0.000000,200.000000) scale(0.100000,-0.100000)"
fill="#000000" stroke="none">
<path d="M655 1390 c-44 -14 -101 -65 -133 -118 -24 -42 -27 -57 -27 -137 0
-76 4 -99 26 -145 34 -73 118 -162 248 -264 121 -95 191 -166 211 -215 l13
-33 20 38 c27 54 75 103 203 205 131 104 214 191 252 262 24 46 27 63 27 147
0 111 -18 155 -85 213 -106 90 -265 68 -374 -54 l-41 -46 -44 49 c-57 64 -128
100 -206 104 -33 2 -73 -1 -90 -6z m214 -81 c25 -11 64 -35 87 -54 l41 -34 24
25 c12 13 50 38 83 54 100 51 212 39 268 -28 57 -68 62 -169 13 -269 -22 -44
-52 -75 -159 -167 -72 -62 -154 -138 -180 -167 l-49 -54 -86 85 c-47 47 -129
122 -181 166 -71 60 -101 93 -123 135 -66 129 -36 268 68 315 46 20 142 17
194 -7z"/>
</g>
</svg>
