<?xml version="1.0" standalone="no"?>
<!DOCTYPE svg PUBLIC "-//W3C//DTD SVG 20010904//EN"
 "http://www.w3.org/TR/2001/REC-SVG-20010904/DTD/svg10.dtd">
<svg version="1.0" xmlns="http://www.w3.org/2000/svg"
 width="209.000000pt" height="231.000000pt" viewBox="0 0 209.000000 231.000000"
 preserveAspectRatio="xMidYMid meet">
<g transform="translate(0.000000,231.000000) scale(0.100000,-0.100000)"
fill="#000000" stroke="none">
<path d="M745 2200 c-33 -3 -76 -13 -95 -22 -19 -9 -53 -22 -75 -30 -53 -18
-152 -117 -198 -197 -40 -72 -39 -96 2 -58 93 87 317 137 398 87 68 -41 86
-137 49 -260 -15 -49 -15 -55 -1 -63 23 -12 15 -36 -128 -377 -105 -249 -305
-653 -407 -821 -106 -177 -98 -208 78 -290 184 -86 193 -80 297 199 165 445
486 1122 531 1122 6 0 17 7 24 15 22 27 115 74 169 86 94 20 221 -34 221 -95
0 -55 141 -130 186 -98 11 7 48 83 69 142 7 19 32 75 55 124 22 49 40 98 38
110 -6 45 -162 100 -184 65 -8 -14 14 -29 42 -29 12 0 24 -7 28 -15 4 -11 -1
-15 -17 -15 -18 0 -19 2 -7 11 10 7 11 9 2 7 -24 -6 -16 -23 13 -28 30 -5 36
-17 13 -31 -10 -7 -9 -9 3 -9 9 0 22 -7 29 -15 16 -20 15 -19 -66 10 -80 29
-74 28 -74 15 0 -5 6 -9 13 -7 6 1 12 -6 12 -16 0 -10 7 -22 14 -27 8 -4 16
-19 18 -32 1 -13 5 -33 8 -45 8 -33 -8 -35 -69 -8 -66 29 -65 22 -20 120 29
63 39 76 55 72 10 -3 19 -1 19 4 0 4 -37 8 -83 7 -97 -1 -129 11 -200 77 -26
25 -58 47 -72 51 -14 3 -25 9 -25 13 0 3 -23 17 -50 30 -51 26 -59 35 -37 45
6 3 0 3 -14 0 -16 -3 -40 2 -63 15 -128 72 -335 132 -463 133 -51 1 -90 5 -87
10 14 22 281 1 322 -25 6 -5 17 -5 22 -2 6 3 15 3 21 -1 7 -4 30 -8 53 -10 25
-1 -3 9 -69 26 -120 30 -208 39 -300 30z m147 -192 c-6 -6 -8 -18 -5 -27 5
-12 3 -13 -7 -5 -14 14 -4 58 12 48 6 -4 6 -10 0 -16z m48 -24 c0 -8 -5 -12
-10 -9 -6 4 -8 11 -5 16 9 14 15 11 15 -7z m171 -60 c134 -51 146 -54 224 -70
111 -22 115 -22 126 -5 17 26 0 -26 -28 -91 -19 -44 -31 -58 -46 -58 -28 0
-107 -39 -107 -53 0 -5 -3 -8 -6 -5 -6 7 -52 -34 -47 -43 1 -4 -4 -12 -12 -19
-18 -15 -112 20 -272 100 -94 47 -115 62 -57 39 27 -9 27 -9 12 8 -14 16 -14
20 -1 32 13 12 16 12 24 0 6 -9 9 1 10 31 1 40 2 42 8 15 10 -40 26 70 18 114
-3 16 -4 30 -2 33 14 14 75 3 156 -28z m-191 17 c0 -6 -4 -13 -10 -16 -5 -3
-10 1 -10 9 0 9 5 16 10 16 6 0 10 -4 10 -9z m27 -53 c-3 -7 -5 -2 -5 12 0 14
2 19 5 13 2 -7 2 -19 0 -25z m-20 5 c-4 -3 -7 0 -7 7 0 7 3 10 7 7 3 -4 3 -10
0 -14z m23 -38 c0 -3 -2 -5 -5 -5 -3 0 -5 2 -5 5 0 3 2 5 5 5 3 0 5 -2 5 -5z
m-60 -50 c0 -3 -2 -5 -5 -5 -3 0 -5 2 -5 5 0 3 2 5 5 5 3 0 5 -2 5 -5z m210
-250 c0 -3 -2 -5 -5 -5 -3 0 -5 2 -5 5 0 3 2 5 5 5 3 0 5 -2 5 -5z m-110 -60
c0 -8 -4 -15 -10 -15 -5 0 -10 7 -10 15 0 8 5 15 10 15 6 0 10 -7 10 -15z
m-183 -142 c-4 -3 -7 0 -7 7 0 7 3 10 7 7 3 -4 3 -10 0 -14z m-1 -60 c-10 -26
-18 -8 -9 23 5 21 8 24 11 11 2 -10 1 -25 -2 -34z m-20 -79 c-4 -14 -9 -24
-12 -21 -3 2 -2 17 2 31 3 15 9 25 11 22 3 -3 2 -17 -1 -32z m-37 -116 c-36
-89 -114 -248 -120 -248 -4 0 -9 7 -13 15 -3 8 0 15 7 15 7 0 18 15 26 33 7
17 29 63 47 100 19 38 34 73 34 78 0 5 7 26 16 47 25 57 28 20 3 -40z m-69
-93 c0 -3 -2 -5 -5 -5 -3 0 -5 2 -5 5 0 3 2 5 5 5 3 0 5 -2 5 -5z m-60 -173
c0 -18 -80 -132 -92 -132 -8 0 -7 4 3 10 9 5 22 24 30 42 19 49 59 102 59 80z
m-110 -171 c0 -5 -6 -14 -14 -20 -12 -10 -13 -8 -9 8 5 21 23 30 23 12z m110
-36 c0 -3 -2 -5 -5 -5 -3 0 -5 2 -5 5 0 3 2 5 5 5 3 0 5 -2 5 -5z m-140 -10
c0 -3 -2 -5 -5 -5 -3 0 -5 2 -5 5 0 3 2 5 5 5 3 0 5 -2 5 -5z m-20 -19 c0 -3
-5 -8 -12 -12 -7 -4 -8 -3 -4 4 7 12 16 16 16 8z m103 -113 c-11 -28 -33 -48
-33 -30 0 9 -6 18 -12 21 -7 3 -3 3 8 1 14 -4 24 0 28 10 3 8 8 15 10 15 3 0
2 -8 -1 -17z m-63 -18 c0 -3 -2 -5 -5 -5 -3 0 -5 2 -5 5 0 3 2 5 5 5 3 0 5 -2
5 -5z m10 -43 c0 -17 -72 -62 -98 -62 -12 0 53 49 66 50 6 0 12 5 12 10 0 6 5
10 10 10 6 0 10 -4 10 -8z"/>
<path d="M1360 1835 c0 -3 2 -5 5 -5 3 0 5 2 5 5 0 3 -2 5 -5 5 -3 0 -5 -2 -5
-5z"/>
<path d="M1390 1825 c0 -3 2 -5 5 -5 3 0 5 2 5 5 0 3 -2 5 -5 5 -3 0 -5 -2 -5
-5z"/>
<path d="M920 1735 c0 -3 2 -5 5 -5 3 0 5 2 5 5 0 3 -2 5 -5 5 -3 0 -5 -2 -5
-5z"/>
<path d="M1230 1665 c0 -3 2 -5 5 -5 3 0 5 2 5 5 0 3 -2 5 -5 5 -3 0 -5 -2 -5
-5z"/>
<path d="M1230 1635 c0 -3 2 -5 5 -5 3 0 5 2 5 5 0 3 -2 5 -5 5 -3 0 -5 -2 -5
-5z"/>
<path d="M1090 2130 c0 -5 7 -10 16 -10 8 0 12 5 9 10 -3 6 -10 10 -16 10 -5
0 -9 -4 -9 -10z"/>
<path d="M1155 2130 c-5 -9 33 -26 49 -22 5 2 6 -5 2 -14 -4 -11 -2 -15 8 -11
28 11 86 -12 79 -31 -4 -13 -3 -14 6 -6 9 8 24 5 58 -13 57 -29 61 -32 43 -43
-10 -6 -7 -10 16 -16 16 -4 32 -12 36 -18 4 -6 8 6 8 26 0 29 -4 38 -22 44
-13 3 -57 21 -98 39 -129 56 -179 74 -185 65z m285 -125 c0 -3 -2 -5 -5 -5 -3
0 -5 2 -5 5 0 3 2 5 5 5 3 0 5 -2 5 -5z m-13 -22 c-4 -3 -10 -3 -14 0 -3 4 0
7 7 7 7 0 10 -3 7 -7z"/>
<path d="M1760 1785 c0 -3 2 -5 5 -5 3 0 5 2 5 5 0 3 -2 5 -5 5 -3 0 -5 -2 -5
-5z"/>
</g>
</svg>
