<svg xmlns="http://www.w3.org/2000/svg" width="800" height="1422.67" viewBox="0 0 600 1067"><path d="M329.3 110.8c-2.9 1.4-5.3 3.2-5.3 4 0 .7-.3 1.1-.7.9-1.6-1-7.7 2.9-9.3 6-1 1.8-2 2.9-2.4 2.5s-.5.5-.1 2c.5 1.9 0 3.5-1.7 6-1.2 1.8-2.4 3.5-2.5 3.7-.6 1-3.4-3.2-2.9-4.4.3-.8.1-1.5-.4-1.5-1.8 0-15 14.3-15 16.2 0 .5-.5.6-1.2.2-.8-.5-.9-.2-.5.9.3 1 .2 1.7-.3 1.7-.6 0-1-.8-1-1.7 0-1.1-2.8 1.2-7.7 6.3-11.8 12.2-14.7 15.5-17.8 20.2-1.5 2.3-3.1 4.2-3.5 4.2-1.4 0-4.2 6.6-3.9 9 .5 3.3 5.3 5.8 11.9 6.4 6.5.5 8.8 1.3 11.5 3.7 1.1.9 3.5 2 5.3 2.2 3.2.5 3.2.5 3.2-3.8 0-5.8 3.1-15.4 6.9-21.3 3.5-5.5 17.5-19.5 21.7-21.7 3.3-1.7 4.4-1.8 6.3-.6 1 .7 1.1 1.3.1 3.1-.9 1.8-.9 2.4 0 3s.8 1.4-.4 3.3c-1.3 2-1.4 2.6-.4 3 1 .3 1 .9.2 2.3-.6 1.1-.9 3-.7 4.3s-.4 3.3-1.4 4.3c-1.3 1.5-1.4 2.1-.4 2.7s.9 1.2-.4 2.5c-.9.9-1.5 2.2-1.2 2.9.3.8-.3 1.8-1.3 2.4-.9.7-2 2.1-2.3 3.2-.3 1.2-.1 1.9.4 1.5.5-.3.9 0 .9.6s-.7 1.3-1.5 1.6c-2 .8-1.9 2.2.2 2.6 1.3.2.9.8-1.7 2.5-2.9 1.8-3.2 2.3-1.7 2.9 1 .3 2.9 2.7 4.4 5.1 2.4 4.2 2.8 4.5 6 4 3.5-.6 4.2.3 1.8 2.3-1.6 1.3-2.1 3.5-.6 2.5.9-.5 5.3 1.1 10.3 3.6 1 .5 2.5.9 3.3.9s1.5.4 1.5.8c0 1.2 4.6 3.2 7.1 3.2 1.8 0 24.2 21.3 31.7 30.3 1.7 2 3.9 3.8 4.9 4 1 .1 2.4.7 3.2 1.1 1.2.8 1.3-.5.7-7.7-.4-4.7-1.1-10-1.6-11.9-.6-1.8-1-5.2-1-7.5s-.5-5.4-1.1-7c-.6-1.5-1.2-4.2-1.4-5.8-.4-5.7-1.7-13-3.6-20.5-1.1-4.2-2.1-9.5-2.4-11.9-.6-6.5-1.6-10.1-2.6-10.1-.6 0-.8-.4-.5-.9s-.1-2.1-.9-3.7c-.7-1.5-1.1-3.2-.8-3.7.3-.6.1-.7-.5-.3-.7.4-1.3-1.1-1.7-4.1-.4-2.7-1.3-5.7-1.9-6.8-.7-1.1-1.8-4-2.5-6.5-2.4-7.9-10.9-26-12.3-26-.4 0-.8-.8-.8-1.8 0-1.1-1-3-2.1-4.3-1.2-1.3-2.8-3.4-3.6-4.6-.8-1.3-2.1-1.9-2.9-1.6-1 .4-1.7-.2-2.1-1.6-.7-2.6-.6-2.6-7 .7M303.5 135c.3.5.4 1 .1 1s-.8-.5-1.1-1c-.3-.6-.4-1-.1-1s.8.4 1.1 1m-17.8 17.7c-.4.3-.7 0-.7-.7s.3-1 .7-.7c.3.4.3 1 0 1.4m29 36c-.4.3-1 .3-1.4 0-.3-.4 0-.7.7-.7s1 .3.7.7M221 180c0 .5.5 1 1.1 1 .5 0 .7-.5.4-1-.3-.6-.8-1-1.1-1-.2 0-.4.4-.4 1m-20.6 6.9c-1.1 1.2-.2 1.8 2.1 1.3 3.4-.6 4.2-2.2 1-2-1.4.1-2.8.4-3.1.7m25.6 1.4c0 1.1-.6 1.7-1.7 1.5-1.2-.2-1.9.4-2.1 1.9-.2 1.3.1 2.3.7 2.3s1.1-.5 1.1-1c0-.6.8-1 1.7-.8 2 .4 3-2.9 1.4-4.5-.8-.8-1.1-.6-1.1.6m157.4 4.2c2.6 1.9 4.2 1.9 2.6 0-.7-.8-2-1.5-2.9-1.5-1.3.1-1.3.3.3 1.5m-198.1.2c.4.3 1 .3 1.4 0 .3-.4 0-.7-.7-.7s-1 .3-.7.7m32.7 2.4c0 1.1.5 1.7 1 1.4.6-.3 1-1.3 1-2.1s-.4-1.4-1-1.4c-.5 0-1 .9-1 2.1m12 .3c0 1.4.2 2.6.4 2.6s1.1.3 2 .6c1 .4 1.6.1 1.6-.9 0-.9.9-1.9 2-2.2s2-1.1 2-1.6c0-1.4-3.8-1.1-4.3.3-.3 1-.7 1-2-.1-1.5-1.2-1.7-1.1-1.7 1.3m-37.4.1c.4.8.8 1.5 1 1.5s.4-.7.4-1.5-.4-1.5-1-1.5c-.5 0-.7.7-.4 1.5m22.5.1c0 1.1.3 1.4.6.6.3-.7.2-1.6-.1-1.9-.3-.4-.6.2-.5 1.3m163 1.1c-.1 2.3.4 3.3 1.4 3.3.8 0 1.5.4 1.5 1 0 .5-.5 1-1.1 1-.7 0-.9 1-.5 2.7.8 3.3 1.2 6.4 1.4 11.4l.2 3.7 8.7 1.6c8.6 1.6 8.8 1.6 11.3-.4 1.4-1.1 3.5-2.5 4.8-3.2 1.2-.6 2.2-1.8 2.2-2.6 0-2.2-4.8-8.2-6.6-8.2-.8 0-1.4-.9-1.4-2.1 0-1.5-.5-1.9-1.5-1.5-.8.3-1.5.1-1.5-.4 0-.6-.8-1-1.7-1.1-1.1 0-1.3-.3-.6-.6 1.6-.6-.7-3.2-2.8-3.1-3.2.2-4.9-.3-4.9-1.3 0-.7 1-.9 2.5-.7 1.4.3 2.5.1 2.5-.3 0-1.3-4.7-1.1-7 .3-1.7 1.1-2.2 1-2.9-.1-.5-.7-1.3-1.1-1.9-.7-.6.3-1.3 0-1.5-.6-.3-.7-.6.2-.6 1.9M208 197c0 .7.3 1 .7.7.3-.4.3-1 0-1.4-.4-.3-.7 0-.7.7m3.2 1c0 1.4.2 1.9.5 1.2.2-.6.2-1.8 0-2.5-.3-.6-.5-.1-.5 1.3m32.8-1c0 .7.3 1 .7.7.3-.4.3-1 0-1.4-.4-.3-.7 0-.7.7m-7.8 5c0 1.4.2 1.9.5 1.2.2-.6.2-1.8 0-2.5-.3-.6-.5-.1-.5 1.3m-36.2.5c0 1.1.5 2.7 1 3.5.8 1.2 1 1.2 1-.5 0-1.1-.5-2.7-1-3.5-.8-1.2-1-1.2-1 .5"/><path d="M238.3 202.4c.4 1-.5 1.8-2.5 2.5-2.1.7-2.8 1.5-2.4 2.6.3.8.1 1.5-.5 1.5s-.7.4-.4 1c.3.5-.1 1-.9 1-.9 0-1.6-.8-1.6-1.9 0-2.3-2.5-4.7-3.5-3.1-.9 1.5-2.5 1.2-2.5-.6 0-.8-.4-1.2-1-.9-.5.3-1 1.8-1 3.1 0 3.5-2.3 2.6-3.2-1.2l-.7-2.9.1 3c.1 8.3-.3 11.6-1.2 11-.5-.3-1-1.7-1-3s-.3-3.1-.6-3.9c-.6-1.4-.8-1.5-1.8-.2-.6.8-2 1.6-3.1 1.8s-2.8 1.2-3.7 2.3c-1 1.1-1.7 1.6-1.8 1.2 0-1.1-3 1.9-3 3 0 1.3-4 1.1-4-.2 0-.5-.7-.2-1.5.8-1.3 1.8-1.4 1.8-2.5-.2-1.8-3.5-3-2.4-3 2.6.1 3.8.3 4.4 1.1 3.1.9-1.7 1.1-1.7 3.7-.1 1.5 1 3.3 2.5 3.9 3.3 1.1 1.3 1.4 1.3 2.3 0 .5-.8.9-2.9.8-4.7s.1-3.5.5-3.9.7-.2.7.4c0 .7.4 1.2.9 1.2s.7-.8.4-1.9c-.7-2.6 1.4-3.6 2.6-1.2.7 1.3 1.7 1.7 3.1 1.4 1.6-.4 1.9-.2 1.4 1.3-.6 1.6-.5 1.7.7.6 1.9-1.8 2.9-1.5 3 1 0 2.2.1 2.2.9.3.6-1.3.9-1.5.9-.5.1 1.3.3 1.3 1 .1.5-.8 1.6-1.1 2.5-.8 1.8.7 2.1-.4.5-2-.6-.6-.9-2.3-.7-3.9.2-2.4.8-3 3.3-3.2 2.4-.2 3.5.3 5.2 2.6 1.9 2.6 2 3.2.8 5.6-.8 1.5-1.3 2.8-1.2 2.9s-.8 1.6-2 3.2l-2.2 3 .1-3.8c.1-2 .5-3.7 1-3.7.4 0 .8-.5.8-1 0-.6-.5-1-1-1-.8 0-2 1.9-5.6 9.8-.5 1.1-3.4-1.5-3.5-3.2-.1-2-.2-2-.6-.1-.8 3.2-2.5 4.7-4.6 4.1-1.2-.3-2.7.3-3.9 1.7-1.5 1.7-1.8 1.8-1.4.4.4-1.1 0-1.7-1.1-1.7-1.3 0-1.5.9-1.1 5.7.3 3.2.3 5 .1 4-.3-.9-.9-1.7-1.4-1.7s-.9-1.2-.9-2.8c0-1.5-.4-3.3-.9-4.1-.7-1.1-1-.9-1.6.8-.7 2.4-2.5 2.8-2.5.5 0-.8-.4-1.2-1-.9-.5.3-1 1.7-1 3 0 3.2-1.6 4.1-2.3 1.3-1.1-4.2-1.9-.9-1.2 4.8.5 4.2.9 5.3 1.7 4.3.7-1 .8-.8.5.9-.5 1.9-.3 2.1.9 1.1 1-.8 1.3-2.2.9-4-.3-1.5-.1-3 .4-3.4.6-.3 1.1-.1 1.1.4 0 .6.5 1.1 1 1.1.6 0 1-.7 1-1.5s.5-1.5 1-1.5c.6 0 .9 2.1.9 4.7-.1 3.9-.3 4.3-.8 1.9l-.6-2.9-2.9 4.1c-2.7 4-4.6 4.7-4.6 1.8 0-.8-.8-2.4-1.8-3.6l-1.7-2.2.1 3.5c.1 1.9.5 4.4.9 5.6.9 3-.3 4.5-2.1 2.6-.9-.8-1.4-1.8-1.1-2.2.2-.5-.8-1.9-2.1-3.3l-2.5-2.5.6 6c.3 3.3.3 5.3 0 4.5s-1.5-2.5-2.7-3.7c-4.3-4.4-6.5-8.1-3.1-5.3 1.2 1 1.7.8 2.6-1.3.9-2 .8-3.3-.7-6.7-1.5-3.3-2-3.8-2.5-2.3-.6 1.4-.8 1.2-.8-1-.1-1.6-.5-2.6-1-2.2-1.7 1-2.2-1.3-.6-2.8 2.5-2.5-.1-5.6-4.7-5.7-1.4 0-.8 3.3.9 5.2 1.5 1.7 1.5 2 .3 2.9-1.1.6-1.9.3-2.9-1.1-1.2-1.9-4.1-2.8-4.1-1.4 0 1.1 4.9 5.2 7 5.9 2 .6 5.6 6.2 4.6 7.2-.3.3-1.2-.2-2.1-1.1s-1.4-1.6-1-1.6c.3 0-.8-1.4-2.5-3-1.7-1.7-3.5-3-4-3-1.5 0-1.2 2.7.5 4.4 2.1 2.1 1.9 6-.5 8.1-1.6 1.5-1.8 2.1-.7 3.3 1 1.3.9 1.5-1 1-1.6-.4-2-.2-1.6.8.3.8 1.1 1.4 1.8 1.4 1.8 0 2.3.9 3 5.1.4 2.5.3 3-.5 1.9-.5-.8-1-2.2-1-3 0-.9-1.6-2.2-3.6-2.9-2.9-1-3.5-1.7-3-3.4.7-2.9-2.5-5.4-9.1-6.7-5.8-1.2-5.9-2-.5-3.8 2.7-.9 3.9-.9 6 .3 1.5.8 2.1 1.4 1.5 1.5-1.8 0-1.6 2.7.3 3.4 2.8 1.1 3.4.7 2.4-1.9-.7-1.9-.6-2.6.7-3.3 2.1-1.2.8-3.2-2.2-3.2-1.3 0-2.7-.5-3-1-.3-.6.1-1 .9-1 .9 0 1.6-.4 1.6-.9 0-1.6-3.3-2.1-7.4-1.1-2.4.5-4.7.5-5.7 0-.9-.5-1.9-.6-2.3-.3-.3.3-.6-.3-.6-1.5 0-3.1 4.2-5.5 8.2-4.7 3 .6 3.1.5 1.2-.7-1.2-.7-3.4-2.2-4.9-3.3l-2.8-1.9-1.5 2.2c-.8 1.2-1.8 2.2-2.2 2.2s-2.2 1.3-4 3c-1.8 1.6-4 3-4.9 3-1.4 0-1.4.2-.1 1 .8.5 1.1 1 .5 1.1-.5 0 .8.9 2.9 1.9 2.2 1 4.8 1.7 5.9 1.4 1.6-.3 1.5.1-.8 2.4-2.5 2.5-3.1 2.6-11.8 2.4-5.1-.1-9.3-.7-9.5-1.2-.2-.6-1.2-1-2.3-1-1 0-1.9-.5-1.9-1 0-.6-1.2-1-2.8-1-1.5 0-3.5-.9-4.5-2a6.05 6.05 0 0 0-7.7-1c-1.3.8-1.2 1.1.5 2.4 2 1.5 2 1.5-.2 1.6-1.3 0-2.4-.8-2.8-2.1-.8-2.6-4.8-4.2-10.1-4-2.3.1-5.4-.6-7-1.4l-2.9-1.6 4 .2c6 .2 6.5 0 6.5-1.6 0-1.4-2.7-2-7.5-1.6-1.1.1-4.5.2-7.5.2-5.1-.1-5.3 0-3.6 1.4 1.6 1.2 1.7 1.5.4 1.5-.9 0-1.8.5-2 1.2-.3.7-2.7-.4-6.3-3-6.4-4.6-9-5.3-8-2.3.8 2.7-2.3 3.5-6.8 1.6-2.6-1.1-4.3-1.2-6.2-.5-1.4.5-3.9.7-5.5.3-2.2-.4-3-.2-2.8.6.2.9-1.7 1.3-6.2 1.5-5.9.2-10.7 1-11.6 1.9-.2.1 1.1 5 2.8 10.7 1.6 5.8 3.4 11.8 3.8 13.5.5 1.6 3.5 9.5 6.8 17.5 14.3 35 41.7 84.9 44.8 81.8.3-.3 1.2-4.3 2.1-8.9 3-16.2 6.5-25.7 12.7-34.9 5.2-7.8 10.8-12.5 20-17.1 8.5-4.2 9.3-4.4 17.5-4.3 6.7 0 10.5.6 17.1 2.8 4.7 1.6 8.7 3.1 9 3.5s3.7 3 7.6 5.9c8.1 5.9 9.8 7.7 9 9.1-1 1.5-8.5-2.9-7.9-4.5.3-.8-.1-1.4-1-1.4s-2-.6-2.4-1.4c-1.1-2-9.9-5.6-14.6-6.1-2.2-.2-4.2-.6-4.5-.9s-1.1.3-1.9 1.4c-1.5 2.1-3.3 2.7-3.3 1 0-.6.7-1 1.6-1s1.4-.6 1.1-1.3c-.2-.6-1.1-1.1-2-.9-.8.1-1.8-.2-2.2-.8-1-1.6-13-1.2-17.7.7-10.4 4.1-21.3 14.6-27.3 26.3-5.1 9.9-6.7 25-4 35.9.9 3.3 1.7 7.5 1.9 9.4s.5 3.8.9 4.3c.9 1.5 1.1 8.9.3 10.2-.4.7-.4 1.7-.1 2.3.4.6.7 2.6.7 4.5s.4 3.4.9 3.4c.4 0 .6.7.3 1.5-.4.8-.1 1.5.5 1.5 1.5 0 1.4 4-.1 4-.8.1-.6.6.5 1.4.9.7 1.7 2.5 1.7 3.9s.5 2.7 1.2 2.9c.7.3.9 1.2.5 2.2-.6 1.6-.9 1.6-2.2.2-.8-.8-1.5-1.9-1.5-2.4 0-.4-2.6-4.9-5.8-9.8-3.3-4.9-6.2-10.5-6.6-12.4-.8-4.7-4.6-14.3-6.1-15.5-.7-.6-1.5-2.8-1.9-5s-1.1-4.5-1.6-5c-.4-.6-1-2.1-1.2-3.4-.6-4.4-2.4-3.3-2.6 1.5-.2 4.6-2.3 7.7-4.7 6.8-.6-.3-2.2.4-3.5 1.6-2.9 2.5-2.8 2.5-2.2-.8.8-4.4-.4-2.3-5.3 9.2-4.9 11.4-6.5 18.9-3.9 17.9 1.1-.4 1.3.4.8 4.3-.3 2.7-.8 6-1.1 7.4-.4 1.4-.5 2.9-.4 3.4s-.1 2.8-.5 5l-.8 4.1-.7-3c-.4-1.7-.6 1-.5 6.3.1 5.1-.2 9.6-.6 9.8-.5.3-.5 1-.2 1.6.4.7.2.8-.4.4-1.5-.9-1.5-5.1-.1-7.9.9-1.6.9-2.2 0-2.5-.6-.2-1.1-1.3-1.1-2.4 0-3.7-2.5-1.2-2.7 2.8-.1 2.1-.3 4.6-.4 5.4-.6 4.2.2 7.2 2.1 7.7 2.3.6 2.6 2.6.6 4.2-1.1.9-1.5.7-1.9-1.1-.4-1.2-.9-1.9-1.3-1.5-.4.3-.1 2 .6 3.6.7 1.7.9 3.8.6 4.7-.4.9-.2 2.2.4 2.9s.6 2.3 0 4.3c-.7 2.5-.6 3.2.6 3.2.8 0 1.4.9 1.4 2.1 0 1.8-.3 1.9-1.5.9s-1.4-.4-1.3 4.4c.1 3.1.4 5.6.7 5.6s.7 2.9.8 6.5c.1 5 .8 7.6 3.1 11.7 1.5 2.9 3.4 8.1 4.2 11.6.7 3.4 1.8 6.6 2.5 7 .6.4 1.5 1.6 1.9 2.7.7 1.9.8 1.9 2.1.1.8-1.1 2.1-1.6 3-1.3.8.4 1.5.2 1.5-.2 0-.5 1.8-2.9 4.1-5.3 2.2-2.3 6.2-6.7 8.7-9.7 5.7-6.6 12.9-13.5 20-19.1l5.3-4.3-.6 3.4c-.3 1.9-1.5 8.3-2.6 14.4-2.8 15-2.9 15.9-3.4 24.5-.2 4.1-.9 12.5-1.5 18.6-.8 8-.8 15.2 0 25.9 1.5 20.5 3.3 29.7 7.1 37.3 2.8 5.5 3.6 6.3 5.5 5.8 3.5-.9 3.6.8.3 5.4l-3.1 4.2 2.2 2.1c3.1 2.8 7.3 12.4 6.7 15-.3 1.2-.9 3.2-1.2 4.4-.6 1.9-.4 2.3 1.4 2.3 1.2 0 3.8.7 5.7 1.5 4.6 1.9 5.8 1.1 3.9-2.5-1-2-1.3-4.5-.9-8.2.3-2.9.7-6.7.8-8.3.4-3.6-1.8-15.4-2.6-14-.2.6-.3.4-.1-.3.4-2-2.7-11.4-4.6-13.6-1.5-1.7-1.6-1.6-2.3 2-.5 2.9-.2 5 1.4 8.4 2.9 6 3.6 8.2 3.6 10 0 .8.3 3.1.6 5 .5 2.6.4 3-.3 1.5-.5-1.1-1-1.6-1.1-1-.1.5-.8-.7-1.6-2.9-.7-2.1-1.1-4.2-.8-4.7s0-.9-.5-.9c-.6 0-1.1-.9-1.1-2.1 0-1.3.4-1.8 1.2-1.3.7.4.8.3.4-.5-.4-.6-1.2-.9-1.7-.6-.5.4-1.2-.2-1.5-1.2s-1.3-3.4-2.2-5.3c-2.4-5.2-2.8-20.4-.7-27.6 2-6.9 6.1-11.4 10.3-11.4 7.6 0 13.6 8.5 17.2 24.5 3.3 14.6 4.4 18 7.1 21.6 5.2 6.8 11 20.9 12.4 30.1.6 3.8 1.2 4.5 4.8 6.3 10.6 5.1 16.5 22.1 11.8 33.8-1.3 3.2-2 2.8-5.9-3.3l-2.2-3.5v4.1c0 4.1-3.9 13.2-6.6 15.5-2.4 2-3.4-.1-2.2-4.9 1.1-4.5.9-5-8-13.6-2.1-2-17-8.1-17.8-7.3-.2.2.6 2.3 1.8 4.8 4.1 8.4 3.3 23.4-1.5 27.6-1.9 1.8-2 1.7-.8-.4 1.9-3.7 1.2-5.8-2.9-9.2-6-4.8-14.6-6-24.5-3.6-6.1 1.6-8 1.7-11.3.7-7.6-2.3-9.1-7.6-3.6-12.7 4.2-3.9 15.8-9.4 23.6-11.2 6.7-1.5 7-1.7 4.1-2.4-4.7-.9-11.1.5-25.2 5.7-10.2 3.7-13.1 4.4-16.4 3.9-4.5-.8-8.7-4-8.7-6.6 0-5 13.2-13.9 28-18.8 10.1-3.4 9.8-3.2 7.3-4.1-2.9-1.2-12.9 1.1-23.8 5.4-11.8 4.7-15.4 5.3-20.7 3.1-4-1.6-4.3-1.6-5.5.1-1.6 2.2-2.7 9.7-1.8 13.1 1 4.2 5 9.6 8.7 11.7 3.9 2.3 4.8 3.4 4.8 6.2 0 2.9 3.5 10.7 5.7 12.6 2.8 2.4 6.5 4.1 10.2 4.7 3.2.6 3.6 1 5.6 7.2 2.2 7 5.3 11.9 8.8 14.4 4.6 3.2 15.8 1 17-3.5.6-2.4 5.4-2.8 7.1-.5 1.8 2.5 8 3 13 1.1 2.4-.9 7.7-4.6 11.7-8.1 6.1-5.4 8-6.5 11-6.5 3.5 0 9.6-3.3 12.9-6.9 1-1.2 3.2-1.7 7.2-1.8 8 0 11.9-2.7 15.9-10.9 1.7-3.5 3.6-6.4 4.1-6.4.6 0 6.6-2.7 13.5-6s13.1-6 13.7-6 2.3 2.8 3.8 6.2c6.7 15.9 6.7 20.7.4 45.3-5 19.2-6.8 36.2-7.2 69-.3 16.5-.4 31-.4 32.3 0 2.4-.2 2.5-6.5 4.1-3.1.8-4.5 1.9-6.2 5l-2.2 3.9 2.3 1.5c4.3 2.9 10.4 3.9 14.4 2.6 2-.7 5-1.2 6.5-1.1 1.6.2 3.3-.1 3.9-.4.6-.4 3.7-.6 6.7-.5 3.1.1 9.8-.7 14.8-1.8 5.1-1.2 10.4-2.1 11.8-2.1 1.8 0 3.1-1 4.5-3.3 1.1-1.7 2-3.5 2-3.8 0-.4-1.5-2.9-3.4-5.7l-3.5-4.9-1.2-20.1c-1.3-22-.6-34.2 3.2-54.1 2.2-11.3 4.5-16.4 8.6-19.5 2.5-1.9 2.8-1.9 8.7-.2 3.4 1 7.2 2 8.6 2.3s6.8 2.1 12 4 12.6 4.3 16.5 5.3c3.8 1 9.5 2.5 12.6 3.4l5.5 1.6 4.3 9.3a368 368 0 0 1 8.8 20.2c2.5 6 6.9 15.9 9.9 21.8s5.4 11.5 5.4 12.5c0 .9-1.7 2.8-3.7 4.2-6.5 4.4-9.1 7.7-11.3 14.6-2.6 8.6-2.6 9.8 1 20.6 1.6 5 3 9.7 3 10.5 0 .9 1.2 3.7 2.7 6.4 2.6 4.9 2.6 4.9.8 8.8-1.9 4.4-1.5 10 .9 12.1 1.6 1.2 1.4 2.1-2.9 13.5-2.8 7.5-4.9 16.4-6 25.8-.6 5.4-.8 5.7-2.8 5.1-2.2-.7-2.2-.7-.3 1.5 1.1 1.2 2.6 1.9 3.3 1.7.8-.3 1.3.2 1.3 1.4 0 1.7-.6 2-3.7 1.9q-3.6-.15-1.5-.6c1.2-.2 2.2-.9 2.2-1.5 0-.5-.6-.8-1.4-.5s-1.7.1-2-.6c-.3-.8-.9-.7-1.9.5-1.5 1.9-4.3 2.5-3.2.8.3-.5.1-1-.4-1-.6 0-1.1.4-1.1 1 0 .5-.7 1-1.5 1s-1.5-.7-1.5-1.5c0-.9-1-1.6-2.7-1.7-1.6-.1-3.7-.2-4.8-.3s-7-.3-13.2-.4c-12.5-.1-11.8.3-12.8-8.3-.6-5.3-7.4-19.7-12.8-27.2-3.4-4.7-3.5-5.1-2.1-7.7 2-3.9 1.7-8.9-.6-11.9s-2.4-4.3-.6-10.1c.8-2.4 2.3-7.4 3.5-11.1 2.7-8.9 3.6-19.5 1.9-22.7-1.4-2.6-4.8-3.8-4.8-1.6 0 1.7-11.9 12.7-13 12-.4-.3-1.1 2.1-1.5 5.3-1.1 9.4-9.6 28.3-15.2 34-2 2-1.6 3.1 2 5.2 4.6 2.7 5.6 3.7 6.3 6.6.4 1.7.1 3.1-.9 4.1-2.6 2.6-23.6 1.9-37.6-1.2-6.2-1.3-11.6-2.7-12.2-3-1.9-1.2-.8-4.3 1.9-5.4 2.1-.8 17.5-3 22.5-3.1 1.1 0-2.7-3.6-4.6-4.3-.9-.3-1.7-1.2-1.7-1.9s-1-1.8-2.2-2.3c-2.7-1.2-2.6-4.6.3-8.6 4-5.7 2.5-7.6-7.6-9.7-2.7-.6-9.4-2.1-14.8-3.2-5.4-1.2-10.9-1.9-12.2-1.6s-2.7.2-3-.4c-.3-.5-1.8-1-3.1-1-2.4 0-2.5.3-1.9 3.3.4 1.7 1.1 3.6 1.4 4.2 3.2 4.5 5.2 28.5 2.4 28.5-.8 0-1.6.7-1.9 1.5-.4.8-1.2 1.5-2 1.5-1.3 0-1.8 1.1-1.5 3.6.3 2.4-13.5 3.6-43.4 3.9-30.8.2-38.6-.2-39.2-2.1-.3-1 9.9-2.8 20.2-3.7 4.1-.3 3.4-2.1-1.2-2.9-14.5-2.4-84-4-101.2-2.2l-6.1.7V938h3c1.7 0 4.7-.7 6.8-1.6 2.4-1 8.1-1.8 15.9-2.1 11.9-.6 14.5-1.4 8.3-2.6-1.6-.4-3-1.1-3-1.8 0-.8 2.2-.8 7.8-.2 4.2.4 12.1.8 17.5.8 8.3 0 9.8.3 10.3 1.7.5 1.8-1.8 7.2-3.6 8.3-2 1.2-1 3.2 2.5 4.8 2.5 1.2 3.3 2.1 2.8 3.3-.3.9-1.3 1.4-2.4 1.1-1-.3-1.7-.1-1.6.4.1.4-3.5 2.6-8 4.8-8.5 4.1-9.6 5.3-6.5 6.9 2 1.1 19 3.2 25.5 3.2 4.4 0 11 2.1 12.1 3.9.3.4 1.9 1.1 3.4 1.4 1.8.4 3.1 1.4 3.5 2.7.3 1.1.9 2 1.4 1.9 2.7-.5 9.3.2 8.9 1-1 1.6 5.8 3.6 10.8 3.2 4.6-.3 4.9-.2 4.3 1.9-.4 1.7-.3 1.9.9.9.7-.6 2.2-.8 3.1-.5 1.4.6 1.5.9.4 1.5-.9.6-1 1.1-.2 1.5.6.4.9 1.2.6 1.7-.8 1.2 4.5 3.1 6.4 2.3 1.3-.5 1.1-.8-.9-1.4-1.8-.6-1.3-.7 2.2-.6 3.7.1 4.8.5 4.8 1.8 0 3.4 1.2 4.8 4.4 4.9 4.7.2-5.4 1.7-13.4 1.9-5.2.2-3.8.5 7.5 1.5 28.3 2.7 39.5 3.6 60.5 5 11.8.8 33 2.4 47 3.5 14 1.2 31.4 2.5 38.5 3 38.1 2.6 58.3 4.1 61 4.5 1.7.3 6.6.7 11 1 8.2.5 44.5 3.1 57 4 3.9.3 11.1 1 16 1.5 5 .5 17.3 1.4 27.5 2s23.6 1.5 29.8 2c11.4.8 14 .5 20.3-2.3 4.1-1.8 19.8-7.7 29.4-11.1 3.9-1.3 12.2-4.3 18.5-6.6 6.3-2.2 15.1-5.4 19.5-7s12.5-4.5 17.9-6.4c5.5-2 10.1-3.6 10.3-3.6s.3-24.5.3-54.4v-54.4l-3.2-1c-1.8-.6-7.3-2.2-12.3-3.7-4.9-1.4-10.1-3-11.5-3.5s-3.6-1.1-5-1.3-3.2-.7-4-1c-1.6-.7-17.7-4.5-38.5-9.1-6.6-1.5-13.6-3.1-15.5-3.6-5.3-1.3-28.9-5.7-43-8-6.9-1.1-15-2.5-18.1-3-7.8-1.4-8.8-.9-8.2 4.4.7 5.5-.8 8.1-5.9 10.7-6.7 3.4-32.9 7.5-32.8 5.1.1-.4 1.3-2.5 2.8-4.7 1.9-2.8 4.9-5.2 10.4-8 4.2-2.2 8.4-4.7 9.4-5.5 2.5-2.2 6.2-8.4 6.9-11.7l.7-2.8-2.9 3a52 52 0 0 1-6.6 5.5c-2 1.4-3.7 2.9-3.7 3.4s-.6.3-1.4-.3c-1.2-1-.8-2.6 2.2-9.9 6.1-14.8 5.5-23.5-2.1-33.2-3.9-4.9-5.2-5.8-10.6-7.5-12.4-3.7-15.1-7.4-29.4-40-9.7-22.2-19.6-40.5-21.8-40.5-.7 0-1 2.6-.8 7.2.3 10.1 0 18.2-.7 17.6-.6-.6-2.1-8.9-3.1-16.7-.5-4.4-3-8.4-4.5-7.5-.4.3-.8.1-.8-.5 0-.5.6-1.2 1.3-1.5 1-.5 1-.7 0-1.2-.7-.3-1.3-1.4-1.3-2.5 0-1-1.8-5.4-4-9.6-4.4-8.6-4.7-9.5-2.5-8.7 1.8.7 2-.7.3-2.4-.9-.9-.9-1.2 0-1.2s1-.5.2-1.9c-2-3.9 1-3.6 13 1.4 3.6 1.5 7 3 7.5 3.5.6.4 5.4 2.2 10.9 3.9 11.1 3.7 10.5 3.9 13.2-4.5.8-2.8 3.6-7.7 6-11 4.9-6.6 6-11.6 2.3-10.7-1.9.5-2 .3-1.4-1.8.4-1.3 1.4-3.5 2.4-4.9s2.7-3.9 3.8-5.5c1.2-1.7 2.4-3.9 2.7-5.1.6-2 .4-2-4.9-1.1-4.6.9-5.8.8-7.1-.5-1.4-1.4-1.4-1.9 0-5.3 1.1-2.5 1.2-3.4.4-2.7-.7.5-3.4 1.4-6 2l-4.8 1 1.8-3.2c.9-1.7 2.4-4 3.4-5.1 4.2-5 4.1-6.9-1.2-13.7-6.8-8.9-34-49.9-34-51.3 0-.4-1.2-2.5-2.7-4.8a68 68 0 0 1-3.8-6.1c-1.4-2.5-3.1-1.7-2.7 1.4.2 1.4 2.6 10.6 5.4 20.5 5.1 18.2 6.8 29.8 4.1 28.8-.7-.3-1.3-1-1.3-1.7s-.3-.6-.9.2c-.4.7-.6 4.7-.3 8.8.4 6.3.2 7.4-1.1 7.4-2.4 0-3-1.7-1.7-5.5 1-2.9.8-4.1-1.3-8.7-1.4-2.9-2.8-6.4-3.2-7.8-.7-2.4-.7-2.4 1.1-.8 1.1.9 2.4 1.4 3 1 1.7-1 0-4.8-3-6.7-3.2-2.2-4.4-4.9-1.6-4 2.6.8 2.5.3-.5-5.1-2.7-4.9-3-5.8-1.5-4.9 2.3 1.4.8-1.5-1.7-3.4-2.7-2-2.7-2-.5-2.1 2.2 0 2.2-.1.6-2.5-.9-1.4-1.2-2.5-.8-2.5.5 0 .5-.4-.1-.8-.5-.4-1.5-1.6-2.1-2.7-.9-1.6-.8-2.3.5-3.2 1.4-1.1 1.4-1.4.2-2.2s-1.2-1.2-.2-2.4.8-1.8-.9-3c-1.6-1.1-1.9-2.1-1.4-4.2.5-1.8.3-2.6-.3-2.2s-1.4 0-1.7-.9c-.9-2.5-.7-2.7 1.1-1.3 1.5 1.3 1.5 1.2.5-.8-.9-1.6-.9-2.2.1-2.6.6-.2-.5-1.4-2.5-2.7-2.1-1.2-3.5-2.6-3.2-3.1.3-.6 1.1-.5 2 .2.8.6 1.7.9 2 .6 1-1-.6-2.7-2.7-2.7-1 0-1.9-.7-1.9-1.5s.9-1.5 2-1.5c2.8 0 2.5-1.5-.6-2.8-2.8-1.3-2.4-3.2.6-3.2 1.2 0 1.7-.5 1.4-1.4-.3-.7.2-2 1-2.8 1.3-1.4 1.3-1.8 0-3.7-1.5-2-1.4-2.1 2.4-2.1 3.5 0 4.1.3 4.6 2.6.4 1.4 3.9 5.9 7.9 9.9 5.4 5.4 9.6 11.2 16.7 23 13 21.6 27.7 42.5 30.1 42.5.6 0 7.4-8.4 14.4-17.9 3.7-5 12.8-15.1 13.6-15.1.5 0 3.8 3.4 7.4 7.7 5 5.8 6.2 7.9 5.4 8.9-1.2 1.5-23.6 14.5-32.2 18.6-3.1 1.5-5.7 3-5.7 3.2 0 .9 13.3 17.2 14.7 18 .9.5 3.9.4 7.1-.3 12.8-2.6 21.8-.5 29.7 7s12.2 18.8 14.1 37.1c.6 5.9.9 6.7 3.7 8.3 4.1 2.5 17.2 13.8 22.2 19.3 6.5 7.2 13.1 19.5 14.5 26.9 1.5 7.9.8 18.4-2 28.7-2.6 9.8-5.9 17.9-5.9 14.8-.1-1.3.3-3.1.8-4s1.2-4 1.6-6.7l.8-5-2.5 2.2c-2.9 2.7-4.6 2.9-7.6.8-1.7-1.3-2.6-1.3-4.3-.4-2.9 1.5-9.6.4-15.6-2.6-2.6-1.4-5.5-2.5-6.4-2.5-1 0-4.9-1.4-8.7-3-3.9-1.7-8.1-3-9.4-3-3.1 0-6.3 5.1-7.7 12.6-.7 3.2-1.6 7.2-2.1 8.9-.5 1.6-1.4 5-2 7.5-.9 3.6-3.1 9.1-4.7 11.9-.2.2-1.2-.4-2.3-1.4-2.3-2.1-1.9-7.4 1.1-16.7 2.9-8.9 7.9-32.1 7.9-36.7 0-5.2-2.7-17.1-5-22.5l-1.8-4.1-3.1 6.5c-1.8 3.6-3.7 7.2-4.3 8.1-.9 1.3-.5 3.5 2.1 10.2 3 7.7 3.2 8.7 1.9 11.3-.7 1.6-2.3 3-3.5 3.2-2.5.4-12.6-2.6-19.3-5.7-2.5-1.1-5.3-2.1-6.2-2.1-2.1 0-3.8 3.7-6.3 13.8-2.3 9.7-1.4 12 6.3 15.5 3.4 1.6 7.1 2.6 9.1 2.4 3.4-.2 3.5-.2 5 6.2 1.3 5.1 2.6 7.4 6.7 12 6.4 7 18.8 14.3 24.2 14.3 2-.1 7.9-.1 13.1-.1 9 0 9.6-.2 13.2-3.1 2.6-2.1 4.9-3 7.4-3 2.2 0 5-1 7.3-2.5 5.4-3.7 6.2-3.3 6.2 2.7 0 5 .1 5.2 1.6 3 1.8-2.6 3.4-2.9 3.4-.5.1 1.4.9.9 3.1-1.7 3.5-4 11.2-19.4 15.9-32 1.7-4.7 3.8-10.2 4.6-12.3 1.6-4.4 1.9-7 .4-4.7-.8 1.3-1 1.2-1-.3 0-.9.7-1.7 1.6-1.7 1.6 0 1.5-1.8-.3-6.7-.6-1.5-.4-1.6.9-.5 1.4 1.1 1.6.9 1.6-1-.1-4.3 2.1-16.1 3.1-17.1 1.5-1.5 1.4-2.7-.4-2.7-.9 0-1.5-.9-1.5-2.3 0-4.2 1.2-6.7 3.2-6.7 1.5 0 1.8-.5 1.3-2-.4-1.2-.2-2 .5-2 .6 0 .8-.5.5-1-.4-.6-1.2-.4-2.1.5-.9.8-1.6 1.5-1.8 1.5-.1 0-.2-1.8-.2-4 0-3 .3-3.9 1.3-3.6.8.3 1.3-.2 1.3-1.4 0-1 .5-2.2 1-2.5 1.7-1 1.2-3.8-.6-3.1-1.3.5-1.4-.1-.8-4 .5-3.4.3-4.8-.7-5.4-1-.7-1-1.2-.1-2.2.7-.9.8-1.8.2-2.4-.5-.5-1.2-2.9-1.6-5.4-.7-4-.6-4.4.8-3.2.9.7 1.8.9 2.1.5.8-1.2-.4-6.3-1.4-6.3-.5 0-.9-.6-.9-1.4s-.9-1.2-2.5-1.1c-2.5.3-3.4-.8-1.5-2 .6-.3 1-.2 1 .4 0 2.5 2.8-.3 3.9-3.8 1.5-5 1.4-6.1-.4-6.1-.8 0-1.5-.8-1.5-1.8 0-2.6-1.1-3.4-2.7-2.1-1 .9-1.3.7-1.3-.9 0-1.2.5-2.4 1-2.7 1.6-1 1.2-3.8-.4-3.2-1 .4-1.7-.2-2.2-1.6-.3-1.2-1.9-4.4-3.5-7s-2.7-5.2-2.5-5.6c.3-.4-.6-2-2-3.6-3.6-4.2-3-6.8 1.8-8 2.6-.7 4.4.5 12.4 8.3 2.5 2.4 1.7-1.8-2.4-12.4-4.8-12.8-9.6-21.2-17-30-5.5-6.4-14.3-13.4-16.9-13.4-.6 0-1.4 2.1-1.8 4.7-.9 6.3-9 31.4-12.4 38.2-1.4 2.9-4.8 7.8-7.5 10.8l-4.8 5.4-2.4-5.2c-2.6-5.5-3-7.4-1.4-6.4.6.3.7-.1.4-.9-.4-1.1 0-1.6 1-1.6.9 0 1.6.6 1.6 1.4 0 1.9 2 2.5 4.5 1.4 2.7-1.3 7.1-7.8 8-11.9.4-1.9 1.8-5.9 3-8.9s2.8-7.1 3.6-9c.7-1.9 1.3-7 1.3-11.3 0-4.2.4-7.7.9-7.7s.6 1.1.3 2.5c-.4 1.4-.2 2.5.3 2.5 1.2 0 2.4-3.7 1.6-4.9-.3-.5-.1-1.2.5-1.6s.8-1.1.5-1.6c-1.3-2.1-1.4-10-.1-13.1 1.4-3.5 1.5-6.5.2-8.6-.4-.6-.3-1.2.3-1.2 1.4 0 1.8-4 .8-7.9-.7-2.8-.6-3.7.8-4.7 2.2-1.6 1.3-4.6-1.1-3.7-1.5.6-1.6.1-1.1-4.6.4-3.2.2-4.9-.3-4.6-.6.4-.9-1-.9-3.2.2-3.1.3-3.3.6-1 .3 1.6 1 2.6 1.6 2.4 1.5-.5 1-4.8-.7-6.2-.7-.6-1-2.8-.8-5.8.2-2.8-.1-5.4-.7-6-1.4-1.4-1.5-6.7-.1-6.7 1.3 0 1.3-3.7.1-4.5-.6-.3-1.4.3-2 1.2-.9 1.6-1 1.4-1.1-.9 0-1.5.4-3 1-3.3 1.3-.8 1.3-6.2.1-7-.5-.3-1.2.5-1.4 1.7-.4 2.1-.4 2.1-.4-.2-.1-3.6-1.4-9-2.4-9.6-.5-.3-.9 1.1-.9 3.1 0 2.5-.4 3.5-1.2 3.2-.7-.2-1.2-1.4-1-2.7.2-1.4 0-2-.7-1.6-.6.4-1.1.2-1.1-.4s-.5-.8-1.2-.4-.8.3-.4-.4.2-1.2-.4-1.2-.8-.5-.5-1.1c.5-.7 1.4-.4 2.6.7 1.8 1.6 1.9 1.6 1.9-1.3 0-1.7-.7-3.6-1.5-4.3s-1.2-1.6-.9-2.1-.1-.9-.9-.9c-1.7 0-3-2.7-1.8-3.5 1-.6 0-6-1.7-9.2-.7-1.2-.9-2.9-.6-3.8.4-1-.4-2.6-2.3-4.4-1.6-1.5-2.8-3.2-2.6-3.8s-.3-1.8-1.2-2.6c-.8-.9-1.5-2.4-1.4-3.4 0-1.6.1-1.6.9.2.7 1.5.9 1.6.9.4.1-.9 1.5-2.2 3.1-2.9 2.4-1 2.8-1.5 1.9-2.6-1.6-2-2.9-1.7-2.9.6 0 1.1-.5 2-1.1 2s-.8-.7-.5-1.6c.3-.8.2-1.2-.3-.9s-1.2.1-1.6-.4c-.3-.6-1.2-.8-2-.4-1.1.3-1.5-.2-1.5-1.8 0-1.2-.7-3-1.6-4s-1.8-3.7-2-6c-.2-2.4-1.4-5.8-2.6-7.6-2.2-3.1-2.3-3.2-2.9-1-.4 1.5 0 2.7 1.5 3.9 1.8 1.5 1.9 1.8.4 1.8-1 0-1.8-.4-1.8-.9s-1-1.3-2.1-1.6c-1.6-.5-1.8-.9-.9-1.5 1.5-.9.1-2.8-3.7-4.8-3.1-1.7-3.4-1.5-2.7 1.3.4 1.7.2 2.5-.6 2.5-1 0-1 .3 0 1.5.7.8 1.7 1.2 2.4.8.6-.4.5.1-.2 1-.8.9-1.1 2-.8 2.6.3.5 0 1.2-.6 1.4-1 .4-.9.8.2 1.7 1.2.9.8 1-1.7.5-4-.8-4.2.3-.8 4.3 1.6 1.9 2.1 3.3 1.5 3.7-.6.3-.7 1.1-.4 1.7 1.1 1.7-3.9-.3-5.3-2.1-.7-.9-1.3-2.3-1.3-3.1 0-.9-.9-2.2-1.9-3-1.1-.7-1.8-1.7-1.5-2.1.3-.5-.9-.7-2.6-.6-4 .3-3.8 1 1 3.2 2.2 1 4 2.2 4 2.8 0 .5-1.1.2-2.5-.7-1.3-.9-3.5-1.6-4.7-1.6-2.2.1-2.2.1.6 2.4l2.8 2.4-2.6-.5c-3-.6-3.5 1-.8 2.7 1.5 1 1.5 1-.3.8-1.2-.2-1.9.2-1.7.9.1.7-.3 1.3-.9 1.3-.7 0-.9 1-.5 2.6.6 2.1.4 2.5-.8 2.1-1.9-.8-2-.3-.5 2.6.7 1.2.8 1.9.4 1.5-.5-.4-1.4-.3-2.2.3-1 .9-1.1 1.5-.1 2.6 1 1.2.9 1.7-.2 2.7-.8.6-1.5 1.7-1.6 2.3-.2 2.9-.5 3.2-2.1 2.6-1-.4-1.4-.2-.9.5.3.6-.4 1.8-1.6 2.6-1.7 1.2-2.4 1.3-3 .3-.7-1.1-.1-13.4.8-14.9.2-.3 0-.9-.5-1.3-.6-.3-.8-1.2-.5-1.9.3-.8 0-1.7-.7-2.2-.9-.5-1-.2-.6.9.3 1 .2 1.7-.3 1.7s-.7.7-.4 1.5c.4.8.1 2.2-.6 3-1 1.2-1 1.8 0 3s.9 1.6-.4 2.1c-.9.3-1.4.9-1.1 1.3 1.5 2.6-8.5 18.8-10.7 17.5-.6-.4-.8-.2-.4.4.3.6.2 1.3-.3 1.6-.5.4-1.2-.2-1.4-1.1-.4-1.7-.5-1.7-.6-.1-.1 1.8-2.1 2.6-2.1.9 0-1.4-4.9-1-6.1.5-.6.8-2.2 1.4-3.6 1.4-1.3 0-2.6.7-2.9 1.5-.5 1.1-2.1 1.5-6 1.5-3 0-5.4.4-5.4 1 0 .5.6 1 1.3 1s1.8.9 2.5 2c1.8 3-1 2.7-4.4-.5-2.6-2.4-5.2-2.3-6.9.5-.9 1.4-4.6.2-6.2-1.9-.8-1.2-.9-1.8 0-2.3.9-.6.9-1.2.1-2.5-1.5-2.3-8.3-2.2-9.6.1-1 1.8-9.9 6.6-12.3 6.6-.8 0-1.5.5-1.5 1.1 0 1-5.1.9-11.5-.2-1.6-.3-2 .1-2 2.3.1 2-.4 2.8-1.6 2.8-2.1 0-5.1-2.8-4.4-4.1.3-.4-.7-1.1-2.2-1.5-8.2-1.8-11.2-2.8-15.8-5.1-2.7-1.3-5.7-2.2-6.7-2-1.1.3-1.8 0-1.8-.9 0-.8-.6-1.5-1.2-1.6-3.9-.4-7.8-2-7.8-3 0-.5-.6-.8-1.2-.6-.7.3-1.7.1-2.3-.4-.5-.5-2.5-1.8-4.3-2.9s-3-2.4-2.7-2.9c.3-.6.2-1-.3-1-2 0-2-4.5 0-9.1 1.5-3.7 1.9-6 1.4-9.6-.4-2.6-.7-6.2-.9-7.9-.1-1.7-.7-3.7-1.3-4.5-3.3-4.1-7.1-13.4-8.3-20.6-.7-3.6-.5-4.4 1-4.8 1-.4 2.7-1.9 3.8-3.4 1.8-2.6 8.5-21.7 11.2-32.1l1.2-4.5 1.9 6.5c7.9 27.3 9.1 30.6 16.2 44.8l5.1 10.4-2.8 2.4-2.8 2.4h4.5c2.5 0 4.8-.5 5.1-1 .5-.8 1.2-.7 2.2.2 2.7 2.2 12.4 1.6 16-1 6.7-4.7 9.3-15.2 7.4-29.8-2.2-16.5-10.9-43.7-17.1-53.4-5.9-9.2-16.6-16.7-21.9-15.3-3.2.8-7.9 11.5-8.7 19.8-.4 3.9-1.4 7.3-2.4 8.5-1.9 2.2-4.6 2.8-3.3.7.4-.6.9-2.3 1-3.7 1.7-14.3 10.1-35.5 17.1-42.7 9.4-9.7 25.4-13.6 38.8-9.5 18.7 5.8 32 23.5 39.1 51.9 2.4 9.5 2.7 12.8 2.7 27.3 0 14.8-.2 17-2.1 21-1.2 2.5-2 4.7-1.7 4.9.2.2 2.7-.7 5.6-1.9 10.8-4.7 24.1-3.5 29.8 2.5 1.3 1.4 2.8 2.5 3.3 2.5.6 0 .8-3.7.5-9-.2-5 0-8.4.4-7.7 1.1 1.5-.1-4.1-1.3-6.5-.5-.9-.6-2.4-.2-3.4.5-1.3.3-1.5-.8-1-.8.4-.6.1.4-.7 1.8-1.5 2.3-5.7.8-7.3-.5-.5-1.2-2-1.6-3.4-.7-2.3-.7-2.4 1-1s1.8 1.3 1.2-1c-.3-1.4-.9-4.2-1.3-6.3-.3-2.1-1.3-4.1-2-4.4-.8-.3-1.4-1.2-1.4-2s-.4-1.2-.8-.9c-.5.3-.9-.1-.9-.9 0-1.9.6-1.9 2.9.2 1.7 1.5 1.8 1.5 1.8-.2 0-1.9-3.7-5.8-6.4-6.8-.9-.4-1.6-1.7-1.6-2.9 0-1.3-.9-3.4-2-4.8-2-2.6-2.5-4.1-1.2-3.9 1.9.3 2.3-.2 1.3-1.5-1.4-1.7-2.1-4.5-2.5-10.3-.1-2.4-1-5.1-1.8-6-.9-1-1.9-4.4-2.3-7.6-.4-3.1-1.1-6-1.6-6.2-.4-.3-.6-1.2-.3-1.9s-.2-1.6-1.1-2c-.9-.3-1.3-1.1-1-1.6.4-.6-.1-2.2-.9-3.5-.9-1.4-1.2-2.5-.7-2.5s.3-1.4-.5-3c-.9-1.7-2.1-3-2.7-3-.7 0-1.8-.9-2.5-2-.7-1.2-1.7-1.8-2.2-1.5s-2.4-1-4.1-3c-1.8-2-4.9-4.5-7.1-5.6-3.5-1.8-4.2-2.8-3.9-5.4 0-.6-1.6-1.7-3.7-2.4-2-.8-4.8-2.2-6.2-3.3-2.4-1.9-2.4-1.9-3.1 0-1.4 3.6-2.8 3.3-3.9-.8-.8-2.9-1.6-4-3-4-1 0-3.1-.5-4.7-1.2-3-1.3-3.9-1.4-9.1-1.7-2.4-.1-3.2-.5-3-1.7.2-.9-.4-2.1-1.4-2.7-2.1-1.4-9.7.9-11.6 3.5-.7 1-2.3 1.8-3.5 1.8s-3.5.7-5.1 1.5c-3.2 1.7-5 1.9-4.1.6.6-1.1-3.5-1-5 .1-5.4 4.1-7.4 6.1-7 6.8.3.4-.1.7-.8.7-2.4-.1-7.7 1.6-7.7 2.4 0 1.2-2.7 1.1-3.5-.1-.7-1.2 5.5-7.2 9.7-9.5 3.2-1.8 2.8-4.2-.8-5.1-1.3-.3-2.4-1-2.4-1.5s-.7-.9-1.5-.9c-2 0-1.5-1.8 1.3-5 1.2-1.3 2.2-2.8 2.2-3.2 0-1.3-3.8-.9-4.3.4q-.6 1.5-.6 0c-.1-1.8-1.9-1.5-2.4.5-.4 1.4-.5 1.3-.6-.4-.1-2.6-2-4-3.1-2.3-.8 1.3-10.4 2.5-12 1.5-1.2-.8-.2-3.3 1.3-3.2.7 0 2.7-.1 4.6-.1 2.9-.2 3.2-.4 2-1.8-.7-.9-2.2-1.4-3.6-1.1-2 .4-2.1.2-1.1-1.1 1.1-1.3 1-1.5-.3-1-1.1.4-2.5-.3-3.9-1.9-1.7-1.9-2.4-2.2-3-1.3-.5.8-.2 2 .8 2.9 1.4 1.5 1.4 1.6-.1 1.9-.9.2-1.4.9-1 1.8.3.8-.1 1.4-.8 1.4-1.1 0-1.1.3.1 1 1.4.9.7 1.2-1.6.9-.4 0-1 .5-1.4 1.2-.5.6-1.5.9-2.4.6-1.2-.5-1.4-1.2-.7-3 .9-2.3 5-9 7.1-11.5.8-.9.4-1.2-1.6-1.2-1.8 0-2.5.4-2.1 1.4m-4.3 11c0 .2-.7.7-1.6 1-.8.3-1.2.2-.9-.4.6-1 2.5-1.4 2.5-.6m10.2 2.3c-.3 1.6-.7 2.2-1 1.5-.4-1.3.4-4.2 1.1-4.2.2 0 .2 1.2-.1 2.7m-3.5 4c-.4.3-.7 0-.7-.7s.3-1 .7-.7c.3.4.3 1 0 1.4m10.3-.7c0 .5-.4 1-1 1-.5 0-1-.5-1-1 0-.6.5-1 1-1 .6 0 1 .4 1 1m10.6 5.6c.3 1.9.4 3.7.1 4-.9.9-3.9-6.4-3.2-7.6 1-1.7 2.4-.2 3.1 3.6m-12.2-2c.9.8 2.1 1.2 2.7.8.8-.4.9-.3.5.4s-2.2 1.2-4 1.2c-2.2 0-3.9.8-5.5 2.6-2.6 3-3.8 2.6-2.1-.8 3-5.7 5.6-7 8.4-4.2m7.2 1.1c-1 1-1.9-.5-1-1.8.6-1.1.8-1.1 1.2 0 .2.7.1 1.5-.2 1.8m-15.9 0c-.4.3-.7 0-.7-.7s.3-1 .7-.7c.3.4.3 1 0 1.4m26.8 5.3c1.4 1.5 1.5 2 .4 2-.8 0-2-.9-2.7-2s-.8-2-.4-2c.5 0 1.7.9 2.7 2m-30.5 1.8c-.1.9-.9 2.7-1.9 3.9-3.4 4.1-4.2 2.3-1.5-3.3 1.6-3.4 3.4-3.7 3.4-.6m-10 1.8c0 2.3-2 5.5-3 4.9-.6-.4-.7.6-.4 2.3.6 3.2-.4 4.6-2.5 3.3-1-.7-1-1.7 0-5.2.7-2.4 1.7-5 2.2-5.7 1.3-1.7 3.7-1.5 3.7.4m-8 2.6c0 3.5-2 9.8-3.1 9.8-1.9 0-2.1-3-.4-7.5 1.9-4.8 3.5-5.9 3.5-2.3m23 .7c0 .5-.7 1.1-1.5 1.5-.9.3-1.5 0-1.5-.9 0-.8.7-1.5 1.5-1.5s1.5.4 1.5.9m-30 9.6c-1 2.7-1.1 2.7-2.3.9-.7-1-1.8-3.2-2.5-4.8-1.2-2.8-1.2-2.8 1.3-2.4 1.4.3 2.9 0 3.3-.6 1.2-1.9 1.4 3.8.2 6.9m-68-5.5c0 .5-.2 1-.4 1-.3 0-.8-.5-1.1-1-.3-.6-.1-1 .4-1 .6 0 1.1.4 1.1 1m7.7-.3c-.4.3-1 .3-1.4 0-.3-.4 0-.7.7-.7s1 .3.7.7m76.6 5c.2.5-.3 2.5-1.3 4.6l-1.7 3.7-1.1-2.5c-1.5-3.2-1.6-5.8-.2-5 .6.3 1 .1 1-.4 0-1.2 2.7-1.5 3.3-.4m-53.8 6.3c1.6 1.7 1.6 2 .3 1.5a4.5 4.5 0 0 1-2.2-2.1c-.7-1.9-.2-1.8 1.9.6m28-1.1c.3.5.1 1.2-.5 1.6-.5.3-1-.1-1-.9 0-1.8.6-2.1 1.5-.7m-54 2.1c.3.5.2 1-.4 1-.5 0-1.3-.5-1.6-1-.3-.6-.2-1 .4-1 .5 0 1.3.4 1.6 1m68.9 1.6c.4.9.4 1.9.1 2.2s-.5-.1-.5-.9c0-1.2-.2-1.1-1 .1-.7 1.2-.9 1-.7-.8.2-2.6 1.2-2.9 2.1-.6m-48 .3c.4.5-.1.8-.9.7-2.1-.3-3.1-1.6-1.2-1.6.9 0 1.8.4 2.1.9m38.1 2.1c.7 2.1-1 6-2.5 6-.6 0-1-1.8-1-4 0-4.3 2.3-5.7 3.5-2m-31.5 1.5c0 1.2-1.9 1.2-2.3 0-.4-.9-.1-1.2.9-.8.7.3 1.4.7 1.4.8m5 1.7c0 1.2-1 .9-2.6-.6-2-2.1-1.7-2.8.6-1.4 1.1.7 2 1.6 2 2m-28.3-.7c0 .8-.4 1.2-.9.9s-.6-1-.3-1.5c.9-1.3 1.2-1.1 1.2.6m9.3 1.5c1.2.8 1.1 1-.7 1-1.3 0-2.3-.5-2.3-1 0-1.3 1.1-1.3 3 0m10.5 1c.3.5.1 1-.4 1-.6 0-1.1-.5-1.1-1 0-.6.2-1 .4-1 .3 0 .8.4 1.1 1m24.2 2.7c-.4.3-1 .3-1.4 0-.3-.4 0-.7.7-.7s1 .3.7.7m-38.8 2c.9 1 .9 1.3-.2 1.3-.7 0-2.1-.6-3.1-1.3-1.6-1.2-1.6-1.3.2-1.3 1 0 2.4.6 3.1 1.3m7.6.3c.3.6-.1.7-.9.4-1.8-.7-2.1-1.4-.7-1.4.6 0 1.3.4 1.6 1m3.9 2.6c.5 1.4.4 1.5-.9.4-1.7-1.4-1.9-2-.6-2 .5 0 1.2.7 1.5 1.6m182.3 27.1c-.4.3-.7 0-.7-.7s.3-1 .7-.7c.3.4.3 1 0 1.4m9 10c-.4.3-.7 0-.7-.7s.3-1 .7-.7c.3.4.3 1 0 1.4m-74.9 9.4c5.3 5.7 6.1 7.7 6.1 14.9 0 7.1-1 9.3-5.3 11-8.5 3.2-17.6-13.8-13.1-24.6 3-7.3 6.2-7.7 12.3-1.3M360 312c0 .5-.5 1-1.1 1-.5 0-.7-.5-.4-1 .3-.6.8-1 1.1-1 .2 0 .4.4.4 1m2.5 0c.3.5.4 1 .1 1s-.8-.5-1.1-1c-.3-.6-.4-1-.1-1s.8.4 1.1 1m-193.8 2.7c-.4.3-.7 0-.7-.7s.3-1 .7-.7c.3.4.3 1 0 1.4m87.7 4.2c.8 1.2-.3 4.1-1.5 4.1-.5 0-.9-1.1-.9-2.5 0-2.5 1.4-3.4 2.4-1.6m106.3.7c-.3.3-1.2.4-1.9.1-.8-.3-.5-.6.6-.6 1.1-.1 1.7.2 1.3.5m20 .1c-.4.3-1 .3-1.4 0-.3-.4 0-.7.7-.7s1 .3.7.7m-17.3 4.6c1.8 2.8-.5 3.8-3.3 1.6-2.1-1.7-2.2-2.2-1-3 1.8-1.1 3-.7 4.3 1.4m1.3 11.4c-.4.3-1 .3-1.4 0-.3-.4 0-.7.7-.7s1 .3.7.7m-219.2 6.6c1.1.5 3.9 2.5 6.2 4.4l4.1 3.4.1 9.9c0 5.6.5 10.9 1.2 12.1.6 1.2 1.2 4.4 1.2 7.1 0 2.6.4 4.8.9 4.8.4 0 .8.6.8 1.4s.6 1.6 1.4 1.9c.7.3 1.7 2.3 2 4.4.9 4.4 8.4 20.3 9.7 20.3.5 0 .9.6.9 1.4 0 .7.9 2.5 2 3.9 1.2 1.4 2.6 4 3.1 5.7 1 2.8.8 3.3-3 7.3-2.3 2.3-4.1 4.5-4.1 4.9 0 .5-.5.8-1.1.8s-4.5 1.6-8.7 3.6c-10 4.8-14 4.4-19.7-1.8-4.8-5.3-8.5-9.7-8.5-10.2 0-.2-1.9-3.5-4.2-7.2-8.5-14.1-14.2-29.4-16-43.6-1-7.6-1-9.7.6-16.4 1.6-6.5 2.5-8.5 6.2-12.4 2.4-2.6 5.9-5.2 7.7-5.7 4.3-1.3 14.7-1.4 17.2 0m14.3 11.5c.2.7-.3 1.2-1.2 1.2s-1.6-.7-1.6-1.6c0-1.7 2.2-1.4 2.8.4M54.3 370.4c-.8 1.2-1.4 3.3-1.5 5.6-.1 1.7-4.7 7.3-6.3 7.8-.5.1-1 1-1 1.9s-.6 1.8-1.2 2c-.7.3-1.3-.2-1.3-1.1 0-1.9-1.6-2.1-2.3-.4-.4 1-.6 1-.6.1-.1-.7.8-1.8 1.8-2.5 1-.6 1.7-1.7 1.4-2.5-.6-1.4 2.1-4.6 3.1-3.6.3.4.6.1.6-.5s.8-1.9 1.9-2.9c1-1 2.1-3.1 2.5-4.6.6-2.4.9-2.7 2.1-1.7.8.7 1.2 1.7.8 2.4m9.1-2.6c.3.5-.8.6-2.5.4-1.6-.2-2.9-.6-2.9-.8 0-.8 4.9-.4 5.4.4m-17.3 6.9c-.8 1.5-1 1.5-1.1.2 0-1.7 1-3.2 1.8-2.5.2.3-.1 1.3-.7 2.3m188.1 1c2.1 2.4 3.1 9.4 1.7 11.3-.8 1.2-.9.8-.5-1.5.3-1.7.3-2.4 0-1.8-.8 1.9-2.8 1.6-4.2-.7-.7-1.2-1.7-1.8-2.3-1.4-.8.4-.9-.1-.4-1.7.4-1.3.8-2.9.9-3.4.1-1 1.7-2.5 2.7-2.5.3 0 1.3.8 2.1 1.7m-5.2 7.6c1.1.5.9.6-.4.4-1.1-.1-2.1-.9-2.3-1.7-.3-1-.2-1.1.4-.4.4.6 1.5 1.4 2.3 1.7m61.1 1.2c4.6 4.1 9.3 4.7 12.7 1.5 2.5-2.4 3.6-1.2 2.7 2.9-1.5 7.1-9.3 9.5-16 5-3.5-2.4-7.5-8.4-7.5-11.3 0-2.7 4-1.8 8.1 1.9M86 386c0 .5-.4 1-1 1-.5 0-1-.5-1-1 0-.6.5-1 1-1 .6 0 1 .4 1 1m-43 4.7c0 2-2.4 1.1-2.8-1-.2-1.2.1-1.5 1.2-1.1.9.3 1.6 1.3 1.6 2.1m201.1 2.9c3.2 3.9-4.3 6.6-8 2.9-1.5-1.5-1.4-1.8.3-3.1 2.6-1.9 6-1.8 7.7.2m199.6.1c-.4.3-.7 0-.7-.7s.3-1 .7-.7c.3.4.3 1 0 1.4m-220 0c-.4.3-1 .3-1.4 0-.3-.4 0-.7.7-.7s1 .3.7.7m3.3 1.7c0 .3-.4.8-1 1.1-.5.3-1 .1-1-.4 0-.6.5-1.1 1-1.1.6 0 1 .2 1 .4m-10.3 5.2c-.3.3-1.2.4-1.9.1-.8-.3-.5-.6.6-.6 1.1-.1 1.7.2 1.3.5m230 2.1c-.4.3-.7 0-.7-.7s.3-1 .7-.7c.3.4.3 1 0 1.4m-230 1.5c-.3.8-.6.5-.6-.6-.1-1.1.2-1.7.5-1.3.3.3.4 1.2.1 1.9m11.8.8c.3.5-.1 1-.9 1-.9 0-1.6-.5-1.6-1 0-.6.4-1 .9-1 .6 0 1.3.4 1.6 1m193.2-.3c-.4.3-1 .3-1.4 0-.3-.4 0-.7.7-.7s1 .3.7.7m-203 2c-.4.3-.7 0-.7-.7s.3-1 .7-.7c.3.4.3 1 0 1.4m213.8 1.3c.3.6-.1.7-.9.4-1.8-.7-2.1-1.4-.7-1.4.6 0 1.3.4 1.6 1m18.2.7c-.4.3-.7 0-.7-.7s.3-1 .7-.7c.3.4.3 1 0 1.4m-232 1c-.4.3-.7 0-.7-.7s.3-1 .7-.7c.3.4.3 1 0 1.4m212 1c-.4.3-.7 0-.7-.7s.3-1 .7-.7c.3.4.3 1 0 1.4M91 413c0 .5-.4 1-1 1-.5 0-1-.5-1-1 0-.6.5-1 1-1 .6 0 1 .4 1 1m104.5 4.5c4.2 2 7.5 4.2 7.5 5s-1.1 2.2-2.4 3c-2 1.3-2.9 1.4-4.8.4-3.4-1.7-6.8-5-8.4-8.1-2.6-4.9-1.8-5 8.1-.3M94 418c0 .5-.4 1-.9 1-.6 0-1.3-.5-1.6-1-.3-.6.1-1 .9-1 .9 0 1.6.4 1.6 1m133.3 3c.6 2.2-4.3 8.7-12.3 16.5-2.2 2.2-5.5 5.4-7.2 7.2l-3.1 3.1-2.8-2c-2.2-1.7-2.5-2.4-1.6-3.4 10.2-11.7 14.1-15.8 19-19.7 6.1-4.9 7.1-5.1 8-1.7m216.2-1c.3.5.4 1 .1 1s-.8-.5-1.1-1c-.3-.6-.4-1-.1-1s.8.4 1.1 1M97 423.1c0 2.2-2.1 2.2-2.8-.1-.3-.7 0-1 .7-.6.6.4 1.1.2 1.1-.3 0-.6.2-1.1.5-1.1s.5.9.5 2.1m355-1.1c0 .5-.5 1-1.1 1-.5 0-.7-.5-.4-1 .3-.6.8-1 1.1-1 .2 0 .4.4.4 1m-351 8c1.2.8 1.1 1-.7 1-1.3 0-2.3-.5-2.3-1 0-1.3 1.1-1.3 3 0m2.5 4.8c0 1.8-2 1.5-2.3-.4-.3-1 .1-1.5 1-1.2.7.3 1.3 1 1.3 1.6m7.9 9.1c6.2 9.4 8.7 14.4 8.9 17.7.2 2.7 1.8 5.4 3.1 5.4.3 0 .2-.9-.2-2.1-1.3-3.4-.2-7.7 2.9-11s5.3-3.4 5.5-.3c.2 3.3 2.3 6.3 5.7 8.2 5.2 2.7 13.7 8.4 13.7 9.2 0 .3 1.4 2.2 3 4 3.5 3.9 3.7 5 1 5s-2.5 1.8.6 4.7c2.2 2.1 2.5 2.9 2 6.8-.4 2.8-.3 4.5.4 4.5.5 0 1 1.3 1 3s.9 3.9 2 5 2 2.4 2 2.9.9 1.1 2.1 1.4c1.1.3 2.3 1.5 2.6 2.6s.9 1.9 1.3 1.6c.5-.3 1.1-.1 1.5.5 2 3.2-11.9-2.8-21.4-9.2-5.7-4-18.1-16.3-18.1-18.1 0-.7-.8-2.2-1.8-3.3a13 13 0 0 1-2.5-3.4c-.3-.9-.6-.5-.6 1.1-.1 1.4.4 3 1.1 3.7.6.6.9 1.4.6 1.8-.8.8-4.9-3.3-7-7.1-1-1.6-3.4-6.5-5.4-10.7-2-4.3-4.1-7.5-4.5-7.2-.5.3-.9-.5-.9-1.7 0-1.7-.3-1.9-1.4-1-1.8 1.5-2.4-.1-3.3-9.2-.3-4-.8-6.6-1.1-5.9-.5 1.7-3.2 1.5-3.2-.3 0-1.9 4.1-6.6 5.2-5.9.4.3 2.8 3.6 5.2 7.3m-12.7-1.2c-.4.3-.7 0-.7-.7s.3-1 .7-.7c.3.4.3 1 0 1.4m3.7 8c-1.8 1.8-2.4 1.6-2.4-.7 0-1.7-.2-1.7-2.6.7-2.5 2.5-4.9 7.9-5.9 13.1-.7 4.3-1.6 3.7-1-.7.3-2.4 1.2-5.9 2.1-7.9.8-2 1.2-4.2 1-4.9-.8-2 .5-4.4 2.8-5.3 2.9-1.1 8 3.8 6 5.7M290 454c1.2.8 1.1 1-.7 1-1.2 0-2.5-.5-2.8-1-.8-1.3 1.5-1.3 3.5 0m36 18.4c0 2.4-3.3 7.2-7.5 10.9-2.8 2.4-14 7.7-16.5 7.7-3.4 0-2.3-1.6 4.9-6.8 3.8-2.8 9.2-7.1 12-9.6 5.9-5.2 7.1-5.6 7.1-2.2m149.7 15.3c-.4.3-.7 0-.7-.7s.3-1 .7-.7c.3.4.3 1 0 1.4M361 517.1c0 .5.5.7 1.1.4 1.4-.9 6.6 1.3 7.3 3.1.4 1-.2 1.2-2.7.7-1.8-.3-3.3-1-3.5-1.5-.2-.4-1-.8-1.7-.8s-1.5-.7-1.9-1.5c-.3-.8-.1-1.5.4-1.5.6 0 1 .5 1 1.1m17.1 9.9c1.3 1 2 1.9 1.6 2-1.1 0-6.7-2.9-6.7-3.5 0-1.2 3-.3 5.1 1.5m-78.8 6c7.6 3.6 13.8 9.9 18.5 18.8 2.3 4.4 4.2 9.1 4.2 10.4 0 1.2.7 3.6 1.6 5.3 4.7 8.8 5.2 38 .9 48-.7 1.6-1.6 4.7-2 6.7-1.6 8.8-18.3 36.7-21.9 36.8-.6 0-.5-.5.2-1.2s1.2-2 1.2-2.9c0-1 .4-1.9.9-2.1s.7-2.5.4-5.1c-.4-3.7-.9-4.7-2.2-4.5-.9.2-1.8 1.4-2 2.8-.1 1.4-.8 2.8-1.4 3.2-1.4.9-5.7-1.2-5.7-2.8 0-.7-.9-1.8-2-2.4-1.8-.9-2-.8-2 1.5 0 1.6-.6 2.5-1.5 2.5-.8 0-1.5-.7-1.5-1.6s-.9-2.7-2-4.1l-2-2.6v2.7c0 3-1.4 3.4-2.8.9-.7-1.1-.6-2.3.1-3.5.9-1.4.8-2.1-.6-3.5-1.7-1.7-1.9-1.7-3.1 0-1.1 1.4-1.5 1.5-2.5.4-.6-.8-.7-1.8-.3-2.2.4-.5.1-.5-.6 0-.8.4-1.2 1.7-.9 3.1.2 1.3 0 2.4-.4 2.4-.5 0-.9-.5-.9-1.2 0-.6-.3-.8-.7-.5-.3.4-1.2-.1-1.9-1.1-1.2-1.6-1.3-1.6-2 .2-.7 1.7-.8 1.7-2.5-.5-1-1.3-1.9-1.8-1.9-1.2 0 2.3-2 1.3-2-1 0-1.2-.4-2.8-.9-3.5-.6-1-1-.9-1.4.7-.7 2.9-1.8 2.6-4.2-.9-1.3-2-2.6-2.8-3.7-2.4-1.2.3-2.1-.5-3.3-3-1.4-2.9-2-3.4-3.5-2.6-2.3 1.2-5-1.6-5.9-6.2-.5-2.4-1.2-3.3-2.7-3.1-2.1.2-3.4-1.3-3.4-4.1 0-2.3-4-6.1-7.3-7-2.9-.7-5.4 1.2-6.3 5-.6 2.3-2.4 3.4-2.4 1.4 0-2.2-1.6-.8-3 2.7l-1.6 3.7-2.1-2.1c-1.2-1.2-2.7-4-3.3-6.1-.5-2.2-1.7-4.2-2.5-4.5-1-.5-1.2-1.3-.5-3.6.4-1.6 1.1-6.1 1.5-9.8s1.3-9.1 2-11.8c1.9-7.4 8.3-19.9 12.1-23.6l3.4-3.3v2.6c0 1.5-.5 3-1.2 3.4-.7.5-.5 1.1.8 2.1 1.1.8 1.5 1.7.9 2.1-1.3.9-5.5 9.5-5.5 11.2 0 .8.8 1 2.3.7l4.5-1.1c2.8-.6 6.7-4.6 7.7-7.8.7-2.1.8-2.1 2.1-.3 1 1.3 1.4 1.4 1.4.5 0-1.1.3-1.1 1.2-.2 1.5 1.5 4.8 1.6 4.8.2 0-.6.5-1 1.1-1s2.2-1.4 3.7-3.2c2.6-3 2.7-3.1 3.2-.9.5 2.1.8 1.9 6-2.8 3-2.7 5.8-4.7 6.2-4.5.4.3.8.1.8-.3 0-1.2 11.8-10.8 20.5-16.7 6.1-4.2 7.5-4.7 11-4.3 2.2.2 6.2 1.4 8.8 2.7m85.6 14.1c3.6 7.1 2.5 8.5-2 2.7-1.8-2.4-4.1-5.1-5.1-6.1s-2.5-3.2-3.4-4.9c-1.3-2.5-1.4-3.2-.2-3.9 1.8-1.2 6.7 4.4 10.7 12.2m-182.1 5.7c1.6 1 1.1 5.5-1.2 10.9-2.5 5.9-4.9 5.9-2.7 0 .6-1.4.7-2.7.5-3-1.3-1.3-6.6 1.9-10.9 6.4-2.5 2.7-5 4.9-5.4 4.9-.5 0-1.2 1.1-1.5 2.5-.4 1.4-1.1 2.5-1.6 2.5-1.5 0-10 11.9-10 14 0 .9-1.1 2.5-2.5 3.6-1.8 1.3-2.1 2.1-1.3 3.1.7.8.7 1.3 0 1.3-1.2 0-3.9 4.1-4.4 6.6-.3 2.2-.6 2.6-4.6 7.3l-2.9 3.5 5.6 3.3c3.1 1.9 6.9 4.8 8.4 6.6 7.3 8.3 12 24.5 9.1 31.5-1.3 3.2-3.4 3.6-3.4.8 0-1.3-2.5-6.4-10.4-21.1-2-3.9-5.8-9.1-8.4-11.8-4-4.1-4.5-5-3.5-6.6 1.1-1.7.9-1.8-2.3-1.4-1.9.3-3.4.1-3.4-.4 0-3.2 17.5-28 26.6-37.8 16.7-17.8 23-24.2 25.3-25.7 3-2 3.1-2.1 4.9-1m-3.6 19.2c-.2 1.7-.9 3.3-1.5 3.7-.7.4-.8 0-.4-1.1.4-1 .7-2.6.7-3.7 0-1 .4-1.9.8-1.9.5 0 .7 1.4.4 3m135.5 5.7c-.4.3-1 .3-1.4 0-.3-.4 0-.7.7-.7s1 .3.7.7m-137 3.3c.1 1.1-.2 2-.8 2-.5 0-.9-.9-.9-2s.4-2 .8-2 .8.9.9 2m-.2 6c.3.5.4 1 .1 1s-.8-.5-1.1-1c-.3-.6-.4-1-.1-1s.8.4 1.1 1m246 .9c.3 1.1 2.2 3.6 4.3 5.5 2.6 2.6 3.2 3.6 2 3.6-1.1 0-1.5.5-1.2 1.4.3.8 0 1.7-.7 2.2-.8.4-1 .3-.5-.4.4-.7.2-1.2-.3-1.2-.6 0-1.1.5-1.1 1.1 0 .5-.4.7-1 .4-.5-.3-1-2.6-1-5.1 0-2.4-.4-4.4-1-4.4-.5 0-1-.8-1.1-1.8 0-1-.3-1.2-.6-.4-.6 1.5-2.3.6-2.3-1.4 0-2.1 3.8-1.7 4.5.5M196 609.3c0 6.9-1.7 9.3-9.7 13.4-4 2-7.5 3.4-7.8 3.1-.9-.8 14.6-20.8 16.1-20.8 1 0 1.4 1.3 1.4 4.3m-88.5-1.3c.3.5.1 1-.4 1-.6 0-1.1-.5-1.1-1 0-.6.2-1 .4-1 .3 0 .8.4 1.1 1M344 631.1c0 2.7-1.7 3.2-2.4.6-1.1-4-.8-5.1.9-3.7.8.7 1.5 2.1 1.5 3.1m-1.3 5.6c-.4.3-.7 0-.7-.7s.3-1 .7-.7c.3.4.3 1 0 1.4m174.3 4.8c0 .5-.5.3-1-.5-.9-1.3-1-1.3-1 0s-.1 1.3-1 0c-.6-.9-.5-1.7.3-2.2 1.1-.7 2.7.8 2.7 2.7m-150.8-.3c-.7.7-1.2.8-1.2.2s.3-1.4.7-1.7c.3-.4.9-.5 1.2-.2.2.3-.1 1.1-.7 1.7m4.8.7c0 1.2-2 2.5-2.7 1.8s.6-2.7 1.8-2.7c.5 0 .9.4.9.9m-88.9 9.4c-.8.8-1.1.7-1.1-.4 0-2 1.3-3.4 1.8-1.9.3.7-.1 1.7-.7 2.3m234.6 2.4c-.4.3-1 .3-1.4 0-.3-.4 0-.7.7-.7s1 .3.7.7m-3 58c-.4.3-.7 0-.7-.7s.3-1 .7-.7c.3.4.3 1 0 1.4m-160 27c-.4.3-.7 0-.7-.7s.3-1 .7-.7c.3.4.3 1 0 1.4m-7 1c-.4.3-.7 0-.7-.7s.3-1 .7-.7c.3.4.3 1 0 1.4m64.7 11.9c2.4 2.4 2 6.7-1 9.3-1.4 1.2-2.7 2.1-2.9 1.9-2.2-2.7-3.1-8-1.9-11.2.8-2 3.8-2.1 5.8 0m.6 20.7c0 1.8-.2 1.9-1 .7-1.3-2-1.3-4.3 0-3.5.6.3 1 1.6 1 2.8m-189.9 46.4c-1.2 2-1.4 1.4-.5-1.2.4-.9.9-1.4 1.1-1.1.3.2 0 1.3-.6 2.3m211.4 50.4c1.1 1.7 0 2-2.1.4-1.7-1.3-1.7-1.4-.2-1.5.9 0 2 .5 2.3 1.1m-11.6 1.9c7.6 2.1 16.5 6.2 17.6 8.1.4.6 1.5 1.3 2.5 1.7 2 .8 13.3 11.4 16.8 15.8 4.2 5.3 10 18.8 11.7 27.2 1 4.6 1.5 8.6 1.2 8.9s-1.7-1.7-3-4.4c-3.4-6.5-12.7-16.1-21.3-21.6-13.7-8.9-28.6-11.7-40.8-7.8-9 2.9-13.6 5.9-23.3 15.4-8 7.8-8.4 8-10.9 6.7-3.3-1.8-12.4-11.7-12.4-13.6 0-.7-.4-1.4-.9-1.4-2.8 0 5.5-16.2 9.2-18.1 1.2-.7 4.2-3 6.7-5.2 6.4-5.6 12.3-8.8 20.9-11.4 9.5-2.8 16.6-2.9 26-.3M86 876c-1.9 1.3-3 1.3-3 0 0-.6 1-1 2.3-1 1.8 0 1.9.2.7 1m92.9 2.1c3 .4 7.5 1.5 10 2.3 2.5.7 6.5 1.9 8.8 2.5 13.4 3.6 29.8 21.9 33.7 37.7 1.7 6.9 2.3 15.7 1.2 19.2-.4 1.1-1.8 2.2-3.4 2.5-1.5.3-4.5 1-6.7 1.6-6.3 1.7-33.4 6.9-39.8 7.6-6.8.8-7.9.1-10.9-6.4-3.2-7.2-13.7-26-18.1-32.3-3.7-5.5-14.1-15.8-15.9-15.8-.5 0-2-.7-3.4-1.6-3.4-2.3-2-3.7 7.9-7.4 4.5-1.7 11.6-4.6 15.7-6.4s8.6-3.8 10-4.4 3.2-.8 4-.6c.8.3 3.9 1 6.9 1.5m-50.5 14.5c.9.3 1.6 1.2 1.6 1.9 0 1.3-1.8 2-19 8-4.1 1.4-10.4 3.7-14 5.1-3.6 1.5-7.4 3-8.5 3.4-6.3 2.5-10.4 4.5-13.4 6.8-2.7 2-4.7 2.5-10.7 2.8-4.1.2-10.3.8-13.7 1.4-9.1 1.4-41.1 1.4-43.8-.1-2.1-1.1-2.1-1.2-.4-2.2 1-.5 10-1.3 19.9-1.6 10.6-.4 19-1.2 20.2-1.9 1.2-.6 5.9-1.4 10.5-1.7 18.2-1.2 20.2-1.5 23.2-3.2 5.3-3.1 4.2-3.8-6.6-4.1-12.9-.3-18.9-1-20.1-2.2-1.3-1.3 9.3-1.4 30.4-.5 5.1.2 8.4-.4 15.5-2.8 5-1.7 9.4-3.4 10-3.9.5-.4-1.5-.8-4.5-.8-9.5 0-28.4-1.2-32-1.9-2.8-.6-1.6-.9 6-1.5 5.2-.3 11.3-.5 13.5-.2 13.5 1.4 27.2 1.5 30.5.2 1.9-.7 3.6-1.4 3.7-1.5.1 0 .8.2 1.7.5m301.2 33.9c2.2 3.4.7 8-2.7 8-2.1 0-2.4-.5-2.7-4.4-.2-2.8.1-4.7 1-5.2 2-1.3 2.6-1.1 4.4 1.6m-266.3 67.2c-.7.2-1.9.2-2.5 0-.7-.3-.2-.5 1.2-.5s1.9.2 1.3.5m21.4 1c-.4.3-.7 0-.7-.7s.3-1 .7-.7c.3.4.3 1 0 1.4m7.3 1.9c0 .8-.5 1.2-1 .9-.6-.4-.8-1.1-.5-1.6.9-1.4 1.5-1.1 1.5.7m8.4-.7c.4.5-.3.7-1.4.4-2.3-.6-2.6-1.3-.6-1.3.8 0 1.7.4 2 .9"/><path d="M123 472c0 .7.3 1 .7.7.3-.4.3-1 0-1.4-.4-.3-.7 0-.7.7m1.3 3.7c.4.3 1 .3 1.4 0 .3-.4 0-.7-.7-.7s-1 .3-.7.7M447 595c0 .7.3 1 .7.7.3-.4.3-1 0-1.4-.4-.3-.7 0-.7.7M211 204.2c0 1.2.1 1.9.3 1.7.1-.2.9-1.2 1.6-2.2 1.2-1.4 1.1-1.7-.3-1.7-1 0-1.6.8-1.6 2.2m33.8-1.5c.7.3 1.6.2 1.9-.1.4-.3-.2-.6-1.3-.5-1.1 0-1.4.3-.6.6M196 204c0 .7.3 1 .7.7.3-.4.3-1 0-1.4-.4-.3-.7 0-.7.7m51 .5c-1.4 1.6-1 1.8 1.4.9.9-.3 1.6-1 1.6-1.5 0-1.4-1.6-1.1-3 .6m-44 .9c0 .8.5 1.8 1 2.1.6.3 1-.3 1-1.4 0-1.2-.4-2.1-1-2.1-.5 0-1 .6-1 1.4m3-.4c0 .5.7 1 1.5 1s1.5-.5 1.5-1c0-.6-.7-1-1.5-1s-1.5.4-1.5 1m-16 2.4c0 2.2 1.1 4.6 2.1 4.6.5 0 .9-1.4.9-3q0-3-1.5-3c-.8 0-1.5.6-1.5 1.4m-40.4 2.1c-.3.8-.1 1.5.4 1.5.6 0 1-.7 1-1.5s-.2-1.5-.4-1.5-.6.7-1 1.5M257 209c0 .5.5 1 1 1 .6 0 1-.5 1-1 0-.6-.4-1-1-1a1 1 0 0 0-1 1m-87 2.4c0 .8.5 1.8 1 2.1.6.3 1-.3 1-1.4 0-1.2-.4-2.1-1-2.1-.5 0-1 .6-1 1.4m5.2 1.6c0 1.4.2 1.9.5 1.2.2-.6.2-1.8 0-2.5-.3-.6-.5-.1-.5 1.3m-16.9 1.9c.2 2.6.4 2.8 1.6 1.6s1.2-1.6-.2-3c-1.5-1.4-1.6-1.3-1.4 1.4M179 213c0 .7.3 1 .7.7.3-.4.3-1 0-1.4-.4-.3-.7 0-.7.7m-12.9 1.6c0 1.1.3 1.4.6.6.3-.7.2-1.6-.1-1.9-.3-.4-.6.2-.5 1.3m126.2-.9c.4.3 1 .3 1.4 0 .3-.4 0-.7-.7-.7s-1 .3-.7.7m-141.4 1c-.1.5-.1 1.1 0 1.5 0 .5-.7.8-1.8.8-1.7 0-4.9 2.6-4 3.4.2.2 2 .6 4 .9l3.7.5v-3.9c.1-2.1-.3-3.9-.9-3.9-.5 0-1 .3-1 .7m133.4 1c.4.3 1 .3 1.4 0 .3-.4 0-.7-.7-.7s-1 .3-.7.7m-100 1c.4.6.8 3 .9 5.3.1 2.8.5 3.9 1.4 3.6.7-.3 1.5 0 1.7.7.3.7.8-.1 1.2-1.7.9-3.3 0-5.2-3.5-7.5-1.3-.9-2.1-1.1-1.7-.4M280 218c0 .5.5 1 1 1 .6 0 1-.5 1-1 0-.6-.4-1-1-1a1 1 0 0 0-1 1m9.3-.3c.4.3 1 .3 1.4 0 .3-.4 0-.7-.7-.7s-1 .3-.7.7m-118.7 2c-.5 1.1-.1 2.2 1 3 2.2 1.6 2.8 1 2-2.2-.7-2.9-2.1-3.3-3-.8m101.4.7c0 1 1 1.3 3.8.9l3.7-.4-4.4 2.1c-2.3 1.1-4.7 1.7-5.2 1.4-1.7-1-.9.5 1.3 2.6 2.3 2.1 5.4 2.8 4.2.8-.4-.6-.3-.8.3-.5.5.3 3.4-.6 6.4-2.2 3-1.5 5.9-2.9 6.4-3 3-.7 1.4-1.3-2.3-.8-2.3.3-4 .2-3.7-.3.6-1-3-2-7.2-2-2.2 0-3.3.5-3.3 1.4m3 4.6c-.8.5-1.9 1-2.5 1-.5 0-.3-.5.5-1s2-1 2.5-1c.6 0 .3.5-.5 1m-113.9-2.7c-1.2 1.5-.5 2.7 1.6 2.7.7 0 1.3-.9 1.3-2 0-2.3-1.3-2.6-2.9-.7m14.5 2.2c-.7 1.9.3 4.7 1.5 3.9.5-.3.9-1.4.9-2.4 0-2.4-1.6-3.4-2.4-1.5m6.4-.3c0 .9.5 2 1 2.3 1.3.8 1.3-.5 0-2.5-.8-1.3-1-1.3-1 .2m-26.6.9c-.3.5.6.9 2 .9 3.1 0 3.4-.6.6-1.3-1.1-.3-2.3-.1-2.6.4m4.6 3.4c.7.8 1.7 1.5 2.2 1.5.6 0 .5-.7-.2-1.5s-1.7-1.5-2.2-1.5c-.6 0-.5.7.2 1.5m-7.8 2.4c-1.7 1 .6 2.1 4.5 2.1 2.1 0 2.4-.2 1.3-1.5-1.4-1.7-3.8-1.9-5.8-.6M186 234c-.1 1.4-.2 4.1-.2 6s-.4 3.7-.9 4.1c-.6.3-.3 1.2.6 1.9 1.5 1.3 1.7 1 1.5-2-.2-1.9.1-4.3.5-5.2.4-1 .2-3-.3-4.5l-1-2.8zm-6.3.7c-1.3 1.2-.7 4 1.2 5.7 1.7 1.5 1.9 1.5 2.5.1 1.1-2.8.7-5.3-1-5.9-1.9-.7-1.9-.7-2.7.1m-19.4 16c.4.3 1 .3 1.4 0 .3-.4 0-.7-.7-.7s-1 .3-.7.7m256.7.3c-.9.6-1 1-.3 1 .6 0 1.5-.5 1.8-1 .8-1.2.4-1.2-1.5 0m3 4.5c.7.8 1.7 1.5 2.2 1.5s.3-.7-.6-1.5c-.8-.8-1.8-1.5-2.2-1.5-.3 0-.1.7.6 1.5m-4.9 5.8c2.1 2 6.9 1.7 6.9-.4 0-.6-.9-.8-2-.4-1.1.3-2 .3-2-.2 0-.4-1.1-.8-2.4-.8-2.4 0-2.4 0-.5 1.8m10.2.4c-2.1.7-1.5 2 1.2 2.7 1.4.4 2.5 1.3 2.5 2.1 0 1.8-1.3 1.8-6.5 0-4.9-1.8-6.6-1.9-6.2-.3.3 1.9 2 2.8 4 2.2.9-.3 1.7-.1 1.7.4s1.5 1 3.3 1c1.7.1 4.1.4 5.2.6 1.1.3 2.6.5 3.3.5.7.1 1 .6.6 1.3-.4.6-.3.8.4.5.7-.5.7-1.6-.1-3.7-1.2-3.1-2.7-4-2.7-1.8-.1.7-.7-.1-1.4-1.8-1.4-3.2-3.2-4.4-5.3-3.7m12.7 1.1c0 .5.7 1.3 1.6 1.6 1 .4 1.4.1 1.2-.6-.5-1.5-2.8-2.3-2.8-1m-26 1.6c0 .2.7.6 1.5 1 .8.3 1.5.1 1.5-.4 0-.6-.7-1-1.5-1s-1.5.2-1.5.4m27.5 3.6c.3.5.8 1 1.1 1s.2-.5-.1-1c-.3-.6-.8-1-1.1-1s-.2.4.1 1m-26.5 1.1c-1 .7-1.1 1.2-.4 1.5 1.3.5.7 4.1-.8 6.1-1.3 1.6 1.5 6.2 8.5 13.6 2.9 3.2 6.9 8.3 8.8 11.3 2.2 3.6 3.9 5.3 4.9 5 8.1-2.6 9-3.2 9.6-5.9.3-1.6 1.2-3.1 2-3.4 2.3-.9 1.6-4.6-2.2-10.9-4.4-7.3-8.2-11.4-10.6-11.4-1 0-2.8-.9-4-2-1.4-1.3-3.6-2-6-2-2.1 0-4.9-.7-6.1-1.5-1.6-1-2.6-1.1-3.7-.4m13.7 5.6c-.4.3-1 .3-1.4 0-.3-.4 0-.7.7-.7s1 .3.7.7M425 277c0 .5-.7.7-1.5.4-.8-.4-1.5-.8-1.5-1s.7-.4 1.5-.4 1.5.4 1.5 1m4.4 2.8c.3.5-.1.9-.9.9s-1.2-.4-.9-.9c.3-.4.7-.8.9-.8s.6.4.9.8m6.6-5.8c0 1.1 10.1 11 11.2 11 .9 0-1.3-5.2-2.5-6.1-.5-.3-.8-.8-.7-1 .4-1.1-1.3-3.8-2.1-3.3-.5.3-.9 0-.9-.5 0-.6-1.1-1.1-2.5-1.1s-2.5.4-2.5 1m78.6 31.9c-.7 1.1 2.2 2.3 3.5 1.5.5-.3.7-1 .4-1.5-.8-1.2-3.2-1.2-3.9 0M483 307c0 .5.9 1 1.9 1 1.1 0 2.3-.5 2.6-1 .4-.6-.5-1-1.9-1s-2.6.4-2.6 1m14.4.1c-.3.6-.1 1.5.6 1.9 1.6 1 5.2-.2 5.8-1.8.5-1.5-5.4-1.6-6.4-.1m31.8 1.1c.5 1.5 4.8 1.8 4.8.3 0-.6-1.1-1.1-2.6-1.3-1.8-.3-2.5 0-2.2 1m-46.2 4.2c0 .8.4 1.7.8 2 1.3.8 3.5-1.1 2.8-2.3-1-1.6-3.6-1.4-3.6.3m-23.1 1.9c-1.9 1.3-4.2 2.6-5.1 3-2.1.7-2.4 2.7-.5 2.7 3.2 0 5.7-1.4 5.7-3 0-1 .9-2.2 2-2.5s2-1.1 2-1.6c0-1.3-.3-1.2-4.1 1.4m10.3-1.1c.7 1.9 3.8 2.2 3.8.4 0-1-.9-1.6-2.1-1.6s-1.9.5-1.7 1.2m49.8 1.3c0 1.6.9 1.9 3.4.9 2-.8 1.1-2.4-1.5-2.4-1 0-1.9.7-1.9 1.5"/><path d="M530.3 316.7c0 1.5-.6 2.9-1.2 3.1-.5.2-.7 1-.4 1.8.3.9 1.3 1.2 2.3.9 1.1-.3 2 0 2.3 1 .5 1 0 1.5-1.6 1.5-1.2 0-3.3.1-4.7.1s-3.6 0-5-.1c-1.4 0-4.7.1-7.5.4-2.7.3-5.5 0-6.2-.5-1.3-1.2-5.6-.2-4.8 1 .4.7-1.1 1.6-5.7 3.9-.5.2-.8-.4-.8-1.3 0-1.1.5-1.5 1.4-1.2 1.6.6 3.6-1.1 3.6-3 0-.7-.4-1.3-1-1.3-.5 0-.7.7-.4 1.5.4.8.1 1.5-.6 1.5s-1-.8-.7-2c.5-2.1-.8-3.7-1.8-2.1-.3.6-1.2.8-1.9.5-.8-.3-1.7-.1-2.1.5-.3.6-1.6 1.1-2.8 1.1-1.6 0-1.8.3-.9 1.2 2.2 2.2 1.3 3.4-2.5 3.2-2.1-.1-4.4.3-5 .9-.7.5-1.3.6-1.3.1s-.4-.3-.9.5c-.5.7-1.4 1-2 .7-1.8-1.1-1.3-2.6 1-2.6 1.1 0 1.8-.4 1.5-.9-.4-.5.4-.7 1.6-.4 1.7.3 1.9.2.9-.5-.7-.5-1.1-1.5-.7-2.1.5-.7-.3-.9-2.5-.4-2.8.5-3.1.4-2.5-1.5.5-1.5 0-2.5-1.6-3.6-2.8-2-4.2-2-3.5-.2.3.7 0 1.9-.6 2.5-.8.8-.7 1.1.6 1.1.9 0 1.7.4 1.7.8 0 .5 1 1.4 2.3 2 1.8.9 1.9 1.1.4 1.1-1 .1-2.5-.6-3.4-1.5-1.4-1.4-1.7-1.3-3.2.8s-5.8 3.7-4.5 1.7c.3-.5 1.2-.9 2-.9s1.4-.4 1.4-.9.3-1.6.6-2.5c.4-1.1.1-1.6-1.1-1.6-.9 0-1.3-.5-.9-1.1.3-.6-.8-.3-2.5.6-1.8.9-4.5 1.4-6.1 1.1-2.2-.3-3.1 0-3.5 1.5-.4 1-1.1 1.9-1.6 1.9-2 0-2.4-.2-2.1-1.2.1-.5-.6-.8-1.5-.6-1 .1-1.9-.1-2-.5-.7-1.9-.1-2.5 2-2.1 1.7.3 1.6.2-.5-.7-2.1-.8-3.2-.7-5.2.7-3.2 2-3.3 3.5-.1 8.2 1.4 2 2.5 4.2 2.5 4.9 0 1.4 3.8 10 11.1 24.9 2.7 5.5 4.9 10.8 4.9 11.7s1.1 4 2.3 7c1.3 2.9 3 7.7 3.6 10.7 2.1 8.9 5.4 19 6.4 19 .4 0 .6.4.3.9s.5 4.7 1.8 9.2c3.6 12.8 3.9 14.3 3.7 16.3-.2 1.2.1 1.6 1 1.1.8-.5 1-.4.5.3-.4.6.3 6.5 1.4 13.1 4.8 28.5 3.5 74.1-3 96-.5 1.9-.7 3.7-.4 4 .2.3 3.5.6 7.2.7 8.2.2 21.9 2.2 24.3 3.4 1 .6 2.6 1 3.5 1 2.6 0 16.1 6.8 21.4 10.8 4 3.1 12.6 11 17.2 15.9.9 1 2 3.1 2.3 4.6.7 2.6 2.5 3.8 2.5 1.7 0-2.2 1.8-.8 3.1 2.2.7 1.8 1.4 3.5 1.5 3.7.7.8 3.4-2.2 3.4-3.7 0-.8.7-2 1.5-2.6s1.7-3.7 2.1-7.1c.4-3.9 1.3-6.6 2.5-7.8 2.2-2 2.4-3.8.8-5.4-.8-.8-.9-2.7-.4-6 .5-2.6.7-5.7.5-6.8s-.3-3.6-.4-5.5-.5-3.8-1-4.1c-.5-.4-.6-1.5-.2-2.5.6-1.5.9-1.6 1.5-.5 1.1 1.8 3.1.5 3.1-1.9s-2-3.7-3-2c-.4.7-1.5 1-2.5.7-1-.4-1.3-1.2-.8-1.9.4-.7.6-2.1.5-3.1-.2-.9.1-1.7.7-1.7.5 0 .8-1 .5-2.3-.3-1.2-.8-3.8-1.1-5.7s-1.5-5-2.6-6.9c-1.2-1.9-1.6-3.1-1-2.8 2.2 1.4 2.3-1.2.2-6-4-8.7-5.3-11.3-6.1-11.3-.4 0-.6-.9-.5-2.1.1-2 .3-1.9 2.5.6 1.3 1.5 2.5 2.5 2.8 2.2.3-.2-.2-1.1-1-2-.8-.8-1.3-1.7-1-2s0-1.5-.6-2.7c-1-1.8-1.4-1.9-2.7-.8-1.4 1.1-1.5 1-.8-1 .5-1.7.2-2.9-1.3-4.2-1.1-1-2.3-1.6-2.7-1.2-.7.7-3.5-2.5-3.5-4 0-.4 1.7.3 3.8 1.5l3.7 2.2-2.2-2.9c-2.7-3.3-2.9-4.8-.8-4 .8.4 1.5.2 1.5-.2-.1-2.1-1.7-3.3-4.2-3-1.5.2-2.5 0-2.3-.5.3-.4-.1-1-.7-1.2-1-.4-.9-.8.2-1.7 1.3-1 1.2-1.1-.3-.6-1.1.3-2.5-.1-3.5-1-1.5-1.5-1.4-1.6.6-1 1.3.5 2.2.3 2.2-.3s-.4-1.1-1-1.1c-.5 0-1-.6-1-1.4 0-.7-.7-1.9-1.5-2.6s-1.5-1.9-1.5-2.8c0-.8-1.2-3-2.6-4.9s-2.4-4-2.1-4.7c1-2.4-.8-3.9-3.2-2.7-1.2.7-1.8 1.7-1.5 2.3.4.7.3.8-.4.4-.6-.4-.9-1.3-.6-2 .3-.8.1-1.7-.5-2-.6-.4-.8-1.3-.5-2q.6-1.35-1.8-1.5c-5.3-.1-5.6-.3-5.3-3.7.1-1.8-.3-3.5-.9-3.8-.6-.2-.1-.5 1.2-.5 1.7-.1 2.2-.6 2-1.9-.2-.9-1-1.7-1.8-1.7s-1.4.6-1.2 1.3c.1.9-.6 1-2.5.6-2.6-.7-2.7-.6-1.3 1.1 1.3 1.6 1.3 1.8 0 1-.8-.5-2.8-.9-4.5-.8-1.9 0-2.2-.1-.8-.4 2.1-.4 2.2-.7 1.4-6.7 0-.4-1.1-.6-2.3-.2-2.3.6-8.8-1.2-9.9-2.7-.3-.4-1-.7-1.5-.6-3.4.6-4.6-.2-4-2.7.6-2.1.4-2.5-.8-2.1-.9.4-2-.1-2.5-1.1-.6-.9-1.1-1.3-1.1-.7 0 .5-.4.4-.9-.4-1.3-2-4.4-.6-3.7 1.7.5 1.3-.1 2.3-1.9 3.2-1.9 1-2.2 1.6-1.3 2.2 1 .6 1 1-.2 1.8q-1.5.9-1.8 0c-.6-1.6-2-1.1-2.4.7-.3 1.6-.6 1.5-1.7-.5-.7-1.3-1.8-4.3-2.5-6.6-1.2-4.1-1.2-4.3.5-3.9 1.1.3 1.9 0 1.9-.6 0-.9-1.9-1.5-4.1-1.3-1.1.2-3.1-8-2.1-9 .5-.5.9.4.9 2.3 0 3.1 1.5 4.9 4.3 4.9 1.2-.1 1.2-.3-.2-1.4-2.2-1.6-2.3-3.6-.3-3.6.8 0 1.5.5 1.5 1.1 0 .5.5.7 1.1.3.8-.4.3-1.1-1.2-2-1.3-.7-2.7-1-3.1-.8-.5.3-.8.1-.8-.5 0-1.5 1.8-2.3 2.2-.9.3.9 1.1.9 3.5-.1 2.2-.9 4.1-1 6.9-.2 2.2.5 6.6 1.3 9.9 1.7s7.4 1.5 9.3 2.5c1.8 1.1 3.6 1.9 4 1.9s1.5-1.7 2.4-3.8c2.3-5 1.3-10.3-2.2-11.3-2.4-.7-2.4-.7-.2-.8 1.2-.1 2.2-.7 2.2-1.6 0-.8.7-1.5 1.5-1.5 1.4 0 2-1.7 1.6-4.6-.1-.7 1.2-1.6 2.7-2.2 3.2-1.1 4.9-5 2.6-5.9-.8-.3-2.2.1-3.2.8-1.4 1.2-1.4 1 .2-.8 1.5-1.8 2.1-2 3.6-1.1 1.4.9 2.2.9 3.4-.1 1.9-1.6 2.2-.1.4 1.7-.9.9-.6 1.2 1.6 1.2 2.4 0 2.6-.2 1.6-1.5-1.7-2-.4-3.8 2-2.5 1.7.9 1.7.7.5-3.5-.9-2.7-1-4.7-.4-5 .5-.4.9.8.9 2.5 0 4.7 2.1 4.5 7.5-.7 2.8-2.7 8.3-7.2 12.3-10.2 3.9-3 7.2-5.9 7.2-6.6 0-.6.9-2 2-3s2-3.1 2-4.6.5-3.1 1-3.4c1.9-1.2 1-3.3-2-4.4-1.6-.5-3-1.5-3-2 0-.6-.7-1.1-1.5-1.1-.9 0-1.5-.9-1.5-2.4 0-3.1-1.9-4.4-3.5-2.3-.9 1.2-1.4 1.4-2.3.5s-1.2-.9-1.2 0c0 .7-.4 1.2-.9 1.2s-.7-1.9-.5-4.3c.2-2.5 0-3.7-.5-2.9-1 1.7-10.7 1-10.3-.7.1-.6-.7-1.1-1.9-1.1-1.1 0-1.7-.5-1.4-1 .3-.6-.5-1-1.8-1-1.4 0-2.7-.7-3.1-1.5-.9-2.4-2.1-1.7-2.3 1.2m8.9 5.7c2 1.5 1.4 2.6-1.3 2.6-2.1 0-3.3-1.5-2.4-3 .8-1.3 1.6-1.2 3.7.4m-81.7 1.6c-.3.6-.3 1.9 0 3 .5 1.7 1 1.8 2.7.9 1.3-.7 2.3-.8 3-.1s.4 1-.7.9c-2.8-.3-4.2 2.9-2.6 5.5 1.3 2.1 1.3 2.2-.2.9-1-.7-1.7-2.4-1.7-3.7s-.5-2.4-1.1-2.4c-.7 0-.9 1-.5 2.7l.6 2.8-1.6-2.9c-1.1-2-1.3-3.1-.5-3.9.6-.6 1.1-1.9 1.1-2.9s.5-1.8 1.1-1.8c.5 0 .7.5.4 1m10.1-.1c-.6.9-4.6 2.2-4.6 1.5 0-.3 1-.9 2.3-1.4 2.9-1.1 2.9-1.1 2.3-.1M461 325c0 .5-.4 1-1 1-.5 0-1-.5-1-1 0-.6.5-1 1-1 .6 0 1 .4 1 1m-13.5 2c-.5 1.4-.2 2 .9 2q1.65 0 1.5 2.7c-.1 1.7-.3 2.1-.6 1-.2-.9-.8-1.7-1.3-1.7-1.2 0-2-2.8-1.4-4.5.9-2.2 1.6-1.8.9.5m47.3 1.1c.2 2.3.2 2.3-1.3.5-1.8-2.4-2-3.9-.2-3.4.6.3 1.3 1.5 1.5 2.9m35.9-1.4c-.4.3-.7 0-.7-.7s.3-1 .7-.7c.3.4.3 1 0 1.4m-78.9 1.2c.3.8-.1 1.2-.9.9-.7-.2-1.5-1-1.7-1.7-.3-.8.1-1.2.9-.9.7.2 1.5 1 1.7 1.7m57.7-.1c-.6.4-1.2 2.1-1.3 3.8-.3 2.4.3 3.6 2 4.8q2.25 1.65 1.2 2.4c-.7.4-1.4 1.6-1.7 2.7-.3 1.3-.5.7-.6-1.5-.1-2.8-.4-3.2-1.1-1.8-.7 1-.7 2.5 0 4.2.7 2.1.7 2.4-.6 1.9s-1.5-1.9-1.1-7.4c.4-5.3.2-6.9-.9-6.9-.7 0-1.6-.5-2-1.2-.4-.6-.3-.8.2-.5.6.3 1.6.2 2.4-.4 1.8-1 5-1.2 3.5-.1m8.2-.1c-.4.3-1 .3-1.4 0-.3-.4 0-.7.7-.7s1 .3.7.7m-6 3.5c-.3.8-.6.5-.6-.6-.1-1.1.2-1.7.5-1.3.3.3.4 1.2.1 1.9m9.1 1c.3 2.3-.2 3-2.4 3.8-2.2.9-3.1.8-4.3-.6-1.5-1.5-1.3-1.6 2.2-1s3.7.5 3.7-1.8c0-1.7-.7-2.6-2.2-2.9-2-.5-2-.5.2-.4 1.9.2 2.6.8 2.8 2.9m-53.8-.3c0 1.1-3.1 2.4-3.9 1.6-.3-.3.1-1 .9-1.5 1.9-1.2 3-1.2 3-.1m20 .1c1.3.8 1.3 1-.2 1-.9 0-2-.5-2.3-1-.8-1.3.5-1.3 2.5 0m27.7-.3c-.4.3-1 .3-1.4 0-.3-.4 0-.7.7-.7s1 .3.7.7m-33 1c-.4.3-1 .3-1.4 0-.3-.4 0-.7.7-.7s1 .3.7.7m16.8.3c.3.5.1 1-.4 1-.6 0-1.1-.5-1.1-1 0-.6.2-1 .4-1 .3 0 .8.4 1.1 1m-21.1 1.1c-.3.6 0 1.6.7 2.1 1 .7.8.8-.8.3-1.5-.4-2.5 0-3.2 1.2-.7 1.1-1.1 1.3-1.1.5s1-2.2 2.3-3.3c2.6-2.1 3.1-2.3 2.1-.8m16.6-.7c0 .3-.4.8-1 1.1-.5.3-1 .1-1-.4 0-.6.5-1.1 1-1.1.6 0 1 .2 1 .4m-6 4.3c-1.1 1.7-1.1 1.7-.6 0 .3-1 .6-2.4.7-3 0-.9.2-.9.5 0 .3.7 0 2-.6 3m-2.3-2c-.4.3-1 .3-1.4 0-.3-.4 0-.7.7-.7s1 .3.7.7m13.3.3c1.2.7 1 .9-.8.7-1.2 0-2.2-.5-2.2-.9 0-1.1 1.2-1 3 .2m6-.6c0 .3-.5.8-1.2 1.2s-.8.3-.4-.4c.7-1.2 1.6-1.6 1.6-.8m20.7.3c-.4.3-1 .3-1.4 0-.3-.4 0-.7.7-.7s1 .3.7.7m-69 .9c-.3.3-1.2.4-1.9.1-.8-.3-.5-.6.6-.6 1.1-.1 1.7.2 1.3.5m72.3-.2c0 .3-.4.8-1 1.1-.5.3-1 .1-1-.4 0-.6.5-1.1 1-1.1.6 0 1 .2 1 .4m-73.3 3.3c-.4.3-.7 0-.7-.7s.3-1 .7-.7c.3.4.3 1 0 1.4m15 .5c-.3.8-.6.5-.6-.6-.1-1.1.2-1.7.5-1.3.3.3.4 1.2.1 1.9m14-.5c-.4.3-.7 0-.7-.7s.3-1 .7-.7c.3.4.3 1 0 1.4m9.1.9c.7-.4 1.2-.2 1.2.4 0 2-4.5.6-4.8-1.5-.4-2-.3-2 1.1-.1.7 1 1.9 1.6 2.5 1.2m11 .9c-.2 3.5-2.2 5.4-3.2 3.2-.5-.9-.7-.9-1.2 0-.3.7-1 1.3-1.5 1.3-.6 0-.7-.5-.3-1.2.5-.8.2-.9-.9-.5-2.2.8-2.3-1.9-.2-3.9 1.3-1.4 1.5-1.4 1.5 0 0 .9-.6 1.6-1.2 1.6-.9 0-.8.3.2 1 .8.5 1.7.5 2 .1s1.3-1 2.3-1.4c.9-.3 1.7-1.3 1.7-2.2 0-.8.2-1.5.5-1.5s.5 1.6.3 3.5m-16.1.2c-.4.3-.7 0-.7-.7s.3-1 .7-.7c.3.4.3 1 0 1.4m31.3-.7c0 .6-1.1 1-2.5 1s-2.5-.4-2.5-.8 1.1-.9 2.5-1 2.5.3 2.5.8m-36.6 1.6c.3.8.2 1.2-.4.9s-1-1-1-1.6c0-1.4.7-1.1 1.4.7m3.3-.9c-.4.3-1 .3-1.4 0-.3-.4 0-.7.7-.7s1 .3.7.7m-19 3c-.4.3-1 .3-1.4 0-.3-.4 0-.7.7-.7s1 .3.7.7m44 1c-.4.3-.7 0-.7-.7s.3-1 .7-.7c.3.4.3 1 0 1.4m-29 1c-.4.3-1 .3-1.4 0-.3-.4 0-.7.7-.7s1 .3.7.7m11 2.5c-.3.8-.6.5-.6-.6-.1-1.1.2-1.7.5-1.3.3.3.4 1.2.1 1.9m-21 .5c-.4.3-.7 0-.7-.7s.3-1 .7-.7c.3.4.3 1 0 1.4m13.3-.7c0 .5-.9 1-2.1 1-1.1 0-1.7-.5-1.4-1 .3-.6 1.3-1 2.1-1s1.4.4 1.4 1m44.9 22.4c-.9.8-1 .7-.5-.7.3-1 .7-2.4.7-3 .1-.7.3-.4.6.7.3 1-.1 2.3-.8 3m-5.2.3c-.4.3-1 .3-1.4 0-.3-.4 0-.7.7-.7s1 .3.7.7m-6.2 8.3c.3.5.4 1 .1 1s-.8-.5-1.1-1c-.3-.6-.4-1-.1-1s.8.4 1.1 1M496 419c0 .5-.4 1-1 1-.5 0-1-.5-1-1 0-.6.5-1 1-1 .6 0 1 .4 1 1m2.5 2.1c-1 1.5-2.5 1-1.9-.6.4-.8 1-1.2 1.5-.9s.7 1 .4 1.5m-4.7.2c1.5 1.8.1 3.9-1.8 2.7-1.2-.8-1.1-1 .5-1 1.8-.1 1.7-.2-.5-1.5-1.7-1-2-1.4-.9-1.5.9 0 2.1.6 2.7 1.3m15.9 3.4c-.4.3-1 .3-1.4 0-.3-.4 0-.7.7-.7s1 .3.7.7m-26 3.5c-.3.8-.6.5-.6-.6-.1-1.1.2-1.7.5-1.3.3.3.4 1.2.1 1.9m7-1.6c-.3.3-1.2.4-1.9.1-.8-.3-.5-.6.6-.6 1.1-.1 1.7.2 1.3.5M517 429c0 .5-.4 1-1 1-.5 0-1-.5-1-1 0-.6.5-1 1-1 .6 0 1 .4 1 1m8 6c0 .5-.5 1-1.1 1-.5 0-.7-.5-.4-1 .3-.6.8-1 1.1-1 .2 0 .4.4.4 1m-2 2.4c0 .3-.4.8-1 1.1-.5.3-1 .1-1-.4 0-.6.5-1.1 1-1.1.6 0 1 .2 1 .4m21.4 21.2c.3.8.2 1.2-.4.9s-1-1-1-1.6c0-1.4.7-1.1 1.4.7"/><path d="M492.6 317.5c.4.8 1 1.5 1.4 1.5.5 0 1.5.3 2.4.6 1.2.4 1.6 0 1.6-1.5 0-1.7-.6-2.1-3-2.1-2.2 0-2.8.4-2.4 1.5m7.5-.8c-.1.6-.4 1.9-.8 2.9-.4 1.1-.3 1.5.5 1 .6-.3 1.3-.2 1.7.4.3.5 1.1 1 1.6 1 .6 0 .7-.5.4-1-.3-.6 0-1 .7-1 .8 0 2.3-.6 3.4-1.4 1.8-1.4 1.8-1.5 0-2.2-1.3-.5-2.4 0-3.7 1.7l-1.8 2.4-1-2.5c-.5-1.4-1-2-1-1.3m44.4.3c-.8 1.4 3.4 2.9 6 2.1 1.9-.5 1.9-.6-.2-.9-1.3-.2-2.3-.8-2.3-1.3 0-1.2-2.7-1.2-3.5.1m8.5-.1c.1 1.7 3.9 5.3 5.2 4.9.7-.3 2.2 0 3.3.8 3.7 2.8 3.9 1.2.2-2-3.4-3-8.7-5.3-8.7-3.7m-13.7.8c.4.3 1 .3 1.4 0 .3-.4 0-.7-.7-.7s-1 .3-.7.7m-55.7 1.9c-.4 1 .1 2.2 1.1 3 1.2.9 1.4 1.3.5 1.4-.7 0-1 .5-.7 1 .5.8 1.1.7 2.1-.1.7-.6 1.1-1.5.8-2s.4-.9 1.5-.9c1.2 0 2.1-.5 2.1-1.1s-.7-.9-1.5-.5c-.8.3-1.5.1-1.5-.3 0-.5.6-1.2 1.3-1.4.6-.3-.2-.6-1.9-.6-2.1-.1-3.4.5-3.8 1.5m35.7.9c-.3.9-.4 1.7-.2 1.9.8.7 4.9-1.3 4.9-2.4 0-1.6-4-1.2-4.7.5m-39 1.2c.4.3 1 .3 1.4 0 .3-.4 0-.7-.7-.7s-1 .3-.7.7m34.2 1.3c-.3.5-.2 1 .4 1 .5 0 1.3-.5 1.6-1 .3-.6.2-1-.4-1-.5 0-1.3.4-1.6 1m39.5.6c0 .8.5 1.2 1 .9.6-.4.8-1.1.5-1.6-.9-1.4-1.5-1.1-1.5.7m12 5.2c0 .5.7 1.6 1.6 2.3 1.4 1.2 1.6 1.1 1.3-.5-.4-2-2.9-3.5-2.9-1.8m-142.7 19.9c.4.3 1 .3 1.4 0 .3-.4 0-.7-.7-.7s-1 .3-.7.7m5.7 2.3c0 .7.3 1 .7.7.3-.4.3-1 0-1.4-.4-.3-.7 0-.7.7m-7 3c0 .5.5 1 1.1 1 .5 0 .7-.5.4-1-.3-.6-.8-1-1.1-1-.2 0-.4.4-.4 1m-366 1c0 .7.3 1 .7.7.3-.4.3-1 0-1.4-.4-.3-.7 0-.7.7m-3.3 2.6c-.4.4-.7 1.4-.7 2.3 0 1.1.3 1.2 1.1.4.6-.6 1-1.6.7-2.3-.2-.6-.7-.8-1.1-.4m371.3 6.6c.1 1.5 7 6.2 7 4.8 0-2-1.3-4-2.6-4-.8 0-1.4-.5-1.4-1 0-.6-.7-1-1.5-1s-1.5.6-1.5 1.2m10.4 6.3q-1.8 1.35-.6 1.5c.7 0 2-.7 2.8-1.5 2-1.9.4-2-2.2 0m4.6.4c0 .5.9 1.1 2.1 1.4 1.6.4 1.8.3.8-.9-1.3-1.6-2.9-1.9-2.9-.5m-10.5 5.1c2.2 4.3 6.5 6.1 6.5 2.8 0-1.4-5.1-5.8-6.7-5.8-1.1 0-1.1.5.2 3m6.5-.5q0 1.5 2.7 1.5c2.9 0 2.9-.2-.4-1.9-1.9-1-2.3-.9-2.3.4m9 1.9c0 .9.5 1.6 1 1.6.6 0 1-.4 1-.9 0-.6-.4-1.3-1-1.6-.5-.3-1 .1-1 .9m-28.4 3.1c1 .8 2.3 1.5 2.8 1.5.6 0 .1-.7-1-1.5-1-.8-2.3-1.5-2.8-1.5-.6 0-.1.7 1 1.5m24.7-.8c.4.3 1 .3 1.4 0 .3-.4 0-.7-.7-.7s-1 .3-.7.7M454 381c0 .7.3 1 .7.7.3-.4.3-1 0-1.4-.4-.3-.7 0-.7.7m-12.4.8c.6.4 1.4 1.4 1.7 2.2.4 1 .6.8.6-.8.1-1.5-.5-2.2-1.6-2.2s-1.4.3-.7.8m86 .5c.3 1 .9 1.5 1.2 1.2s0-1.1-.7-1.8c-1-.9-1.1-.8-.5.6m-106.3 1.4c.4.3 1 .3 1.4 0 .3-.4 0-.7-.7-.7s-1 .3-.7.7m24.7.2c0 .6.4 1.3 1 1.6s.7-.1.4-.9c-.7-1.8-1.4-2.1-1.4-.7m-35 2c0 1.9 11.7 10.5 12.5 9.2 1.2-2-4.1-7.5-8.3-8.7-2.3-.7-4.2-.9-4.2-.5m36 6.6c0 .3 1.6 2.2 3.6 4.2 3.3 3.4 3.5 3.6 2.9 1.3-.4-1.4-1.6-3.3-2.7-4.3-1.9-1.6-3.8-2.2-3.8-1.2m12.1 2.1c0 1.1.3 1.4.6.6.3-.7.2-1.6-.1-1.9-.3-.4-.6.2-.5 1.3m-424.4 6.8c-.9 2.4-.9 2.8.3 2.1.6-.3 1 .2 1.1 1.2 0 1 .3 1.3.5.7.3-.6.1-2.1-.4-3.4-.8-2-.9-2.1-1.5-.6m362.7 1.1c.4 1 .2 2.1-.4 2.5q-1.05.6.3 2.4c1.2 1.6 1.3 1.4 1.4-1.8.1-2-.4-3.9-1-4.3q-1.05-.6-.3 1.2m-143.4.6c0 .5.9.9 2 .9s2-.2 2-.4-.9-.6-2-.9-2-.1-2 .4m172.5-.1c.3.5.8 1 1.1 1s.2-.5-.1-1c-.3-.6-.8-1-1.1-1s-.2.4.1 1m-68.2 2.3c-4.5 1.7-6.1 3.4-4 4.3 4.1 1.5 11.9-1.9 10.2-4.6-.8-1.2-2.1-1.2-6.2.3m133.8.6c-.9.6-1 1.1-.2 1.5 1.3.8 3.1-.1 3.1-1.5 0-1.1-1.1-1.1-2.9 0m-31.7 6.6q-.6 1.5-3 .9c-2.4-.6-2.9.1-1.8 3 .3.9 1.2 1.2 2.2.9 2-.8 5.2-4 5.2-5.3 0-1.6-2-1.2-2.6.5m24.6-.8c0 .4.5 1.5 1 2.3.8 1.3 1 1.3 1-.2 0-.9-.4-2-1-2.3-.5-.3-1-.3-1 .2m24 .3c0 .5.9 1 2 1s2-.5 2-1c0-.6-.9-1-2-1s-2 .4-2 1m-475 1c0 .7.3 1 .7.7.3-.4.3-1 0-1.4-.4-.3-.7 0-.7.7m455 1c0 .5.5 1 1.1 1 .5 0 .7-.5.4-1-.3-.6-.8-1-1.1-1-.2 0-.4.4-.4 1m14 .1c0 .5.5.7 1 .4.6-.3 1-.8 1-1.1 0-.2-.4-.4-1-.4-.5 0-1 .5-1 1.1m-17.7 2.6c.4.3 1 .3 1.4 0 .3-.4 0-.7-.7-.7s-1 .3-.7.7m28.9 1.5c.3.7 1.3 1.5 2.2 1.6 1.2.3 1.7-.1 1.4-1a3.1 3.1 0 0 0-2.2-1.6c-1.2-.3-1.7.1-1.4 1m-1.7 2.8c.3.5.8 1 1.1 1s.2-.5-.1-1c-.3-.6-.8-1-1.1-1s-.2.4.1 1m14.5-.2c0 .5.7 1.5 1.5 2.2s1.5.8 1.5.2c0-.5-.7-1.5-1.5-2.2s-1.5-.8-1.5-.2m-66 5.1c0 .5.6 1.4 1.4 2 1.6 1.3 3.2-.2 2.1-1.9-.8-1.2-3.5-1.3-3.5-.1m60.5.1c.3.5.8 1 1.1 1s.2-.5-.1-1c-.3-.6-.8-1-1.1-1s-.2.4.1 1m-58.5 5.4c0 .8.7 2.1 1.5 3 .8.8 1.5 3.2 1.5 5.5s.4 4.1.9 4.1c1.3 0 2.2-1.6 1.4-2.4-.4-.4-.9-2.6-1-4.9-.2-2.3-.5-4.8-.8-5.5-.6-1.7-3.5-1.5-3.5.2m10.7 6.3c-.4.3-.7 1.1-.7 1.7s.5.5 1.2-.2c.6-.6.9-1.4.7-1.7-.3-.3-.9-.2-1.2.2m60.3.2c0 1.3 2.6 3.2 3.3 2.4.4-.3.7-.1.7.5 0 .7.7 1.2 1.5 1.2 2 0 1.9-1.3-.3-3.3-2-1.8-5.2-2.3-5.2-.8m12.7 3.1c.3 1.1.7 2 .9 2s.4-.9.4-2-.4-2-.9-2-.7.9-.4 2m-71 11.7c-1.1 1-.8 4.3.3 4.3.6 0 1-1.1 1-2.5 0-2.6-.2-2.9-1.3-1.8m75.3 8.5c0 1.4.7 3.1 1.5 3.8 1.2 1 1.3.7.5-2.1-1.2-4.2-2-4.9-2-1.7M479 480c0 1.1.5 2 1 2 .6 0 1-.9 1-2s-.4-2-1-2c-.5 0-1 .9-1 2m88.6 6.5c.4.8 1.1 1.5 1.6 1.5.6 0 .5-.6-.2-1.5-.7-.8-1.4-1.5-1.6-1.5s-.1.7.2 1.5m4.4 33.7c0 .9.9 2.6 2 3.9 1.9 2.3 1.9 2.3 2 .3 0-1.1-.9-2.9-2-3.9-1.7-1.5-2-1.6-2-.3m-245.7 8.5c.4.3 1 .3 1.4 0 .3-.4 0-.7-.7-.7s-1 .3-.7.7M44 557.7c.1 7.7 6.8 33.2 11.5 43.9 1.3 2.8 2.9 6.9 3.6 9.2s1.7 4.2 2.2 4.2c1.9 0 12.7-4.3 12.7-5 0-.4-.8-1.8-1.8-3.1-4.7-6.3-19.2-33.2-19.2-35.7 0-1.9-6.8-16.6-7.8-17-.8-.2-1.2 1-1.2 3.5m457.7 45c-1.5 1.4-.6 3.2 2.2 4.6l2.8 1.4-1-3.3c-1-3.2-2.5-4.2-4-2.7M343.5 604c.3.5.8 1 1.1 1 .2 0 .4-.5.4-1 0-.6-.5-1-1.1-1-.5 0-.7.4-.4 1m163.1 6.8c-.3.6-.1 1.4.5 1.7 1.5 1 2.5-.3 1.2-1.6-.7-.7-1.3-.7-1.7-.1m6.4 5.4c0 1.7 1.8 4.4 2.4 3.7.8-.7-.5-4.9-1.5-4.9-.5 0-.9.6-.9 1.2m4 5.4c0 .8.5 1.2 1 .9.6-.3 1-1 1-1.6 0-.5-.4-.9-1-.9-.5 0-1 .7-1 1.6m-93.5 34.1c-8.5 1.8-12 3.6-5.5 2.7 2.5-.3 5.5-1 6.7-1.6s6.2-.9 11.7-.6c8.9.4 9.8.6 12.7 3.3 2.3 2.1 3 2.5 2.6 1.2-.4-1-.7-2.1-.7-2.3s-.7-.4-1.5-.4-1.5-.4-1.5-1c0-1.4-6.8-3-12.5-2.9-2.7 0-8.1.7-12 1.6m99.6 2.9c0 1.1.3 1.4.6.6.3-.7.2-1.6-.1-1.9-.3-.4-.6.2-.5 1.3M380 699.5c-2.5 3-.8 18.5 2 18.5.4 0 1.3-2.1 1.9-4.8 1-4 .9-5.5-.7-10-1.7-4.6-2.1-5.1-3.2-3.7m137.3 3.2c.4.3 1 .3 1.4 0 .3-.4 0-.7-.7-.7s-1 .3-.7.7m-428 271c.4.3 1 .3 1.4 0 .3-.4 0-.7-.7-.7s-1 .3-.7.7m21 8c.4.3 1 .3 1.4 0 .3-.4 0-.7-.7-.7s-1 .3-.7.7m-12 12c.4.3 1 .3 1.4 0 .3-.4 0-.7-.7-.7s-1 .3-.7.7m5.5 0c1.2.2 3 .2 4 0 .9-.3-.1-.5-2.3-.4-2.2 0-3 .2-1.7.4m7.2.3c-1.3.8-1.3 1 .2 1 .9 0 2-.5 2.3-1 .8-1.3-.5-1.3-2.5 0m18.3-.3c.4.3 1 .3 1.4 0 .3-.4 0-.7-.7-.7s-1 .3-.7.7m5 0c.4.3 1 .3 1.4 0 .3-.4 0-.7-.7-.7s-1 .3-.7.7M118 995c-1.3.8-1.2 1 .3 1 .9 0 1.7-.5 1.7-1 0-1.2-.1-1.2-2 0M2 1066c-1.4.4 132.7.8 297.9.9s300.1-.2 299.7-.6c-.9-1-594.6-1.3-597.6-.3"/></svg>